<svg xmlns="http://www.w3.org/2000/svg" width="254.492" height="198.977" viewBox="0 0 254.492 198.977">
  <g id="calendar" transform="translate(-18.5 -95.26)">
    <ellipse id="Ellipse_131" data-name="Ellipse 131" cx="24.171" cy="5.211" rx="24.171" ry="5.211" transform="translate(54.478 283.815)" fill="#deeeff"/>
    <ellipse id="Ellipse_132" data-name="Ellipse 132" cx="29.503" cy="5.211" rx="29.503" ry="5.211" transform="translate(177.843 283.815)" fill="#deeeff"/>
    <ellipse id="Ellipse_133" data-name="Ellipse 133" cx="41.585" cy="3.166" rx="41.585" ry="3.166" transform="translate(163.936 280.648)" fill="#deeeff"/>
    <path id="Path_693" data-name="Path 693" d="M71.623,272.43s-7.146-25.171-37.083-32.18c1.9,45.488,33.735,71.1,37.083,73.413s0-41.228,0-41.228" transform="translate(-7.223 -65.288)" fill="#2274a4"/>
    <path id="Path_694" data-name="Path 694" d="M63.851,345.5S56.7,317.646,18.5,320.707c14.292,39.068,35.412,41.107,48.215,45.862S63.851,345.5,63.851,345.5Z" transform="translate(0 -101.412)" fill="#054e79"/>
    <path id="Path_695" data-name="Path 695" d="M396.62,168.4s11.23-23.637,41.937-25.517c-9.515,44.526-45.169,64.448-48.841,66.163s6.9-40.645,6.9-40.645" transform="translate(-166.807 -21.443)" fill="#2274a4"/>
    <path id="Path_696" data-name="Path 696" d="M383.533,240.273s11.709-26.259,48.863-16.843c-20.636,36.121-41.778,34.593-55.218,37.133S383.533,240.273,383.533,240.273Z" transform="translate(-159.404 -56.796)" fill="#054e79"/>
    <path id="Path_697" data-name="Path 697" d="M260.593,116.2H97.165a9.345,9.345,0,0,0-9.345,9.345V273.608a9.345,9.345,0,0,0,9.345,9.345H260.593a9.345,9.345,0,0,0,9.345-9.345V125.529a9.345,9.345,0,0,0-9.345-9.329ZM134.644,131.977a5.112,5.112,0,1,1,3.618-1.5,5.112,5.112,0,0,1-3.618,1.5Zm88.5,0a5.112,5.112,0,1,1,3.618-1.5A5.112,5.112,0,0,1,223.144,131.977Z" transform="translate(-31.214 -9.429)" fill="#fffaff"/>
    <rect id="Rectangle_209" data-name="Rectangle 209" width="22.417" height="16.618" transform="translate(113.209 175.627)" fill="#a70e1b"/>
    <path id="Path_698" data-name="Path 698" d="M260.593,116.2H97.165a9.345,9.345,0,0,0-9.345,9.345v14.007h182.1V125.529A9.345,9.345,0,0,0,260.593,116.2ZM134.644,131.977a5.112,5.112,0,1,1,3.618-1.5,5.112,5.112,0,0,1-3.618,1.5Zm88.5,0a5.112,5.112,0,1,1,3.618-1.5A5.112,5.112,0,0,1,223.144,131.977Z" transform="translate(-31.214 -9.429)" fill="#da2b39"/>
    <path id="Path_699" data-name="Path 699" d="M268.162,308.727H105.63V198.89H268.162Zm-161.85-.676H267.485V199.566H106.312Z" transform="translate(-39.234 -46.664)" fill="#dbdbdb"/>
    <rect id="Rectangle_210" data-name="Rectangle 210" width="161.855" height="0.665" transform="translate(66.737 174.962)" fill="#dbdbdb"/>
    <rect id="Rectangle_211" data-name="Rectangle 211" width="161.855" height="0.665" transform="translate(66.737 192.25)" fill="#dbdbdb"/>
    <rect id="Rectangle_212" data-name="Rectangle 212" width="161.855" height="0.665" transform="translate(66.737 209.533)" fill="#dbdbdb"/>
    <rect id="Rectangle_213" data-name="Rectangle 213" width="161.855" height="0.665" transform="translate(66.737 226.821)" fill="#dbdbdb"/>
    <rect id="Rectangle_214" data-name="Rectangle 214" width="161.855" height="0.665" transform="translate(66.737 244.104)" fill="#dbdbdb"/>
    <rect id="Rectangle_215" data-name="Rectangle 215" width="0.66" height="109.161" transform="translate(89.478 152.561)" fill="#dbdbdb"/>
    <rect id="Rectangle_216" data-name="Rectangle 216" width="0.66" height="109.161" transform="translate(112.555 152.561)" fill="#dbdbdb"/>
    <rect id="Rectangle_217" data-name="Rectangle 217" width="0.66" height="109.161" transform="translate(135.631 152.561)" fill="#dbdbdb"/>
    <rect id="Rectangle_218" data-name="Rectangle 218" width="0.66" height="109.161" transform="translate(158.708 152.561)" fill="#dbdbdb"/>
    <rect id="Rectangle_219" data-name="Rectangle 219" width="0.66" height="109.161" transform="translate(181.785 152.561)" fill="#dbdbdb"/>
    <rect id="Rectangle_220" data-name="Rectangle 220" width="0.66" height="109.161" transform="translate(204.861 152.561)" fill="#dbdbdb"/>
    <text id="_31" data-name="31" transform="translate(75.224 185.211)" fill="#ff596a" font-size="6" font-family="Segoe UI"><tspan x="0" y="0">31</tspan></text>
    <text id="_01" data-name="01" transform="translate(98.125 185.211)" fill="#bababa" font-size="6" font-family="Segoe UI"><tspan x="0" y="0">01</tspan></text>
    <text id="_02" data-name="02" transform="translate(121.136 185.211)" fill="#fff" font-size="6" font-family="Segoe UI"><tspan x="0" y="0">02</tspan></text>
    <text id="_03" data-name="03" transform="translate(144.146 185.211)" fill="#bababa" font-size="6" font-family="Segoe UI"><tspan x="0" y="0">03</tspan></text>
    <text id="_04" data-name="04" transform="translate(167.157 185.211)" fill="#bababa" font-size="6" font-family="Segoe UI"><tspan x="0" y="0">04</tspan></text>
    <text id="_05" data-name="05" transform="translate(190.168 185.211)" fill="#bababa" font-size="6" font-family="Segoe UI"><tspan x="0" y="0">05</tspan></text>
    <text id="_06" data-name="06" transform="translate(213.184 185.211)" fill="#bababa" font-size="6" font-family="Segoe UI"><tspan x="0" y="0">06</tspan></text>
    <text id="_07" data-name="07" transform="translate(75.224 202.554)" fill="#ff596a" font-size="6" font-family="Segoe UI"><tspan x="0" y="0">07</tspan></text>
    <text id="_08" data-name="08" transform="translate(98.125 202.554)" fill="#bababa" font-size="6" font-family="Segoe UI"><tspan x="0" y="0">08</tspan></text>
    <text id="_09" data-name="09" transform="translate(121.136 202.554)" fill="#bababa" font-size="6" font-family="Segoe UI"><tspan x="0" y="0">09</tspan></text>
    <text id="_10" data-name="10" transform="translate(144.146 202.554)" fill="#bababa" font-size="6" font-family="Segoe UI"><tspan x="0" y="0">10</tspan></text>
    <text id="_11" data-name="11" transform="translate(167.157 202.554)" fill="#bababa" font-size="6" font-family="Segoe UI"><tspan x="0" y="0">11</tspan></text>
    <text id="_12" data-name="12" transform="translate(190.168 202.554)" fill="#bababa" font-size="6" font-family="Segoe UI"><tspan x="0" y="0">12</tspan></text>
    <text id="_13" data-name="13" transform="translate(213.184 202.554)" fill="#bababa" font-size="6" font-family="Segoe UI"><tspan x="0" y="0">13</tspan></text>
    <text id="_14" data-name="14" transform="translate(75.224 219.672)" fill="#ff596a" font-size="6" font-family="Segoe UI"><tspan x="0" y="0">14</tspan></text>
    <text id="_15" data-name="15" transform="translate(98.125 219.672)" fill="#bababa" font-size="6" font-family="Segoe UI"><tspan x="0" y="0">15</tspan></text>
    <text id="_16" data-name="16" transform="translate(121.136 219.672)" fill="#bababa" font-size="6" font-family="Segoe UI"><tspan x="0" y="0">16</tspan></text>
    <text id="_17" data-name="17" transform="translate(144.146 219.672)" fill="#bababa" font-size="6" font-family="Segoe UI"><tspan x="0" y="0">17</tspan></text>
    <text id="_18" data-name="18" transform="translate(167.157 219.672)" fill="#bababa" font-size="6" font-family="Segoe UI"><tspan x="0" y="0">18</tspan></text>
    <text id="_19" data-name="19" transform="translate(190.168 219.672)" fill="#bababa" font-size="6" font-family="Segoe UI"><tspan x="0" y="0">19</tspan></text>
    <text id="_20" data-name="20" transform="translate(213.184 219.672)" fill="#bababa" font-size="6" font-family="Segoe UI"><tspan x="0" y="0">20</tspan></text>
    <text id="_21" data-name="21" transform="translate(75.224 237.015)" fill="#ff596a" font-size="6" font-family="Segoe UI"><tspan x="0" y="0">21</tspan></text>
    <text id="_22" data-name="22" transform="translate(98.125 237.015)" fill="#bababa" font-size="6" font-family="Segoe UI"><tspan x="0" y="0">22</tspan></text>
    <text id="_23" data-name="23" transform="translate(121.136 237.015)" fill="#bababa" font-size="6" font-family="Segoe UI"><tspan x="0" y="0">23</tspan></text>
    <text id="_24" data-name="24" transform="translate(144.146 237.015)" fill="#bababa" font-size="6" font-family="Segoe UI"><tspan x="0" y="0">24</tspan></text>
    <text id="_25" data-name="25" transform="translate(167.157 237.015)" fill="#bababa" font-size="6" font-family="Segoe UI"><tspan x="0" y="0">25</tspan></text>
    <text id="_26" data-name="26" transform="translate(190.168 237.015)" fill="#bababa" font-size="6" font-family="Segoe UI"><tspan x="0" y="0">26</tspan></text>
    <text id="_27" data-name="27" transform="translate(213.184 237.015)" fill="#bababa" font-size="6" font-family="Segoe UI"><tspan x="0" y="0">27</tspan></text>
    <text id="_28" data-name="28" transform="translate(75.224 253.996)" fill="#ff596a" font-size="6" font-family="Segoe UI"><tspan x="0" y="0">28</tspan></text>
    <text id="_29" data-name="29" transform="translate(98.125 253.996)" fill="#bababa" font-size="6" font-family="Segoe UI"><tspan x="0" y="0">29</tspan></text>
    <text id="_30" data-name="30" transform="translate(121.136 253.996)" fill="#bababa" font-size="6" font-family="Segoe UI"><tspan x="0" y="0">30</tspan></text>
    <text id="_31-2" data-name="31" transform="translate(144.146 253.996)" fill="#bababa" font-size="6" font-family="Segoe UI"><tspan x="0" y="0">31</tspan></text>
    <text id="_01-2" data-name="01" transform="translate(167.157 253.996)" fill="#f23b66" font-size="6" font-family="Segoe UI"><tspan x="0" y="0">01</tspan></text>
    <text id="_02-2" data-name="02" transform="translate(190.168 253.996)" fill="#f23b66" font-size="6" font-family="Segoe UI"><tspan x="0" y="0">02</tspan></text>
    <text id="_03-2" data-name="03" transform="translate(213.184 253.996)" fill="#f23b66" font-size="6" font-family="Segoe UI"><tspan x="0" y="0">03</tspan></text>
    <text id="Su" transform="translate(74.817 165.543)" fill="#da2b39" font-size="6" font-family="Segoe UI" font-weight="600"><tspan x="0" y="0">Su</tspan></text>
    <text id="JUNE" transform="translate(69.936 144.992)" fill="#ac3a43" font-size="10" font-family="Segoe UI" font-weight="600"><tspan x="0" y="0">JUNE</tspan></text>
    <text id="Mo" transform="translate(96.564 165.543)" fill="#5295bd" font-size="6" font-family="Segoe UI" font-weight="600"><tspan x="0" y="0" letter-spacing="0.01em">M</tspan><tspan y="0">o</tspan></text>
    <text id="Tu" transform="translate(120.877 165.543)" fill="#5295bd" font-size="6" font-family="Segoe UI" font-weight="600"><tspan x="0" y="0" letter-spacing="-0.04em">T</tspan><tspan y="0">u</tspan></text>
    <text id="We" transform="translate(142.75 165.543)" fill="#5295bd" font-size="6" font-family="Segoe UI" font-weight="600"><tspan x="0" y="0" letter-spacing="-0.03em">W</tspan><tspan y="0">e</tspan></text>
    <text id="Th" transform="translate(166.75 165.543)" fill="#5295bd" font-size="6" font-family="Segoe UI" font-weight="600"><tspan x="0" y="0" letter-spacing="-0.01em">T</tspan><tspan y="0">h</tspan></text>
    <text id="Fr" transform="translate(190.701 165.543)" fill="#5295bd" font-size="6" font-family="Segoe UI" font-weight="600"><tspan x="0" y="0" letter-spacing="-0.03em">F</tspan><tspan y="0">r</tspan></text>
    <text id="Sa" transform="translate(213.014 165.543)" fill="#5295bd" font-size="6" font-family="Segoe UI" font-weight="600"><tspan x="0" y="0">Sa</tspan></text>
    <rect id="Rectangle_221" data-name="Rectangle 221" width="7.003" height="26.177" rx="3.501" transform="translate(100.032 95.26)" fill="#2274a4"/>
    <rect id="Rectangle_222" data-name="Rectangle 222" width="7.003" height="26.177" rx="3.501" transform="translate(188.519 95.26)" fill="#2274a4"/>
    <path id="Path_700" data-name="Path 700" d="M126.671,270.159s.121,3.848.137,4.4a6.6,6.6,0,0,1-2.474,1.875,9.224,9.224,0,0,1-3.754-3.364,56.126,56.126,0,0,0,0-6.377C122.422,268.383,126.671,270.159,126.671,270.159Z" transform="translate(-45.966 -77.194)" fill="#ffbeac"/>
    <path id="Path_701" data-name="Path 701" d="M126.212,255.668s3.3,4.826,2.606,9.449c-.522,1.138-5.415,2.633-7.927-.522-1.341.588-2.006-1.929-2.094-2.628s1.215-.473,1.589.1c-.638-2.749-1.429-4.826-.55-5.409S125.651,254.739,126.212,255.668Z" transform="translate(-45.161 -72.087)" fill="#ffbeac"/>
    <path id="Path_702" data-name="Path 702" d="M122.223,248.094a17.592,17.592,0,0,1-2.4,1.539c.55-.445.55-1.413.181-1.424s-.929.709-2.094,1.319-5.915-.033-5.4,2.49c-1.1.379-2.039,1.737-1.209,3.82h0c.154,1.556,2.749,5.964,3.776,6.657,1.561,1.033,3.21-.242,3.721-.583s.836-1.066.385-2.276-.731-2.935,0-2.963,1.352,1.44,1.352,1.44l.462-.17a4.238,4.238,0,0,1-.038-2.6,9.548,9.548,0,0,0,.176-2.336l-.121-.044a3.8,3.8,0,0,0,1.913-1.649C124.048,249.051,122.9,247.533,122.223,248.094Z" transform="translate(-41.645 -68.768)" fill="#323759"/>
    <path id="Path_703" data-name="Path 703" d="M115.475,420s-2.3,1.2-3.111,1.534.093,4.266.621,4.458a1.479,1.479,0,0,1,.77,1.82c-.242.913.55,6.366,2.589,7.877s2.017-.121,1.8-1.99-.973-8.114.4-9.84S115.475,420,115.475,420Z" transform="translate(-42.12 -146.228)" fill="#323759"/>
    <path id="Path_704" data-name="Path 704" d="M126.344,440.992s-.621,3.776-.286,4.634,3.59.643,4.53.445a.863.863,0,0,0,.654-.764v-.77a5.008,5.008,0,0,0,4.3-.885c1.2-1.319.825-3.727-1.429-2.913-1.143.418-2.3,1.545-3.524-.038C129.747,440.25,126.344,440.992,126.344,440.992Z" transform="translate(-48.388 -155.485)" fill="#323759"/>
    <path id="Path_705" data-name="Path 705" d="M134.436,343.556s1.918,21.752,1.649,25.012S127.839,384.6,120.6,390.776a40.02,40.02,0,0,1-3.37-4.947s8.7-13.341,10.444-15.353-3.546-18.591-4.887-23.286S134.436,343.556,134.436,343.556Z" transform="translate(-44.458 -111.76)" fill="#054e79"/>
    <path id="Path_706" data-name="Path 706" d="M112.63,347.6s1.578,13.693,2.512,20.691,4.238,28.992,4.238,30.283c2.446,1.149,6.47,0,6.47,0s-2.342-22.175-2.485-26.117,1.22-20.922,1.22-20.922l-.759-5.711Z" transform="translate(-42.386 -112.826)" fill="#054e79"/>
    <path id="Path_707" data-name="Path 707" d="M101.8,286.29s-4.4,14.54-4.694,17.321,7.811,16.64,7.811,16.64l3.848-4.475-5.827-11.753,2.716-7.328Z" transform="translate(-35.391 -86.02)" fill="#5295bd"/>
    <path id="Path_708" data-name="Path 708" d="M118.8,277.063a8.641,8.641,0,0,1,.429-1.7c.165-.192,2.314-1.4,6.778-.187.66.231,1,1.891,1,1.891Z" transform="translate(-45.164 -80.773)" fill="#f2f2f2"/>
    <path id="Path_709" data-name="Path 709" d="M105.61,282.06s5.849-3.353,7.212-4.359,6.349-.918,7.657-.55c1.649.451,8.872,1.209,9.158,1.209a20.14,20.14,0,0,1,0,10.494c-.72,2.012-2.276,12.577-1.8,14.969a78.2,78.2,0,0,0,3.546,9.961c-3.848,5.079-15.524,5.656-23.472,4.4.379-8.048,1.913-11.5,2.105-15.81a14.842,14.842,0,0,0-2.016-8.38,23.678,23.678,0,0,1-2.39-11.934Z" transform="translate(-39.203 -81.789)" fill="#5295bd"/>
    <path id="Path_710" data-name="Path 710" d="M188.79,259.654s1.9-1.1,2.039-1.759a12.366,12.366,0,0,1,1.1-2.8,8.8,8.8,0,0,1,1.7-1.649c.231-.154.709.594-.165,1.44-.55.517-.407.786-.346.786s2.65-2.809,4.073-3.518c.231-.154.929.192.236.869-.83.808-1.957,1.929-1.957,1.929.6.165.874.742.742.951.616.192.671.671.55.935.495.159.478.836.269,1.187s-.715,1.429-3.2,1.968c-1.259,0-2.924,1.649-2.924,1.649Z" transform="translate(-76.681 -70.63)" fill="#ffbeac"/>
    <path id="Path_711" data-name="Path 711" d="M190.74,262.971l.918-.841,2.226,2.974-1.1.693Z" transform="translate(-77.559 -75.141)" fill="#f2f2f2"/>
    <path id="Path_712" data-name="Path 712" d="M147.9,272.026s10.829-.786,12.4-1.446,10.56-7.74,10.56-7.74a37.365,37.365,0,0,1,2.325,3.183c-4.106,5.387-9.449,9.318-11.082,9.988s-14.787,5.5-15.9,5.569A29.44,29.44,0,0,0,147.9,272.026Z" transform="translate(-57.507 -75.46)" fill="#5295bd"/>
    <circle id="Ellipse_134" data-name="Ellipse 134" cx="57.092" cy="57.092" r="57.092" transform="translate(142.591 171.273)" fill="#da2b39"/>
    <circle id="Ellipse_135" data-name="Ellipse 135" cx="49.452" cy="49.452" r="49.452" transform="translate(150.232 178.914)" fill="#e6ffff"/>
    <path id="Path_713" data-name="Path 713" d="M330.383,303.921c6.893-10.444,7.624-29.2,4.161-39.2A43.212,43.212,0,0,0,273.829,320.9a4.078,4.078,0,0,1,1.006.148C290.617,327.613,317.416,323.518,330.383,303.921Z" transform="translate(-113.01 -73.631)" fill="#fffaff" opacity="0.57"/>
    <rect id="Rectangle_223" data-name="Rectangle 223" width="12.28" height="3.023" rx="1.512" transform="translate(198.436 195.023) rotate(-89.55)" fill="#92cff3"/>
    <rect id="Rectangle_224" data-name="Rectangle 224" width="12.28" height="3.023" rx="1.512" transform="translate(198.217 274.434) rotate(-89.427)" fill="#6fefe3"/>
    <rect id="Rectangle_225" data-name="Rectangle 225" width="3.023" height="12.28" rx="1.512" transform="translate(232.998 230.14) rotate(-89.55)" fill="#92cff3"/>
    <rect id="Rectangle_226" data-name="Rectangle 226" width="3.023" height="12.28" rx="1.512" transform="translate(154.062 229.517) rotate(-89.55)" fill="#92cff3"/>
    <circle id="Ellipse_136" data-name="Ellipse 136" cx="1.512" cy="1.512" r="1.512" transform="translate(218.73 191.876)" fill="#92cff3"/>
    <circle id="Ellipse_137" data-name="Ellipse 137" cx="1.512" cy="1.512" r="1.512" transform="translate(177.607 261.832)" fill="#92cff3"/>
    <circle id="Ellipse_138" data-name="Ellipse 138" cx="1.512" cy="1.512" r="1.512" transform="translate(233.462 206.845)" fill="#92cff3"/>
    <circle id="Ellipse_139" data-name="Ellipse 139" cx="1.512" cy="1.512" r="1.512" transform="translate(162.875 246.863)" fill="#92cff3"/>
    <circle id="Ellipse_140" data-name="Ellipse 140" cx="1.512" cy="1.512" r="1.512" transform="translate(233.144 247.413)" fill="#92cff3"/>
    <circle id="Ellipse_141" data-name="Ellipse 141" cx="1.512" cy="1.512" r="1.512" transform="translate(163.194 206.295)" fill="#92cff3"/>
    <circle id="Ellipse_142" data-name="Ellipse 142" cx="1.512" cy="1.512" r="1.512" transform="translate(218.181 262.151)" fill="#6fefe3"/>
    <circle id="Ellipse_143" data-name="Ellipse 143" cx="1.512" cy="1.512" r="1.512" transform="translate(178.162 191.557)" fill="#92cff3"/>
    <path id="Path_714" data-name="Path 714" d="M362.946,307.85c4.519-1.765,25.616-10.84,25.616-10.84l.077.143.154.286.077.143s-19.2,12.616-23.176,15.4-18.014,7.174-18.014,7.174l-.258-.473-.154-.286-.258-.478S358.433,309.609,362.946,307.85Z" transform="translate(-147.926 -90.847)" fill="#ac3a43"/>
    <path id="Path_715" data-name="Path 715" d="M305.713,338.145c-3.463-.55-19.883-2.292-19.883-2.292V335.2s16.365-2.248,19.789-2.886,13.836,1.979,13.836,1.979V335.7S309.176,338.7,305.713,338.145Z" transform="translate(-120.377 -106.701)" fill="#ac3a43"/>
    <circle id="Ellipse_144" data-name="Ellipse 144" cx="3.023" cy="3.023" r="3.023" transform="translate(196.66 225.342)" fill="#92cff3"/>
    <path id="Path_716" data-name="Path 716" d="M360.263,388.337s-11.8-14.072-17.838-12.2,3.557,31.394,3.557,31.394l5.8-.478-1.8-13.594s1.907,11.187,11.445,9.983,11.165-6.415,10.714-10.175S360.263,388.337,360.263,388.337Z" transform="translate(-144.963 -126.401)" fill="#154764"/>
    <path id="Path_717" data-name="Path 717" d="M382.567,403.279c-.451-3.76-11.879-4.947-11.879-4.947l-.115-.132-6.992,12.094a8.8,8.8,0,0,0,8.273,3.188C381.4,412.25,383.018,407.039,382.567,403.279Z" transform="translate(-155.387 -136.412)" fill="#3e466d"/>
    <path id="Path_718" data-name="Path 718" d="M389.08,426.218s4.59-.8,5.964-1.055a.429.429,0,0,1,.434.165,7.155,7.155,0,0,1,.951,4.4l-.8.291s1.176,3.524.66,6.047c-.231,1.138-1.49,3.4-5.634,3.1-.72-.995.132-1.781,1.022-2.82,1.325-1.55.967-5.327-1.319-5.25C389.036,429.956,389.08,426.218,389.08,426.218Z" transform="translate(-166.87 -148.549)" fill="#323759"/>
    <path id="Path_719" data-name="Path 719" d="M396.251,425.162l-1.1.2a.973.973,0,0,0-.2.583,16.348,16.348,0,0,0,.715,4.4c.335,1.132.225,5.53-.577,6.937s-2.463,1.336-3.331,1.649a1.723,1.723,0,0,0,.126.2c4.145.3,5.4-1.957,5.634-3.1.517-2.507-.66-6.047-.66-6.047l.786-.258a7.131,7.131,0,0,0-.951-4.4.429.429,0,0,0-.442-.169Z" transform="translate(-168.077 -148.548)" fill="#4a5083"/>
    <path id="Path_720" data-name="Path 720" d="M399.265,425.23a.841.841,0,0,0-.225.6,12.193,12.193,0,0,0,.847,3.776,1.462,1.462,0,0,0,1.028.159,7.17,7.17,0,0,0-.951-4.4.429.429,0,0,0-.434-.165Z" transform="translate(-171.355 -148.567)" fill="#656d99"/>
    <path id="Path_721" data-name="Path 721" d="M397.9,433.851l-.891-.181a14.675,14.675,0,0,1,.357,3.809c-.072,2.133-.61,3.952-1.369,4.563a4.749,4.749,0,0,1-1.979.956c3.249-.148,4.3-2.078,4.508-3.106.517-2.507-.66-6.047-.66-6.047Z" transform="translate(-169.094 -152.384)" fill="#656d99"/>
    <path id="Path_722" data-name="Path 722" d="M348.038,399.721s-13.38,14.292-16.123,19.317,2.5,9.581,8.059,6.047,8.125-10.06,14.424-11.022c3.612-.55,10.131-.55,10.593-12.181C365.353,392.74,348.038,399.721,348.038,399.721Z" transform="translate(-140.79 -135.949)" fill="#054e79"/>
    <path id="Path_723" data-name="Path 723" d="M334.22,438.258s6.091,3.524,18.14-1.231c10.285-3.848,14.05-4.64,14.05-4.64L364.71,426C360.545,427.517,344.164,426,334.22,438.258Z" transform="translate(-142.167 -148.93)" fill="#054e79"/>
    <path id="Path_724" data-name="Path 724" d="M369.49,333.917s.247,3.788.28,4.315a6.448,6.448,0,0,0,2.589,1.605,9.051,9.051,0,0,0,3.353-3.634,55.719,55.719,0,0,1-.594-6.234,28.02,28.02,0,0,1-5.628,3.948Z" transform="translate(-158.049 -105.689)" fill="#ffbeac"/>
    <path id="Path_725" data-name="Path 725" d="M365.716,320.132s-2.749,5.024-1.649,9.477c.616,1.055,5.53,2.067,7.7-1.253,1.369.451,1.781-2.072,1.8-2.749s-1.231-.357-1.545.236c.368-2.749.951-4.848.049-5.332S366.184,319.17,365.716,320.132Z" transform="translate(-155.49 -101.062)" fill="#ffbeac"/>
    <path id="Path_726" data-name="Path 726" d="M366.564,312.771a16.143,16.143,0,0,0,2.485,1.281c-.55-.385-.693-1.325-.313-1.374s.973.6,2.166,1.1,5.777-.583,5.5,1.929c1.1.269,2.155,1.512,1.534,3.617h0c0,1.534-2.105,6.074-3.067,6.855-1.424,1.154-3.161.06-3.683-.225s-.918-.967-.594-2.2.445-2.93-.275-2.886-1.187,1.528-1.187,1.528l-.467-.121a4.128,4.128,0,0,0-.2-2.534,9.263,9.263,0,0,1-.39-2.27l.11-.055a3.727,3.727,0,0,1-2.023-1.424C364.871,313.876,365.855,312.3,366.564,312.771Z" transform="translate(-156.266 -97.901)" fill="#323759"/>
    <path id="Path_727" data-name="Path 727" d="M376.055,340.1a8.652,8.652,0,0,0-.577-1.649c-.181-.17-2.4-1.154-6.64.451-.621.286-.8,1.94-.8,1.94Z" transform="translate(-157.396 -109.301)" fill="#f2f2f2"/>
    <path id="Path_728" data-name="Path 728" d="M375.891,341.508s-5.5.126-6.932-.726-6.289-.313-7.531.159c-1.556.594-8.553,2.006-8.834,2.034a20.014,20.014,0,0,0,.973,10.247c.885,1.9,5.354,10.131,5.107,12.511s-3.936,10.065-4.172,10.56c4.216,4.607,16.552,3.848,24.187,1.869.165-6.6-1.2-8.718-1.2-12.951,0-4.4.088-7.525,0-9.51a122,122,0,0,0-1.6-14.193Z" transform="translate(-150.322 -110.355)" fill="#00d2c5"/>
    <path id="Path_729" data-name="Path 729" d="M317.369,335.336s-1.1-1.836-.9-2.49a11.952,11.952,0,0,0,.4-2.93,11.422,11.422,0,0,0-.55-2.749c-.121-.242-.973.649-.632,1.8.209.7-.033.869-.082.836s.588-.55-.286-1.869c-.126-.247-1.055-.258-1.154.165-.033.132-.225-.044-.225-.044-.594-.148-1.1.214-1.1.456-.621-.132-.9.247-.913.55-.495-.1-.808.478-.8.885s-.082,1.567,1.787,3.227c1.072.616,1.7,2.814,1.7,2.814Z" transform="translate(-131.769 -104.408)" fill="#ffbeac"/>
    <path id="Path_730" data-name="Path 730" d="M319.31,339.638l-.539-1.088-3.331,1.462.6,1.127Z" transform="translate(-133.71 -109.552)" fill="#f2f2f2"/>
    <path id="Path_731" data-name="Path 731" d="M335.838,342.632s-9.186,9.175-10.214,7.85-6.289-10.912-6.289-10.912a46.154,46.154,0,0,0-4.216,1.9c1.825,6.481,4.947,15.524,6.47,16.392,4.991,2.9,15.392-3.3,16.216-4.37C338.373,350.949,338.548,344.963,335.838,342.632Z" transform="translate(-133.566 -110.011)" fill="#00d2c5"/>
    <path id="Path_732" data-name="Path 732" d="M395.8,312.772s-.83-1.968-1.473-2.2a11.666,11.666,0,0,1-2.6-1.418,11.111,11.111,0,0,1-1.858-2.072c-.126-.242,1.1-.4,1.82.55.445.577.72.484.726.423s-.814.137-1.341-1.336c-.121-.242.418-1,.819-.83.121.049.093-.209.093-.209.231-.55.83-.764,1.017-.61a.7.7,0,0,1,.973-.418c.209-.462.869-.368,1.187-.121s1.308.858,1.545,3.348c-.137,1.226,1.259,3.04,1.259,3.04Z" transform="translate(-167.223 -94.141)" fill="#ffbeac"/>
    <path id="Path_733" data-name="Path 733" d="M399.179,316.24l-.709-1,3.15-1.82.616,1.039Z" transform="translate(-171.098 -98.236)" fill="#f2f2f2"/>
    <path id="Path_734" data-name="Path 734" d="M394.28,329.884l8.246-3.21-5.651-10.038,3.59-2.116s7.767,8.8,8.5,14.188c-.583,4.826-11.505,10.159-12,10.576a3.626,3.626,0,0,0-.924,2.347C395.33,340.07,394.28,329.884,394.28,329.884Z" transform="translate(-169.211 -98.731)" fill="#00d2c5"/>
  </g>
</svg>
