<svg xmlns="http://www.w3.org/2000/svg" width="263.817" height="196.742" viewBox="0 0 263.817 196.742">
  <g id="cashless" transform="translate(-90.159 -95.042)">
    <path id="Path_338" data-name="Path 338" d="M1513.84,879.909l-.543-1.846a5.542,5.542,0,0,1-3.032.018l.077-1.348a5.074,5.074,0,0,0,2.863.011,2,2,0,0,0,1.647-2.43c-.3-1.005-1.191-1.417-2.7-1.568-2.083-.181-3.477-.683-3.946-2.273a3.125,3.125,0,0,1,1.894-3.754l-.543-1.846,1.132-.333.522,1.772a5.074,5.074,0,0,1,2.564-.059l-.1,1.339a4.605,4.605,0,0,0-2.485.058c-1.407.414-1.69,1.411-1.471,2.141.28.95,1.1,1.226,2.879,1.416,2.108.213,3.339.884,3.818,2.51a3.314,3.314,0,0,1-1.973,3.956l.56,1.9Z" transform="translate(-1264.091 -697.631)" fill="#e3eaff"/>
    <path id="Path_339" data-name="Path 339" d="M1046.21,1098.86l-12.193,8.644-38.344,27.182L991.7,1137.5l3.022,4.3,16.767,23.858,29.32-20.826,14.927-10.6.175-.124,1.512-19.284Z" transform="translate(-811.002 -903.233)" fill="#3f964f"/>
    <path id="Path_340" data-name="Path 340" d="M1132.76,1197.58l-7.6-10.8a5.793,5.793,0,0,1-8.07-1.408l-35.542,25.313a5.8,5.8,0,0,1-1.408,8.073l7.591,10.8a5.8,5.8,0,0,1,8.072,1.408l35.542-25.312A5.8,5.8,0,0,1,1132.76,1197.58Z" transform="translate(-888.603 -979.141)" fill="#4ead60"/>
    <path id="Path_341" data-name="Path 341" d="M1246.89,1290.95a9.617,9.617,0,1,0-2.337,13.4,9.617,9.617,0,0,0,2.337-13.4Z" transform="translate(-1019.571 -1068.197)" fill="#3f964f"/>
    <path id="Path_342" data-name="Path 342" d="M1450.26,1229.09l-10.855,10.381,9.167,9.028.155.152.022-.276Z" transform="translate(-1203.833 -1017.503)" fill="#3f964f"/>
    <path id="Path_343" data-name="Path 343" d="M1444.74,1325.51l-5.337-11.719,9.167,9.028Z" transform="translate(-1203.833 -1091.822)" fill="#193f1e" opacity="0.2"/>
    <path id="Path_344" data-name="Path 344" d="M1450.26,1221.51l-10.86,10.38,10.111-11.44Z" transform="translate(-1203.833 -1009.922)" fill="#193f1e" opacity="0.2"/>
    <path id="Path_345" data-name="Path 345" d="M1055.66,1169.39l-38.349,27.182-.949,7.108,16.767,23.859,29.321-20.817-1.5-5.673c-.566-2.144-4.366-3.091-9.177-2.548Z" transform="translate(-832.64 -965.119)" fill="#193f1e" opacity="0.2"/>
    <rect id="Rectangle_131" data-name="Rectangle 131" width="80.368" height="34.417" transform="translate(178.399 264.317) rotate(-82.41)" fill="#3f964f"/>
    <path id="Path_346" data-name="Path 346" d="M1051.54,1069.43l-13.087-1.744a5.793,5.793,0,0,1-6.508,4.977l-7.558,56.689a5.8,5.8,0,0,1,4.977,6.514l13.088,1.744a5.793,5.793,0,0,1,6.508-4.977l7.558-56.7A5.794,5.794,0,0,1,1051.54,1069.43Z" transform="translate(-839.686 -875.884)" fill="#4ead60"/>
    <circle id="Ellipse_124" data-name="Ellipse 124" cx="9.618" cy="9.618" r="9.618" transform="translate(190.051 234.616) rotate(-78.53)" fill="#3f964f"/>
    <path id="Path_347" data-name="Path 347" d="M1020.64,1422.98l-32.779,8.653,8.783,33.277,32.782-8.652-6.181-23.419c6.548-1.754,11.264-5.348,10.55-8.057s-6.591-3.508-13.152-1.8Z" transform="translate(-807.633 -1186.845)" fill="#3f964f"/>
    <rect id="Rectangle_132" data-name="Rectangle 132" width="24.215" height="38.108" transform="translate(195.459 271.102) rotate(-104.773)" fill="#4ead60"/>
    <circle id="Ellipse_125" data-name="Ellipse 125" cx="8.591" cy="8.591" r="8.591" transform="matrix(0.839, -0.544, 0.544, 0.839, 196.773, 252.548)" fill="#3f964f"/>
    <path id="Path_348" data-name="Path 348" d="M1231.28,1422.98l-3.358.886,8.783,33.277,15.209-4.014-7.476-28.348c-.715-2.707-6.591-3.507-13.152-1.8Z" transform="translate(-1018.271 -1186.847)" fill="#193f1e" opacity="0.2"/>
    <path id="Path_349" data-name="Path 349" d="M1287.1,1444.1c.714,2.709-4,6.3-10.55,8.057l8.783,33.278h0c6.548-1.754,11.263-5.348,10.549-8.057Z" transform="translate(-1060.942 -1206.161)" fill="#3f964f"/>
    <path id="Path_350" data-name="Path 350" d="M1344.79,1493.1c.316,1.2-.49,2.537-1.972,3.577a3.407,3.407,0,0,1-2.318,4.151h-.009l4.442,16.825h.007a3.374,3.374,0,0,1,3.91,2.034c1.5-1.043,2.329-2.4,2.006-3.6Z" transform="translate(-1117.046 -1249.156)" fill="#4ead60"/>
    <path id="Path_351" data-name="Path 351" d="M600.074,832.312l-48.225.031a13.771,13.771,0,0,1-13.78-13.763L538,700.567a13.773,13.773,0,0,1,13.757-13.787l48.224-.031a13.774,13.774,0,0,1,13.782,13.769l.075,118.013a13.772,13.772,0,0,1-13.764,13.781Z" transform="translate(-412.907 -541.631)" fill="#054e79"/>
    <path id="Path_352" data-name="Path 352" d="M626.219,853.1,577,853.132a9.682,9.682,0,0,1-9.691-9.682l-.076-120.6a9.682,9.682,0,0,1,9.682-9.692l49.222-.031a9.682,9.682,0,0,1,9.691,9.682l.076,120.6a9.682,9.682,0,0,1-9.682,9.691Z" transform="translate(-438.555 -564.778)" fill="#92cff3"/>
    <path id="Path_353" data-name="Path 353" d="M518.92,891.349h0a2.148,2.148,0,0,1-2.15-2.148V878.058a2.148,2.148,0,0,1,2.15-2.148h0a2.148,2.148,0,0,1,2.148,2.148V889.2a2.149,2.149,0,0,1-2.148,2.148Z" transform="translate(-394.279 -707.608)" fill="#054e79"/>
    <path id="Path_354" data-name="Path 354" d="M1144.15,891.349h0A2.148,2.148,0,0,1,1142,889.2V878.058a2.148,2.148,0,0,1,2.15-2.148h0a2.149,2.149,0,0,1,2.149,2.148V889.2a2.148,2.148,0,0,1-2.149,2.149Z" transform="translate(-942.882 -707.608)" fill="#054e79"/>
    <path id="Path_355" data-name="Path 355" d="M1664.88,832.312l-48.224.031a13.772,13.772,0,0,1-13.782-13.763l-.075-118.013a13.773,13.773,0,0,1,13.764-13.787l48.224-.031a13.776,13.776,0,0,1,13.777,13.774l.075,118.008a13.772,13.772,0,0,1-13.76,13.78Z" transform="translate(-1347.207 -541.631)" fill="#054e79"/>
    <path id="Path_356" data-name="Path 356" d="M1691.08,853.1l-49.222.032a9.682,9.682,0,0,1-9.691-9.682l-.076-120.6a9.682,9.682,0,0,1,9.682-9.692l49.222-.031a9.682,9.682,0,0,1,9.691,9.682l.076,120.6A9.682,9.682,0,0,1,1691.08,853.1Z" transform="translate(-1372.908 -564.778)" fill="#92cff3"/>
    <path id="Path_357" data-name="Path 357" d="M1583.78,891.349h0a2.148,2.148,0,0,1-2.148-2.148V878.058a2.148,2.148,0,0,1,2.148-2.148h0a2.149,2.149,0,0,1,2.15,2.148V889.2a2.148,2.148,0,0,1-2.15,2.149Z" transform="translate(-1328.632 -707.608)" fill="#054e79"/>
    <path id="Path_358" data-name="Path 358" d="M2209.02,891.349h0a2.148,2.148,0,0,1-2.15-2.148V878.058a2.148,2.148,0,0,1,2.15-2.148h0a2.149,2.149,0,0,1,2.149,2.148V889.2a2.149,2.149,0,0,1-2.149,2.148Z" transform="translate(-1877.244 -707.608)" fill="#054e79"/>
    <path id="Path_359" data-name="Path 359" d="M1583.78,1025.82h0a2.148,2.148,0,0,1-2.148-2.148V1012.53a2.148,2.148,0,0,1,2.148-2.148h0a2.149,2.149,0,0,1,2.15,2.148v11.142a2.148,2.148,0,0,1-2.15,2.148Z" transform="translate(-1328.632 -825.597)" fill="#054e79"/>
    <path id="Path_360" data-name="Path 360" d="M307.906,1811.37c-1.62,6.8-7.412,3.064-6.2,7.362a.771.771,0,0,0,.719.542l3.4.13a1.527,1.527,0,0,0,.923-.267c1.794-1.226,3.011-2.958,6.887-3.168-.029-1.654.045-4.017-.5-4.862Z" transform="translate(-205.427 -1528.191)" fill="#0e6a41"/>
    <path id="Path_361" data-name="Path 361" d="M343.352,1423.67s-9.89,15.086-11.256,19.777,1.49,12.643.973,28.668a20.774,20.774,0,0,0,7.214.113s2.481-20.1-.438-24.845c4.373-6.672,15.354-21.236,15.354-21.236Z" transform="translate(-231.911 -1188.235)" fill="#201d40"/>
    <path id="Path_362" data-name="Path 362" d="M410.123,1831.15c-2.516,3.432-8.8,1.4-8.546,6,9.522-.151,13.481-.131,13.481-.131a32.537,32.537,0,0,0-.465-4.542Z" transform="translate(-293.197 -1545.775)" fill="#0e6a41"/>
    <path id="Path_363" data-name="Path 363" d="M429.144,1398.79s-3.153,24.611-2.425,29.44,2.983,8.615,3.064,24.646c3.119.688,7.885,1.305,7.885,1.305s2.01-19.337-2.124-24.661c1.172-7.889,6.755-27.735,6.755-27.735Z" transform="translate(-315.169 -1166.404)" fill="#2c2858"/>
    <path id="Path_364" data-name="Path 364" d="M260.649,1278.31,256.8,1274a.452.452,0,0,0-.327-.15l-3.166-.02c-.091,0-.368.5-.309.566l2.712,2.411a.11.11,0,0,0,.047.029l4.651,1.726C260.511,1278.59,260.716,1278.39,260.649,1278.31Z" transform="translate(-162.831 -1056.759)" fill="#c4204a"/>
    <path id="Path_365" data-name="Path 365" d="M260.367,1282.15l-3.663-4.064a.452.452,0,0,0-.327-.15l-3.264-.059a.1.1,0,0,0-.078.173l2.574,2.843a.105.105,0,0,0,.047.029l4.6,1.395a.1.1,0,0,0,.113-.168Z" transform="translate(-162.842 -1060.313)" fill="#e62552"/>
    <path id="Path_366" data-name="Path 366" d="M284.47,1299.26l-2.65-1.3s-2.613-2.645-3-3.235c-.581-.294-1.68-1.034-1.928-1.063a4.081,4.081,0,0,0-.754.048l1.226,1.4a1.915,1.915,0,0,1-1.326-.355c-.743-.478-2.057-1.739-2.7-1.493l-.229.2s-.406-.434-.788-.272.379,2.07,2.538,4.093a6.384,6.384,0,0,0,.858,1.487l4.368,1.534Z" transform="translate(-179.707 -1073.707)" fill="#f37a50"/>
    <path id="Path_367" data-name="Path 367" d="M277.3,1280.49a.317.317,0,1,0-.064-.5.356.356,0,0,0,.064.5Z" transform="translate(-184.038 -1062.099)" fill="#c4204a"/>
    <path id="Path_368" data-name="Path 368" d="M472.275,1127.26c-.786,1.018,5.371,2.126,6.2.01s-.592-7.942-.592-7.942l-5.614,1.193S473.3,1125.94,472.275,1127.26Z" transform="translate(-355.177 -921.195)" fill="#f37a50"/>
    <ellipse id="Ellipse_126" data-name="Ellipse 126" cx="6.44" cy="8.199" rx="6.44" ry="8.199" transform="translate(110.262 186.572) rotate(-5.99)" fill="#f37a50"/>
    <path id="Path_369" data-name="Path 369" d="M431.683,1095.9a.668.668,0,1,1-.024-.513A.668.668,0,0,1,431.683,1095.9Z" transform="translate(-318.478 -899.853)"/>
    <path id="Path_370" data-name="Path 370" d="M466.825,1087.55a.724.724,0,1,1-.026-.555A.724.724,0,0,1,466.825,1087.55Z" transform="translate(-349.219 -892.458)"/>
    <path id="Path_371" data-name="Path 371" d="M449.059,1101.19c-.142,1.057-.339,2.354-.339,2.354a1.61,1.61,0,0,0,1.838.227c-.575.018-1.2-.091-1.3-.826S449.059,1101.19,449.059,1101.19Z" transform="translate(-334.569 -905.278)" fill="#de623c"/>
    <path id="Path_372" data-name="Path 372" d="M426.937,1085.65a.256.256,0,0,1-.255.006.753.753,0,0,0-.549-.047.824.824,0,0,0-.439.538.257.257,0,1,1-.482-.179,1.316,1.316,0,0,1,.744-.842,1.276,1.276,0,0,1,.971.077.258.258,0,0,1,.1.349.253.253,0,0,1-.09.1Z" transform="translate(-313.924 -891.131)" fill="#020205"/>
    <path id="Path_373" data-name="Path 373" d="M465.265,1078.04a.262.262,0,0,0,.245-.078.742.742,0,0,1,.5-.225.8.8,0,0,1,.592.368.258.258,0,1,0,.4-.327,1.318,1.318,0,0,0-.98-.551,1.272,1.272,0,0,0-.891.393.257.257,0,0,0,.018.368A.266.266,0,0,0,465.265,1078.04Z" transform="translate(-348.907 -884.246)" fill="#020205"/>
    <path id="Path_374" data-name="Path 374" d="M400.739,1013.79a5.339,5.339,0,0,1-1.686-4.932c-1.13.074-1.446.558-1.446.558a2.466,2.466,0,0,1-.688-2.027c-2.451-.266-3.167,1.471-5.036,2.488-2.56,1.4-6.236,1.226-7.454-2.038a.592.592,0,0,1,.749-.767,2.6,2.6,0,0,0,1.609.034,2.787,2.787,0,0,1-1.018-1.38.59.59,0,0,1,.822-.7,4.223,4.223,0,0,0,3.662-.376c1.19-.572,3.517-3.353,5.411-3.443a4.563,4.563,0,0,1,4.02,2.5,4.753,4.753,0,0,1,5.116,3.26c1.4,3.787-3.847,9.639-3.847,9.639S401.356,1014.39,400.739,1013.79Z" transform="translate(-278.125 -817.549)" fill="#020205"/>
    <path id="Path_375" data-name="Path 375" d="M453.167,1124.26a.2.2,0,0,1,.059-.358,16.083,16.083,0,0,0,1.781-.536,16.356,16.356,0,0,0,1.695-.767.2.2,0,0,1,.279.23,2.459,2.459,0,0,1-3.814,1.43Z" transform="translate(-338.392 -924.041)" fill="#fff"/>
    <path id="Path_376" data-name="Path 376" d="M499.549,1077.69a1.61,1.61,0,1,0,2.481-.23,1.778,1.778,0,0,0-2.481.23Z" transform="translate(-378.592 -884.099)" fill="#f37a50"/>
    <path id="Path_377" data-name="Path 377" d="M507.072,1086.18a.244.244,0,0,1-.089-.058,1.059,1.059,0,0,1-.232-1.273,1.124,1.124,0,0,1,1.172-.562.233.233,0,1,1-.093.456.663.663,0,0,0-.67.332.6.6,0,0,0,.161.726.233.233,0,0,1-.245.38Z" transform="translate(-385.38 -890.431)" fill="#de623c"/>
    <path id="Path_378" data-name="Path 378" d="M416.94,1195.93c4.391.9,12.286,2.444,16.462.815,1.58-2.269,1.979-15.1,1.979-15.1.457-13.2-1.126-15.163-4.7-19.587a23.883,23.883,0,0,1-6.9,1.288s-3.737,5.188-4.466,8.955c-.735,3.819-.822,10.611-.891,14.5C418.353,1191.13,417.5,1193.21,416.94,1195.93Z" transform="translate(-306.684 -958.688)" fill="#2274a4"/>
    <path id="Path_379" data-name="Path 379" d="M449.333,1185c2.574,5,1.987,10.54-5.482,21.439a6.774,6.774,0,0,1-6.25-4.815s1.438-5.412,3.309-12.222S448.209,1182.81,449.333,1185Z" transform="translate(-324.812 -977.615)" fill="#054e79"/>
    <path id="Path_380" data-name="Path 380" d="M336.734,1321.88l11.2.894s4.8-.875,6.152,4.966c-2.4,1.871-8.608,2.574-18.786-1.2C336.38,1325.07,336.734,1321.88,336.734,1321.88Z" transform="translate(-235.049 -1098.921)" fill="#054e79"/>
    <path id="Path_381" data-name="Path 381" d="M472.307,1150.92l-.107,3.011,7.578-3.177-.918-2.437Z" transform="translate(-355.171 -946.631)" fill="#fff"/>
    <path id="Path_396" data-name="Path 396" d="M1743.76,648.512a.98.98,0,0,1-.98-.98c0-.8-.02-1.606-.06-2.4a.982.982,0,1,1,1.961-.1c.043.827.063,1.669.063,2.5a.98.98,0,0,1-.984.98Z" transform="translate(-1469.978 -504.207)" fill="#2274a4"/>
    <path id="Path_397" data-name="Path 397" d="M1069.55,320a.98.98,0,0,1-.967-.83,46.4,46.4,0,0,0-1-4.75.98.98,0,1,1,1.9-.5,48.284,48.284,0,0,1,1.045,4.953.98.98,0,0,1-.817,1.12.926.926,0,0,1-.153.012Zm-93.578-.042a.934.934,0,0,1-.153-.012.981.981,0,0,1-.816-1.121,47.914,47.914,0,0,1,1.049-4.951.98.98,0,0,1,1.89.507,46.374,46.374,0,0,0-1.007,4.75.981.981,0,0,1-.962.828Zm91.031-9.53a.981.981,0,0,1-.916-.63,46.36,46.36,0,0,0-1.976-4.438.981.981,0,1,1,1.747-.891,47.967,47.967,0,0,1,2.06,4.627.98.98,0,0,1-.564,1.266.966.966,0,0,1-.357.066Zm-88.472-.038a.98.98,0,0,1-.914-1.332,48.452,48.452,0,0,1,2.061-4.62.981.981,0,0,1,1.746.892,46.465,46.465,0,0,0-1.978,4.432.981.981,0,0,1-.92.629Zm83.967-8.79a.981.981,0,0,1-.824-.446,46.807,46.807,0,0,0-2.853-3.932.981.981,0,0,1,1.522-1.226,49.022,49.022,0,0,1,2.977,4.1.98.98,0,0,1-.821,1.515Zm-79.469-.027a.98.98,0,0,1-.821-1.515,48.807,48.807,0,0,1,2.979-4.092.98.98,0,0,1,1.522,1.235,46.644,46.644,0,0,0-2.858,3.922.98.98,0,0,1-.821.45Zm73.232-7.671a.981.981,0,0,1-.694-.288,46.756,46.756,0,0,0-3.609-3.255.981.981,0,0,1,1.235-1.523,49,49,0,0,1,3.759,3.39.981.981,0,0,1-.694,1.673Zm-66.993-.021a.98.98,0,0,1-.694-1.674,49,49,0,0,1,3.763-3.388.981.981,0,1,1,1.234,1.525,46.5,46.5,0,0,0-3.609,3.25.98.98,0,0,1-.692.287Zm59.3-6.219a.98.98,0,0,1-.534-.159,46.806,46.806,0,0,0-4.2-2.433.981.981,0,0,1,.892-1.746,48.471,48.471,0,0,1,4.379,2.536.981.981,0,0,1-.536,1.8Zm-51.6-.018a.98.98,0,0,1-.536-1.8,48.43,48.43,0,0,1,4.384-2.535.981.981,0,1,1,.891,1.747,46.73,46.73,0,0,0-4.206,2.431.966.966,0,0,1-.539.158Zm42.787-4.487a.978.978,0,0,1-.352-.065,46.017,46.017,0,0,0-4.618-1.5.98.98,0,0,1,.5-1.9,48.165,48.165,0,0,1,4.814,1.566.98.98,0,0,1-.352,1.9Zm-33.962-.013a.98.98,0,0,1-.352-1.9,48.185,48.185,0,0,1,4.818-1.563.981.981,0,1,1,.506,1.9,46.286,46.286,0,0,0-4.622,1.5.981.981,0,0,1-.357.065Zm24.4-2.548a1.084,1.084,0,0,1-.154-.012,46.361,46.361,0,0,0-4.83-.5.982.982,0,0,1,.1-1.961,48.613,48.613,0,0,1,5.033.525.98.98,0,0,1-.151,1.95Zm-14.83,0a.98.98,0,0,1-.149-1.95,48.577,48.577,0,0,1,5.033-.521.982.982,0,1,1,.1,1.961,46.418,46.418,0,0,0-4.831.5,1.073,1.073,0,0,1-.157,0Z" transform="translate(-796.341 -183.081)" fill="#2274a4"/>
    <path id="Path_398" data-name="Path 398" d="M971.21,648.512a.98.98,0,0,1-.98-.98c0-.831.021-1.672.064-2.5a.982.982,0,1,1,1.961.1c-.042.794-.061,1.6-.061,2.4a.98.98,0,0,1-.983.98Z" transform="translate(-792.164 -504.207)" fill="#2274a4"/>
    <path id="Path_399" data-name="Path 399" d="M1079.5,648.512a.98.98,0,0,1-.98-.98c0-.838.03-1.685.088-2.519a.983.983,0,1,1,1.961.14c-.055.787-.083,1.587-.083,2.379a.98.98,0,0,1-.985.98Z" transform="translate(-887.182 -504.207)" fill="#2274a4"/>
    <path id="Path_400" data-name="Path 400" d="M1085.83,415.291a.934.934,0,0,1-.208-.023.981.981,0,0,1-.75-1.166,34.978,34.978,0,0,1,1.409-4.8.981.981,0,1,1,1.838.686,33.109,33.109,0,0,0-1.331,4.535.981.981,0,0,1-.958.768Zm66.635-.026a.981.981,0,0,1-.957-.772,32.689,32.689,0,0,0-1.333-4.535.981.981,0,1,1,1.838-.688,34.968,34.968,0,0,1,1.413,4.8.98.98,0,0,1-.75,1.167,1.017,1.017,0,0,1-.216.028Zm-63.24-9.069a.99.99,0,0,1-.94-.708.98.98,0,0,1,.081-.746,35.285,35.285,0,0,1,2.711-4.206.98.98,0,1,1,1.568,1.177,33.342,33.342,0,0,0-2.558,3.971.98.98,0,0,1-.863.516Zm59.844-.016a.981.981,0,0,1-.858-.51,33.327,33.327,0,0,0-2.563-3.964.981.981,0,0,1,1.568-1.178,35.286,35.286,0,0,1,2.711,4.2.981.981,0,0,1-.858,1.452Zm-54.021-7.746a.98.98,0,0,1-.692-1.673,35.3,35.3,0,0,1,3.778-3.277.981.981,0,1,1,1.177,1.57,33.294,33.294,0,0,0-3.57,3.1.981.981,0,0,1-.694.286Zm48.2-.011a.981.981,0,0,1-.693-.286,33.342,33.342,0,0,0-3.571-3.093.981.981,0,1,1,1.175-1.57,35.6,35.6,0,0,1,3.785,3.278.98.98,0,0,1-.693,1.674Zm-40.434-5.8a.98.98,0,0,1-.472-1.838,35.155,35.155,0,0,1,4.548-2.083.981.981,0,0,1,.685,1.838,33.213,33.213,0,0,0-4.29,1.961.97.97,0,0,1-.473.126Zm32.667-.01a.968.968,0,0,1-.469-.123,33.025,33.025,0,0,0-4.3-1.961.981.981,0,1,1,.685-1.838,35.018,35.018,0,0,1,4.552,2.083.98.98,0,0,1-.471,1.838Zm-23.585-3.378a.98.98,0,0,1-.206-1.939,35.16,35.16,0,0,1,4.951-.707.983.983,0,1,1,.139,1.961,33.241,33.241,0,0,0-4.674.668,1.013,1.013,0,0,1-.21.017Zm14.491,0a1.009,1.009,0,0,1-.208-.022,33.229,33.229,0,0,0-4.674-.665.983.983,0,1,1,.137-1.961,35.336,35.336,0,0,1,4.951.7.98.98,0,0,1-.206,1.939Z" transform="translate(-892.734 -278.249)" fill="#2274a4"/>
    <path id="Path_401" data-name="Path 401" d="M1635.3,648.512a.98.98,0,0,1-.98-.98c0-.792-.028-1.593-.083-2.379a.983.983,0,1,1,1.961-.14c.059.833.088,1.68.088,2.519a.98.98,0,0,1-.985.98Z" transform="translate(-1374.785 -504.207)" fill="#2274a4"/>
    <path id="Path_402" data-name="Path 402" d="M1700.61,615.761h-.012a.613.613,0,0,1-.479-.245l-6.258-8.416a.613.613,0,1,1,.98-.735l5.792,7.784L1706.4,607a.613.613,0,1,1,.953.767l-6.259,7.769a.612.612,0,0,1-.484.225Z" transform="translate(-1427.001 -470.883)" fill="#2274a4"/>
    <path id="Path_403" data-name="Path 403" d="M1037.16,615.761h-.012a.613.613,0,0,1-.479-.245l-6.258-8.416a.613.613,0,0,1,.98-.735l5.786,7.781,5.76-7.153a.613.613,0,1,1,.953.767l-6.258,7.769a.613.613,0,0,1-.472.232Z" transform="translate(-844.862 -470.883)" fill="#2274a4"/>
    <path id="Path_404" data-name="Path 404" d="M1859.48,1749.64v2.483a1.758,1.758,0,0,1-1.756,1.756h-30.3a1.758,1.758,0,0,1-1.758-1.756v-2.483a1.758,1.758,0,0,1,1.758-1.756h30.3a1.755,1.755,0,0,1,1.756,1.756Z" transform="translate(-1542.754 -1472.711)" fill="#fad332"/>
    <rect id="Rectangle_133" data-name="Rectangle 133" width="0.88" height="5.997" transform="translate(284.584 275.169)" fill="#faba23"/>
    <rect id="Rectangle_134" data-name="Rectangle 134" width="0.88" height="5.997" transform="translate(288.275 275.169)" fill="#faba23"/>
    <rect id="Rectangle_135" data-name="Rectangle 135" width="0.88" height="5.997" transform="translate(291.967 275.169)" fill="#faba23"/>
    <rect id="Rectangle_136" data-name="Rectangle 136" width="0.88" height="5.997" transform="translate(295.657 275.169)" fill="#faba23"/>
    <rect id="Rectangle_137" data-name="Rectangle 137" width="0.88" height="5.997" transform="translate(299.349 275.169)" fill="#faba23"/>
    <rect id="Rectangle_138" data-name="Rectangle 138" width="0.88" height="5.997" transform="translate(303.04 275.169)" fill="#faba23"/>
    <rect id="Rectangle_139" data-name="Rectangle 139" width="0.88" height="5.997" transform="translate(306.732 275.169)" fill="#faba23"/>
    <rect id="Rectangle_140" data-name="Rectangle 140" width="0.88" height="5.997" transform="translate(310.423 275.169)" fill="#faba23"/>
    <rect id="Rectangle_141" data-name="Rectangle 141" width="0.88" height="5.997" transform="translate(314.115 275.169)" fill="#faba23"/>
    <path id="Path_405" data-name="Path 405" d="M1861.99,1748.54H1829a1.752,1.752,0,0,1,1.348-.623h30.3a1.755,1.755,0,0,1,1.337.623Z" transform="translate(-1545.684 -1472.746)" fill="#faba23"/>
    <path id="Path_406" data-name="Path 406" d="M1861.99,1791.72H1829a1.751,1.751,0,0,0,1.348.623h30.305a1.756,1.756,0,0,0,1.337-.623Z" transform="translate(-1545.684 -1511.178)" fill="#faba23"/>
    <path id="Path_407" data-name="Path 407" d="M1876.76,1700.71v2.483a1.758,1.758,0,0,1-1.757,1.758h-30.3a1.758,1.758,0,0,1-1.756-1.758v-2.483a1.755,1.755,0,0,1,1.756-1.756H1875a1.758,1.758,0,0,1,1.76,1.756Z" transform="translate(-1557.916 -1429.777)" fill="#fad332"/>
    <rect id="Rectangle_142" data-name="Rectangle 142" width="0.88" height="5.996" transform="translate(286.703 269.173)" fill="#faba23"/>
    <rect id="Rectangle_143" data-name="Rectangle 143" width="0.88" height="5.996" transform="translate(290.395 269.173)" fill="#faba23"/>
    <rect id="Rectangle_144" data-name="Rectangle 144" width="0.88" height="5.996" transform="translate(294.086 269.173)" fill="#faba23"/>
    <rect id="Rectangle_145" data-name="Rectangle 145" width="0.88" height="5.996" transform="translate(297.778 269.173)" fill="#faba23"/>
    <rect id="Rectangle_146" data-name="Rectangle 146" width="0.88" height="5.996" transform="translate(301.469 269.173)" fill="#faba23"/>
    <rect id="Rectangle_147" data-name="Rectangle 147" width="0.88" height="5.996" transform="translate(305.161 269.173)" fill="#faba23"/>
    <rect id="Rectangle_148" data-name="Rectangle 148" width="0.88" height="5.996" transform="translate(308.852 269.173)" fill="#faba23"/>
    <rect id="Rectangle_149" data-name="Rectangle 149" width="0.88" height="5.996" transform="translate(312.543 269.173)" fill="#faba23"/>
    <rect id="Rectangle_150" data-name="Rectangle 150" width="0.88" height="5.996" transform="translate(316.235 269.173)" fill="#faba23"/>
    <path id="Path_408" data-name="Path 408" d="M1879.31,1699.54h-32.99a1.755,1.755,0,0,1,1.348-.623h30.3a1.753,1.753,0,0,1,1.342.623Z" transform="translate(-1560.882 -1429.751)" fill="#faba23"/>
    <path id="Path_409" data-name="Path 409" d="M1879.31,1742.79h-32.99a1.754,1.754,0,0,0,1.348.624h30.3a1.753,1.753,0,0,0,1.342-.624Z" transform="translate(-1560.882 -1468.244)" fill="#faba23"/>
    <path id="Path_410" data-name="Path 410" d="M1863.35,1651.87v2.483a1.758,1.758,0,0,1-1.758,1.757h-30.3a1.757,1.757,0,0,1-1.756-1.757v-2.483a1.755,1.755,0,0,1,1.756-1.756h30.3a1.757,1.757,0,0,1,1.758,1.756Z" transform="translate(-1546.15 -1386.923)" fill="#fad332"/>
    <rect id="Rectangle_151" data-name="Rectangle 151" width="0.88" height="5.996" transform="translate(285.059 263.187)" fill="#faba23"/>
    <rect id="Rectangle_152" data-name="Rectangle 152" width="0.88" height="5.996" transform="translate(288.751 263.187)" fill="#faba23"/>
    <rect id="Rectangle_153" data-name="Rectangle 153" width="0.88" height="5.996" transform="translate(292.442 263.187)" fill="#faba23"/>
    <rect id="Rectangle_154" data-name="Rectangle 154" width="0.88" height="5.996" transform="translate(296.134 263.187)" fill="#faba23"/>
    <rect id="Rectangle_155" data-name="Rectangle 155" width="0.88" height="5.996" transform="translate(299.825 263.187)" fill="#faba23"/>
    <rect id="Rectangle_156" data-name="Rectangle 156" width="0.88" height="5.996" transform="translate(303.517 263.187)" fill="#faba23"/>
    <rect id="Rectangle_157" data-name="Rectangle 157" width="0.88" height="5.996" transform="translate(307.208 263.187)" fill="#faba23"/>
    <rect id="Rectangle_158" data-name="Rectangle 158" width="0.88" height="5.996" transform="translate(310.9 263.187)" fill="#faba23"/>
    <rect id="Rectangle_159" data-name="Rectangle 159" width="0.88" height="5.996" transform="translate(314.591 263.187)" fill="#faba23"/>
    <path id="Path_411" data-name="Path 411" d="M1865.9,1650.73h-32.99a1.755,1.755,0,0,1,1.342-.623h30.3a1.752,1.752,0,0,1,1.348.623Z" transform="translate(-1549.115 -1386.923)" fill="#faba23"/>
    <path id="Path_412" data-name="Path 412" d="M1865.9,1694h-32.99a1.755,1.755,0,0,0,1.342.623h30.3a1.753,1.753,0,0,0,1.348-.623Z" transform="translate(-1549.115 -1425.434)" fill="#faba23"/>
    <path id="Path_413" data-name="Path 413" d="M1868.87,1603.91v2.483a1.757,1.757,0,0,1-1.757,1.756h-30.306a1.757,1.757,0,0,1-1.756-1.756v-2.483a1.757,1.757,0,0,1,1.756-1.757h30.3a1.759,1.759,0,0,1,1.758,1.757Z" transform="translate(-1550.993 -1344.841)" fill="#fad332"/>
    <rect id="Rectangle_160" data-name="Rectangle 160" width="0.88" height="5.996" transform="translate(285.736 257.309)" fill="#faba23"/>
    <rect id="Rectangle_161" data-name="Rectangle 161" width="0.88" height="5.996" transform="translate(289.428 257.309)" fill="#faba23"/>
    <rect id="Rectangle_162" data-name="Rectangle 162" width="0.88" height="5.996" transform="translate(293.119 257.309)" fill="#faba23"/>
    <rect id="Rectangle_163" data-name="Rectangle 163" width="0.88" height="5.996" transform="translate(296.811 257.309)" fill="#faba23"/>
    <rect id="Rectangle_164" data-name="Rectangle 164" width="0.88" height="5.996" transform="translate(300.502 257.309)" fill="#faba23"/>
    <rect id="Rectangle_165" data-name="Rectangle 165" width="0.88" height="5.996" transform="translate(304.194 257.309)" fill="#faba23"/>
    <rect id="Rectangle_166" data-name="Rectangle 166" width="0.88" height="5.996" transform="translate(307.885 257.309)" fill="#faba23"/>
    <rect id="Rectangle_167" data-name="Rectangle 167" width="0.88" height="5.996" transform="translate(311.577 257.309)" fill="#faba23"/>
    <rect id="Rectangle_168" data-name="Rectangle 168" width="0.88" height="5.996" transform="translate(315.266 257.309)" fill="#faba23"/>
    <path id="Path_414" data-name="Path 414" d="M1871.42,1602.77h-32.99a1.754,1.754,0,0,1,1.348-.624h30.3a1.753,1.753,0,0,1,1.342.624Z" transform="translate(-1553.959 -1344.841)" fill="#faba23"/>
    <path id="Path_415" data-name="Path 415" d="M1871.42,1646h-32.99a1.752,1.752,0,0,0,1.348.623h30.3a1.752,1.752,0,0,0,1.342-.623Z" transform="translate(-1553.959 -1383.317)" fill="#faba23"/>
    <path id="Path_416" data-name="Path 416" d="M1838.04,1554.25v2.482a1.758,1.758,0,0,1-1.756,1.758h-30.3a1.758,1.758,0,0,1-1.758-1.758v-2.482a1.758,1.758,0,0,1,1.758-1.758h30.3a1.755,1.755,0,0,1,1.756,1.758Z" transform="translate(-1523.942 -1301.267)" fill="#fad332"/>
    <rect id="Rectangle_169" data-name="Rectangle 169" width="0.88" height="5.997" transform="translate(281.959 251.223)" fill="#faba23"/>
    <rect id="Rectangle_170" data-name="Rectangle 170" width="0.88" height="5.997" transform="translate(285.65 251.223)" fill="#faba23"/>
    <rect id="Rectangle_171" data-name="Rectangle 171" width="0.88" height="5.997" transform="translate(289.341 251.223)" fill="#faba23"/>
    <rect id="Rectangle_172" data-name="Rectangle 172" width="0.88" height="5.997" transform="translate(293.032 251.223)" fill="#faba23"/>
    <rect id="Rectangle_173" data-name="Rectangle 173" width="0.88" height="5.997" transform="translate(296.724 251.223)" fill="#faba23"/>
    <rect id="Rectangle_174" data-name="Rectangle 174" width="0.88" height="5.997" transform="translate(300.415 251.223)" fill="#faba23"/>
    <rect id="Rectangle_175" data-name="Rectangle 175" width="0.88" height="5.997" transform="translate(304.107 251.223)" fill="#faba23"/>
    <rect id="Rectangle_176" data-name="Rectangle 176" width="0.88" height="5.997" transform="translate(307.798 251.223)" fill="#faba23"/>
    <rect id="Rectangle_177" data-name="Rectangle 177" width="0.88" height="5.997" transform="translate(311.489 251.223)" fill="#faba23"/>
    <path id="Path_417" data-name="Path 417" d="M1840.6,1553.11h-32.99a1.754,1.754,0,0,1,1.348-.623h30.3a1.757,1.757,0,0,1,1.336.623Z" transform="translate(-1526.916 -1301.267)" fill="#faba23"/>
    <path id="Path_418" data-name="Path 418" d="M1840.6,1596.34h-32.99a1.753,1.753,0,0,0,1.348.623h30.3a1.757,1.757,0,0,0,1.336-.623Z" transform="translate(-1526.916 -1339.743)" fill="#faba23"/>
    <path id="Path_419" data-name="Path 419" d="M1868.37,1505.9v2.483a1.757,1.757,0,0,1-1.756,1.756h-30.3a1.757,1.757,0,0,1-1.757-1.756V1505.9a1.757,1.757,0,0,1,1.757-1.756h30.3a1.755,1.755,0,0,1,1.756,1.756Z" transform="translate(-1550.554 -1258.843)" fill="#fad332"/>
    <rect id="Rectangle_178" data-name="Rectangle 178" width="0.88" height="5.996" transform="translate(285.676 245.297)" fill="#faba23"/>
    <rect id="Rectangle_179" data-name="Rectangle 179" width="0.88" height="5.996" transform="translate(289.367 245.297)" fill="#faba23"/>
    <rect id="Rectangle_180" data-name="Rectangle 180" width="0.88" height="5.996" transform="translate(293.059 245.297)" fill="#faba23"/>
    <rect id="Rectangle_181" data-name="Rectangle 181" width="0.88" height="5.996" transform="translate(296.75 245.297)" fill="#faba23"/>
    <rect id="Rectangle_182" data-name="Rectangle 182" width="0.88" height="5.996" transform="translate(300.442 245.297)" fill="#faba23"/>
    <rect id="Rectangle_183" data-name="Rectangle 183" width="0.88" height="5.996" transform="translate(304.133 245.297)" fill="#faba23"/>
    <rect id="Rectangle_184" data-name="Rectangle 184" width="0.88" height="5.996" transform="translate(307.824 245.297)" fill="#faba23"/>
    <rect id="Rectangle_185" data-name="Rectangle 185" width="0.88" height="5.996" transform="translate(311.515 245.297)" fill="#faba23"/>
    <rect id="Rectangle_186" data-name="Rectangle 186" width="0.88" height="5.996" transform="translate(315.206 245.297)" fill="#faba23"/>
    <path id="Path_420" data-name="Path 420" d="M1870.93,1504.76h-32.99a1.753,1.753,0,0,1,1.348-.623h30.3a1.753,1.753,0,0,1,1.342.623Z" transform="translate(-1553.529 -1258.843)" fill="#faba23"/>
    <path id="Path_421" data-name="Path 421" d="M1870.93,1548h-32.99a1.752,1.752,0,0,0,1.348.623h30.3a1.753,1.753,0,0,0,1.342-.623Z" transform="translate(-1553.529 -1297.328)" fill="#faba23"/>
    <path id="Path_422" data-name="Path 422" d="M1857.62,1456.82v2.483a1.756,1.756,0,0,1-1.758,1.759h-30.3a1.757,1.757,0,0,1-1.756-1.757v-2.483a1.754,1.754,0,0,1,1.756-1.756h30.3a1.758,1.758,0,0,1,1.758,1.756Z" transform="translate(-1541.122 -1215.787)" fill="#fad332"/>
    <rect id="Rectangle_187" data-name="Rectangle 187" width="0.88" height="5.997" transform="translate(284.357 239.282)" fill="#faba23"/>
    <rect id="Rectangle_188" data-name="Rectangle 188" width="0.88" height="5.997" transform="translate(288.049 239.282)" fill="#faba23"/>
    <rect id="Rectangle_189" data-name="Rectangle 189" width="0.88" height="5.997" transform="translate(291.74 239.282)" fill="#faba23"/>
    <rect id="Rectangle_190" data-name="Rectangle 190" width="0.88" height="5.997" transform="translate(295.432 239.282)" fill="#faba23"/>
    <rect id="Rectangle_191" data-name="Rectangle 191" width="0.88" height="5.997" transform="translate(299.123 239.282)" fill="#faba23"/>
    <path id="Path_691" data-name="Path 691" d="M2310.66,1213.79c3.9.929,10.579,9.633,11.2,16.161-2.143.423-4.591-1.207-4.591-1.207l-5.3-7.279Z" transform="translate(-1968.502 -1003.561)" fill="#de623c"/>
    <rect id="Rectangle_192" data-name="Rectangle 192" width="0.88" height="5.997" transform="translate(302.815 239.282)" fill="#faba23"/>
    <rect id="Rectangle_193" data-name="Rectangle 193" width="0.88" height="5.997" transform="translate(306.506 239.282)" fill="#faba23"/>
    <rect id="Rectangle_194" data-name="Rectangle 194" width="0.88" height="5.997" transform="translate(310.198 239.282)" fill="#faba23"/>
    <rect id="Rectangle_195" data-name="Rectangle 195" width="0.88" height="5.997" transform="translate(313.888 239.282)" fill="#faba23"/>
    <path id="Path_423" data-name="Path 423" d="M1860.17,1455.68h-32.99a1.752,1.752,0,0,1,1.348-.623h30.3a1.752,1.752,0,0,1,1.342.623Z" transform="translate(-1544.088 -1215.778)" fill="#faba23"/>
    <path id="Path_424" data-name="Path 424" d="M1860.17,1498.91h-32.99a1.758,1.758,0,0,0,1.348.623h30.3a1.757,1.757,0,0,0,1.342-.623Z" transform="translate(-1544.088 -1254.254)" fill="#faba23"/>
    <path id="Path_425" data-name="Path 425" d="M1872.39,1408.17v2.483a1.757,1.757,0,0,1-1.756,1.756h-30.3a1.757,1.757,0,0,1-1.757-1.756v-2.483a1.757,1.757,0,0,1,1.757-1.756h30.3a1.755,1.755,0,0,1,1.756,1.756Z" transform="translate(-1554.082 -1173.091)" fill="#fad332"/>
    <rect id="Rectangle_196" data-name="Rectangle 196" width="0.88" height="5.997" transform="translate(286.169 233.319)" fill="#faba23"/>
    <rect id="Rectangle_197" data-name="Rectangle 197" width="0.88" height="5.997" transform="translate(289.86 233.319)" fill="#faba23"/>
    <rect id="Rectangle_198" data-name="Rectangle 198" width="0.88" height="5.997" transform="translate(293.552 233.319)" fill="#faba23"/>
    <rect id="Rectangle_199" data-name="Rectangle 199" width="0.88" height="5.997" transform="translate(297.243 233.319)" fill="#faba23"/>
    <rect id="Rectangle_200" data-name="Rectangle 200" width="0.88" height="5.997" transform="translate(300.935 233.319)" fill="#faba23"/>
    <rect id="Rectangle_201" data-name="Rectangle 201" width="0.88" height="5.997" transform="translate(304.625 233.319)" fill="#faba23"/>
    <rect id="Rectangle_202" data-name="Rectangle 202" width="0.88" height="5.997" transform="translate(308.316 233.319)" fill="#faba23"/>
    <rect id="Rectangle_203" data-name="Rectangle 203" width="0.88" height="5.997" transform="translate(312.007 233.319)" fill="#faba23"/>
    <rect id="Rectangle_204" data-name="Rectangle 204" width="0.88" height="5.997" transform="translate(315.699 233.319)" fill="#faba23"/>
    <path id="Path_426" data-name="Path 426" d="M1874.98,1407.03H1842a1.753,1.753,0,0,1,1.348-.623h30.305a1.754,1.754,0,0,1,1.327.623Z" transform="translate(-1557.092 -1173.091)" fill="#faba23"/>
    <path id="Path_427" data-name="Path 427" d="M1874.98,1450.25H1842a1.753,1.753,0,0,0,1.348.623h30.305A1.755,1.755,0,0,0,1874.98,1450.25Z" transform="translate(-1557.092 -1211.558)" fill="#faba23"/>
    <circle id="Ellipse_128" data-name="Ellipse 128" cx="18.086" cy="18.086" r="18.086" transform="translate(260.722 251.849) rotate(-18.236)" fill="#faba23"/>
    <path id="Path_428" data-name="Path 428" d="M1738.92,1549.83a14.865,14.865,0,0,1-21.028,8.6,14.7,14.7,0,0,1-3.349-2.4c-.368-.356-.725-.729-1.059-1.118a14.86,14.86,0,0,1,20.467-21.339,14.284,14.284,0,0,1,1.16,1.011,14.879,14.879,0,0,1,3.805,15.244Z" transform="translate(-1441.216 -1281.904)" fill="#fad332"/>
    <path id="Path_429" data-name="Path 429" d="M1733.85,1533.44l-20.467,21.339a14.9,14.9,0,0,1-3.539-10.428l13.445-14.015a14.9,14.9,0,0,1,10.567,3.1Z" transform="translate(-1441.119 -1281.767)" fill="#faee6c"/>
    <path id="Path_430" data-name="Path 430" d="M1770.58,1567.58l-19.755,20.59a14.7,14.7,0,0,1-3.349-2.4l20.572-21.448A14.832,14.832,0,0,1,1770.58,1567.58Z" transform="translate(-1474.156 -1311.656)" fill="#faee6c"/>
    <path id="Path_431" data-name="Path 431" d="M1807.59,1515.78c-1.755-.185-2.076-.012-2.864,1.544.2-1.733.023-2.054-1.546-2.863,1.755.184,2.076.011,2.864-1.545C1805.85,1514.68,1806.03,1515,1807.59,1515.78Z" transform="translate(-1523.029 -1266.547)" fill="#fff"/>
    <path id="Path_432" data-name="Path 432" d="M1761.84,1746.7c-1.482-.156-1.751-.01-2.417,1.3.166-1.463.02-1.733-1.3-2.417,1.481.156,1.751.01,2.417-1.3C1760.38,1745.76,1760.53,1746.03,1761.84,1746.7Z" transform="translate(-1483.492 -1469.552)" fill="#fff"/>
    <path id="Path_433" data-name="Path 433" d="M1784.53,877.309a19.854,19.854,0,1,1,19.854-19.854,19.854,19.854,0,0,1-19.854,19.854Zm0-38.72a18.874,18.874,0,1,0,18.874,18.874,18.874,18.874,0,0,0-18.874-18.874Z" transform="translate(-1489.248 -673.993)" fill="#e3eaff"/>
    <path id="Path_434" data-name="Path 434" d="M1907.81,793.072a2.635,2.635,0,0,1-2.635-2.635V754.015a2.635,2.635,0,0,1,5.27,0v36.422a2.636,2.636,0,0,1-2.635,2.635Z" transform="translate(-1612.528 -598.34)" fill="#e3eaff"/>
    <path id="Path_435" data-name="Path 435" d="M1784.53,877.309a19.854,19.854,0,1,1,19.854-19.854,19.854,19.854,0,0,1-19.854,19.854Zm0-38.72a18.874,18.874,0,1,0,18.874,18.874,18.874,18.874,0,0,0-18.874-18.874Z" transform="translate(-1489.248 -673.993)" fill="#e3eaff"/>
    <path id="Path_436" data-name="Path 436" d="M1907.81,793.072a2.635,2.635,0,0,1-2.635-2.635V754.015a2.635,2.635,0,0,1,5.27,0v36.422a2.636,2.636,0,0,1-2.635,2.635Z" transform="translate(-1612.528 -598.34)" fill="#fff"/>
    <path id="Path_437" data-name="Path 437" d="M1830.95,971.078h-.1a2.632,2.632,0,0,1-2.028-1.082l-10.942-14.018a2.635,2.635,0,1,1,4.26-3.1l8.977,11.313,8.412-11.481a2.635,2.635,0,1,1,4.007,3.423l-10.581,14.021a2.641,2.641,0,0,1-2.005.924Z" transform="translate(-1535.479 -774.183)" fill="#fff"/>
    <path id="Path_438" data-name="Path 438" d="M711.214,860.839a19.854,19.854,0,1,1,19.854-19.854,19.854,19.854,0,0,1-19.854,19.854Zm0-38.719a18.874,18.874,0,1,0,18.874,18.874,18.874,18.874,0,0,0-18.874-18.874Z" transform="translate(-547.471 -659.541)" fill="#e3eaff"/>
    <circle id="Ellipse_129" data-name="Ellipse 129" cx="14.365" cy="14.365" r="14.365" transform="translate(143.428 181.448) rotate(-45)" fill="#e3eaff"/>
    <path id="Path_439" data-name="Path 439" d="M786.34,914.145a12.41,12.41,0,0,1-21.76,0,12.521,12.521,0,0,1,5.942-5.353,6.672,6.672,0,1,1,9.877,0,12.52,12.52,0,0,1,5.941,5.353Z" transform="translate(-611.718 -726.669)" fill="#2274a4"/>
    <path id="Path_440" data-name="Path 440" d="M2030.59,1228.82l-8.334-4.478-.7,1.31h0c-.339.632,1.259,2.155,3.571,3.4s4.464,1.739,4.8,1.1C2029.97,1230.1,2030.59,1228.82,2030.59,1228.82Z" transform="translate(-1714.6 -1013.335)" fill="#faba23"/>
    <path id="Path_441" data-name="Path 441" d="M2035.42,1227.46c-.341.632-2.492.138-4.8-1.1s-3.911-2.766-3.57-3.4,2.49-.138,4.8,1.1S2035.76,1226.83,2035.42,1227.46Z" transform="translate(-1719.415 -1011.881)" fill="#fad332"/>
    <path id="Path_442" data-name="Path 442" d="M1733.32,1398.22l-8.428,1.369.214,1.326h0c.1.64,2.083.858,4.427.472s4.154-1.208,4.044-1.849C1733.57,1399.48,1733.32,1398.22,1733.32,1398.22Z" transform="translate(-1454.334 -1165.904)" fill="#faba23"/>
    <path id="Path_443" data-name="Path 443" d="M1733.46,1394.01c.1.64-1.708,1.471-4.044,1.848s-4.323.169-4.427-.472,1.716-1.471,4.045-1.849S1733.36,1393.36,1733.46,1394.01Z" transform="translate(-1454.418 -1161.627)" fill="#fad332"/>
    <path id="Path_444" data-name="Path 444" d="M1816.48,1250.55l-7.661-3.772q-.3.6-.593,1.2h0c-.287.582,1.206,1.9,3.332,2.951s4.085,1.425,4.372.843C1815.96,1251.72,1816.48,1250.55,1816.48,1250.55Z" transform="translate(-1527.427 -1033.024)" fill="#faba23"/>
    <path id="Path_445" data-name="Path 445" d="M1820.52,1249.14c-.287.582-2.244.2-4.37-.843s-3.62-2.369-3.332-2.951,2.243-.206,4.37.842S1820.81,1248.56,1820.52,1249.14Z" transform="translate(-1531.453 -1031.529)" fill="#fad332"/>
    <path id="Path_446" data-name="Path 446" d="M1719.48,1161.44l-8.824,1.433q.112.693.226,1.387h0c.109.671,2.183.892,4.633.49s4.348-1.264,4.239-1.934C1719.75,1162.76,1719.48,1161.44,1719.48,1161.44Z" transform="translate(-1441.848 -958.143)" fill="#faba23"/>
    <path id="Path_447" data-name="Path 447" d="M1719.61,1157.06c.109.67-1.789,1.537-4.239,1.935s-4.524.176-4.633-.49,1.788-1.537,4.238-1.935S1719.5,1156.39,1719.61,1157.06Z" transform="translate(-1441.912 -953.697)" fill="#fad332"/>
    <rect id="Rectangle_205" data-name="Rectangle 205" width="62.113" height="19.926" rx="9.963" transform="translate(132.222 213.004)" fill="#e3eaff"/>
    <path id="Path_448" data-name="Path 448" d="M638.541,1279.49v5.606a2.736,2.736,0,0,1-2.736,2.735H625.2a2.736,2.736,0,0,1-2.734-2.735v-5.606a2.734,2.734,0,0,1,2.734-2.736h10.6a2.738,2.738,0,0,1,2.741,2.736Z" transform="translate(-487.024 -1059.321)" fill="#faba23"/>
    <path id="Path_449" data-name="Path 449" d="M787.642,1307.9H770.051a2.281,2.281,0,0,1-2.281-2.281h0a2.281,2.281,0,0,1,2.281-2.28h17.591a2.281,2.281,0,0,1,2.281,2.28h0A2.281,2.281,0,0,1,787.642,1307.9Z" transform="translate(-614.517 -1082.653)" fill="#2274a4"/>
    <path id="Path_450" data-name="Path 450" d="M978.635,1307.9H969.82a2.281,2.281,0,0,1-2.28-2.281h0a2.279,2.279,0,0,1,2.28-2.28h8.816a2.279,2.279,0,0,1,2.28,2.28h0A2.281,2.281,0,0,1,978.635,1307.9Z" transform="translate(-789.803 -1082.653)" fill="#4ead60"/>
    <path id="Path_451" data-name="Path 451" d="M637.458,1277.3l-13.752,10.073a2.732,2.732,0,0,1-1.226-2.282v-5.606a2.734,2.734,0,0,1,2.734-2.736h10.6A2.717,2.717,0,0,1,637.458,1277.3Z" transform="translate(-487.033 -1059.321)" fill="#fad332"/>
    <path id="Path_452" data-name="Path 452" d="M698.257,1328.25a1.838,1.838,0,1,1-1.838-1.838,1.838,1.838,0,0,1,1.838,1.838Z" transform="translate(-550.297 -1102.895)" fill="#e62552"/>
    <path id="Path_453" data-name="Path 453" d="M716.077,1328.25a1.838,1.838,0,1,1-1.838-1.838,1.838,1.838,0,0,1,1.838,1.838Z" transform="translate(-565.933 -1102.895)" fill="#2274a4"/>
    <path id="Path_454" data-name="Path 454" d="M2176.47,1058.27c1.069-3.347.807-6.595-1.542-8.781-2.381-2.216-6.2-1.521-6.2-1.521h0a5.513,5.513,0,0,0-6.018.539c-3.347,2.28-1.961,5.326-3.554,7.192-.944,1.1-4.268.582-4.412,4.885a3.213,3.213,0,0,0,2.376,2.748c2.083.648,4.392.225,4.913,1.328,1.793,3.79,8.681,3.907,10.152,1.651.456-.7,5.737,2.135,6.427-3.21C2178.96,1060.4,2175.51,1061.27,2176.47,1058.27Z" transform="translate(-1831.504 -858.023)" fill="#020205"/>
    <path id="Path_455" data-name="Path 455" d="M2220.32,1076.65c-.434,4.12,1.839,7.737,5.075,8.078s6.211-2.724,6.645-6.845-1.839-7.738-5.075-8.079S2220.75,1072.53,2220.32,1076.65Z" transform="translate(-1888.998 -877.716)" fill="#f37a50"/>
    <path id="Path_456" data-name="Path 456" d="M2301.97,1135.45a.566.566,0,1,0,.49-.631.566.566,0,0,0-.49.631Z" transform="translate(-1960.684 -934.78)"/>
    <path id="Path_457" data-name="Path 457" d="M2264.83,1131.44a.613.613,0,1,0,.533-.683A.613.613,0,0,0,2264.83,1131.44Z" transform="translate(-1928.093 -931.216)"/>
    <path id="Path_458" data-name="Path 458" d="M2259.28,1124.32a.216.216,0,0,0,.123-.062,1.643,1.643,0,0,1,1.348-.368.213.213,0,0,0,.083-.418,2.018,2.018,0,0,0-1.732.49.212.212,0,0,0,0,.3.215.215,0,0,0,.178.058Z" transform="translate(-1923.021 -924.801)" fill="#020205"/>
    <path id="Path_459" data-name="Path 459" d="M2304.28,1128.88a.2.2,0,0,0,.068-.02.213.213,0,0,0,.1-.284,1.5,1.5,0,0,0-1.278-.838.214.214,0,1,0,0,.427,1.064,1.064,0,0,1,.9.6.215.215,0,0,0,.214.118Z" transform="translate(-1961.548 -928.574)" fill="#020205"/>
    <path id="Path_460" data-name="Path 460" d="M2287.66,1148.07a5.693,5.693,0,0,0,.551,1.08.224.224,0,0,1-.031.306,3.064,3.064,0,0,1-1.608.446.06.06,0,0,1-.026-.115,2.9,2.9,0,0,0,.927-.533.267.267,0,0,0,.08-.229c-.024-.195-.072-.591-.086-.909a.1.1,0,0,1,.192-.045Z" transform="translate(-1947.126 -946.359)" fill="#de623c"/>
    <path id="Path_461" data-name="Path 461" d="M2260.19,1162.12a.17.17,0,0,1,.238-.2,12.044,12.044,0,0,0,3.016,1.066.17.17,0,0,1,.057.307,2.12,2.12,0,0,1-3.309-1.17Z" transform="translate(-1924.017 -958.545)" fill="#fff"/>
    <path id="Path_462" data-name="Path 462" d="M2220.71,1069.72c3.729.783,10-1.085,11.063-2.8.1-2.481-3.17-4.9-5.609-4.6S2220.2,1066.37,2220.71,1069.72Z" transform="translate(-1889.343 -871.146)" fill="#020205"/>
    <path id="Path_464" data-name="Path 464" d="M2316.06,1778.67l2.057-8.1-5.1-.7c-.176,3.83-.462,7.6-.436,8.622Z" transform="translate(-1969.995 -1492.006)" fill="#f37a50"/>
    <path id="Path_465" data-name="Path 465" d="M2203.49,1769.49h-5.326c.174,1.277.874,8.188.874,8.188.45,1.022,4.419.789,4.419.214C2203.15,1776.65,2203.46,1769.65,2203.49,1769.49Z" transform="translate(-1869.601 -1491.672)" fill="#f37a50"/>
    <path id="Path_466" data-name="Path 466" d="M2258.75,1459.78l5.253.776,3.643-21.783c-.75-8.268-8.028-25.86-8.028-25.86l-8.2,2.873-.2,7.757,9.878,16.725C2259.8,1443.5,2258.92,1453.96,2258.75,1459.78Z" transform="translate(-1916.149 -1178.794)" fill="#c4204a"/>
    <path id="Path_467" data-name="Path 467" d="M2199.38,1395.09c-.075-.511-.1-.67-.526-.925l-7.877-2.234-1.876,1.851c-1.776,6.448-.676,15.417.725,22.535-2.051,6.16-1.249,18.859-.423,24.828h5.6c.325-3.989.223-11.391.245-14.966h0c.725-2.873,1.425-5.937,2.05-9.16a106.834,106.834,0,0,0,2.076-11.842,58.674,58.674,0,0,0,.005-10.087Z" transform="translate(-1860.844 -1160.385)" fill="#e62552"/>
    <path id="Path_468" data-name="Path 468" d="M2151,1205.77c-1.852,1.214-9.658,11.37-5.356,19.732.2.11,3.644-5.727,3.644-5.727l4.066-8.051Z" transform="translate(-1822.405 -997.041)" fill="#f37a50"/>
    <path id="Path_469" data-name="Path 469" d="M2230.46,1162.66l4.89,2.777s.434,1.98.65,2.623c.448,1.326-1.266,1.9-2.713,1.08a9.84,9.84,0,0,1-2.385-1.929Z" transform="translate(-1897.943 -959.214)" fill="#f37a50"/>
    <path id="Path_470" data-name="Path 470" d="M2199.9,1225.74a31.817,31.817,0,0,1-2.359,2.574l-1.808-1.973-.012.033-.429,1.129-.5,1.32c-.419,0-13.022-2.819-13.022-2.819.025-1.137,1.093-4.817,2.819-8.735-.419-3.318-.017-6.768-.148-8.681,1.019-5.13.292-7.1-.626-9.518l3.2-.945,5.76,2.031.428-1.389a35.9,35.9,0,0,1,4.368,1.286l1.363,5.689-.3,12.089a60.845,60.845,0,0,0,1.266,7.909Z" transform="translate(-1855.219 -990.337)" fill="#2274a4"/>
    <path id="Path_471" data-name="Path 471" d="M2217.5,1192.84l-2.255.957c.238,2.709,6.3,4.326,6.3,4.326l.6-2.613Z" transform="translate(-1884.588 -985.695)" fill="#054e79"/>
    <path id="Path_472" data-name="Path 472" d="M2271.53,1198.51l1.784,1.982s1.543-1.593.98-2.581-2.6-1.652-2.6-1.652Z" transform="translate(-1933.979 -988.696)" fill="#054e79"/>
    <path id="Path_473" data-name="Path 473" d="M2312.42,1829.47a2.3,2.3,0,0,1,1.674-1.556c2.217,2.958,7.661,1.142,7.476,5.147-8.279-.052-11.72,0-11.72,0a28.108,28.108,0,0,1,.368-3.952l.431.076Z" transform="translate(-1967.603 -1542.932)" fill="#2c2858"/>
    <path id="Path_474" data-name="Path 474" d="M2309.89,1869h11.724v.695a.483.483,0,0,1-.483.483h-10.757a.484.484,0,0,1-.484-.484Z" transform="translate(-1967.638 -1578.986)" fill="#2c2858"/>
    <path id="Path_475" data-name="Path 475" d="M2272.46,1240.27l-.429,1.129c-.388-2.6-1.838-13.469-1.02-16.471.766-2.819-.192-5.792-1.121-8.666-.227-.7-.462-1.429-.663-2.133l.282-.081.282-.081c.2.694.431,1.416.656,2.114.955,2.956,1.94,6.013,1.127,9C2270.87,1227.68,2271.96,1236.6,2272.46,1240.27Z" transform="translate(-1931.961 -1004.235)" fill="#054e79"/>
    <path id="Path_476" data-name="Path 476" d="M2203.87,1832.52s-.664-2.481-.723-2.8c-.068-.368-.262-1.219-.3-1.658a3.6,3.6,0,0,0-2.023-.8,3.529,3.529,0,0,0-2.277.815c-.14.827-.144,1.8-.368,2.607-.168.6-.624,2-.624,2Z" transform="translate(-1869.066 -1542.362)" fill="#2c2858"/>
    <path id="Path_477" data-name="Path 477" d="M2202.82,1868.07c-.156.49-2.066-.075-3.461-.075-1.17,0-2.685.453-2.857.277a2.946,2.946,0,0,0-.053,1.593s1.226.063,2.684,0a29.142,29.142,0,0,0,3.792-.159,1.934,1.934,0,0,0-.105-1.636Z" transform="translate(-1868.016 -1578.109)" fill="#2c2858"/>
    <path id="Path_478" data-name="Path 478" d="M2166.42,1290.86s-10.087,10.111-14,8.354c-1.292-1.746,1.451-5.252,4.021-6.426s6.855-3.013,6.855-3.013Z" transform="translate(-1829.175 -1070.754)" fill="#f37a50"/>
    <path id="Path_479" data-name="Path 479" d="M2284.48,1246.85l4.191-3.234a.411.411,0,0,1,.32-.078l2.854.517c.082.013.245.512.182.561l-2.849,1.716a.1.1,0,0,1-.046.018l-4.481.768C2284.56,1247.13,2284.4,1246.91,2284.48,1246.85Z" transform="translate(-1945.323 -1030.172)" fill="#f9cd2d"/>
    <path id="Path_480" data-name="Path 480" d="M2286.12,1250.75l3.986-3.042a.413.413,0,0,1,.321-.078l2.948.5a.1.1,0,0,1,.042.169l-2.8,2.125a.1.1,0,0,1-.047.018l-4.379.479a.094.094,0,0,1-.067-.169Z" transform="translate(-1946.748 -1033.762)" fill="#f9f93a"/>
    <path id="Path_481" data-name="Path 481" d="M2242.62,1261.96l2.355-1.179s1.493-1.625,1.961-2.11c.6-.173,1.757-.674,1.994-.657a3.326,3.326,0,0,1,.636.157l-1.363,1.066a1.79,1.79,0,0,0,1.334-.055c.78-.311,2.232-1.267,2.792-.924l.177.229s.49-.381.787-.122c.915.815-4.979,4.326-4.979,4.326l-2.451.294Z" transform="translate(-1908.612 -1042.884)" fill="#f37a50"/>
    <path id="Path_482" data-name="Path 482" d="M2318.86,1249.76a.331.331,0,0,1-.459-.027.326.326,0,0,1,.142-.437.331.331,0,0,1,.46.027A.326.326,0,0,1,2318.86,1249.76Z" transform="translate(-1975.072 -1035.159)" fill="#f9cd2d"/>
    <path id="Path_483" data-name="Path 483" d="M2334.07,1336.62s-5.228,5.978-8.868,6.823c-.216-1.2-.415-2.115-.415-2.115l4.961-6.531Z" transform="translate(-1980.712 -1110.257)" fill="#de623c"/>
    <path id="c" d="M2315.09,1382.23a.5.5,0,0,1,.075-.138l-.026-.007c-.517-.172-.835-.613-.713-.98a.538.538,0,0,1,.092-.164.729.729,0,0,1-.323-.776.56.56,0,0,1,.186-.262.729.729,0,0,1-.336-.815.854.854,0,0,1,1.6.529.6.6,0,0,1-.152.245.829.829,0,0,1,.57.924.5.5,0,0,1-.092.164.726.726,0,0,1,.324.776.531.531,0,0,1-.173.245.622.622,0,0,1,.315.708.719.719,0,0,1-1.343-.449Z" transform="translate(-1971.255 -1148.716)" fill="#de623c"/>
    <path id="Path_484" data-name="Path 484" d="M2207.86,1120.47a1.7,1.7,0,1,1-2.5-.816,1.879,1.879,0,0,1,2.5.816Z" transform="translate(-1875.314 -921.283)" fill="#f37a50"/>
    <path id="Path_485" data-name="Path 485" d="M2215.47,1129.22a.236.236,0,0,0,.107-.039,1.111,1.111,0,0,0,.536-1.256,1.185,1.185,0,0,0-1.076-.858.245.245,0,0,0-.01.49.7.7,0,0,1,.613.5.628.628,0,0,1-.334.71.245.245,0,0,0,.165.448Z" transform="translate(-1884.193 -927.986)" fill="#de623c"/>
    <path id="Path_498" data-name="Path 498" d="M1240.68,648.473l-1.419-10.572s-5.942-1.666-11.084,4.015c-3.187,3.521-9.552,3.584-9.552,3.584l1.428,10.627s7.985.778,11.561-3.309a13.169,13.169,0,0,1,9.066-4.345Z" transform="translate(-1010.112 -498.569)" fill="#d4deff"/>
    <path id="Path_499" data-name="Path 499" d="M1273.44,684.28c1.071,1.9,3.738,2.43,5.958,1.18s3.147-3.8,2.076-5.708-3.739-2.429-5.958-1.179S1272.37,682.384,1273.44,684.28Z" transform="translate(-1057.826 -533.86)" fill="#e3eaff"/>
    <rect id="Rectangle_206" data-name="Rectangle 206" width="62.113" height="19.926" rx="9.963" transform="translate(132.222 237.147)" fill="#e3eaff"/>
    <path id="Path_500" data-name="Path 500" d="M638.541,1476.48v5.606a2.736,2.736,0,0,1-2.736,2.735H625.2a2.736,2.736,0,0,1-2.734-2.735v-5.606a2.734,2.734,0,0,1,2.734-2.735h10.6A2.738,2.738,0,0,1,638.541,1476.48Z" transform="translate(-487.024 -1232.169)" fill="#d6224c"/>
    <path id="Path_501" data-name="Path 501" d="M787.642,1504.88H770.051a2.281,2.281,0,0,1-2.281-2.28h0a2.281,2.281,0,0,1,2.281-2.281h17.591a2.281,2.281,0,0,1,2.281,2.281h0a2.281,2.281,0,0,1-2.281,2.28Z" transform="translate(-614.517 -1255.491)" fill="#2274a4"/>
    <path id="Path_502" data-name="Path 502" d="M978.635,1504.88H969.82a2.28,2.28,0,0,1-2.28-2.28h0a2.281,2.281,0,0,1,2.28-2.281h8.816a2.281,2.281,0,0,1,2.28,2.281h0a2.28,2.28,0,0,1-2.28,2.28Z" transform="translate(-789.803 -1255.491)" fill="#4ead60"/>
    <path id="Path_503" data-name="Path 503" d="M637.458,1474.29l-13.752,10.073a2.732,2.732,0,0,1-1.226-2.282v-5.606a2.734,2.734,0,0,1,2.734-2.735h10.6a2.714,2.714,0,0,1,1.644.55Z" transform="translate(-487.033 -1232.169)" fill="#e62552"/>
    <circle id="Ellipse_130" data-name="Ellipse 130" cx="1.84" cy="1.84" r="1.84" transform="translate(144.218 247.716) rotate(-1.68)" fill="#fac832"/>
    <path id="Path_504" data-name="Path 504" d="M716.077,1525.24a1.838,1.838,0,1,1-1.838-1.838,1.838,1.838,0,0,1,1.838,1.838Z" transform="translate(-565.933 -1275.742)" fill="#2274a4"/>
    <rect id="Rectangle_207" data-name="Rectangle 207" width="62.113" height="19.926" rx="9.963" transform="translate(132.222 261.288)" fill="#e3eaff"/>
    <path id="Path_506" data-name="Path 506" d="M787.642,1701.86H770.051a2.281,2.281,0,0,1-2.281-2.281h0a2.281,2.281,0,0,1,2.281-2.281h17.591a2.281,2.281,0,0,1,2.281,2.281h0A2.281,2.281,0,0,1,787.642,1701.86Z" transform="translate(-614.517 -1428.33)" fill="#2274a4"/>
    <path id="Path_507" data-name="Path 507" d="M978.635,1701.86H969.82a2.281,2.281,0,0,1-2.28-2.281h0a2.281,2.281,0,0,1,2.28-2.281h8.816a2.281,2.281,0,0,1,2.28,2.281h0A2.281,2.281,0,0,1,978.635,1701.86Z" transform="translate(-789.803 -1428.33)" fill="#4ead60"/>
    <path id="Path_508" data-name="Path 508" d="M637.458,1671.23,623.706,1681.3a2.732,2.732,0,0,1-1.226-2.282v-5.611a2.734,2.734,0,0,1,2.734-2.735h10.6A2.717,2.717,0,0,1,637.458,1671.23Z" transform="translate(-487.033 -1404.972)" fill="#fad332"/>
    <path id="Path_509" data-name="Path 509" d="M698.257,1722.22a1.838,1.838,0,1,1-1.838-1.838,1.838,1.838,0,0,1,1.838,1.838Z" transform="translate(-550.297 -1448.581)" fill="#e62552"/>
    <path id="Path_510" data-name="Path 510" d="M716.077,1722.22a1.838,1.838,0,1,1-1.838-1.838,1.838,1.838,0,0,1,1.838,1.838Z" transform="translate(-565.933 -1448.581)" fill="#2274a4"/>
    <path id="Path_505" data-name="Path 505" d="M638.541,1673.42v5.606a2.736,2.736,0,0,1-2.736,2.735H625.2a2.736,2.736,0,0,1-2.734-2.735v-5.606a2.734,2.734,0,0,1,2.734-2.735h10.6A2.738,2.738,0,0,1,638.541,1673.42Z" transform="translate(-487.024 -1404.972)" fill="#faba23"/>
  </g>
</svg>
