<svg xmlns="http://www.w3.org/2000/svg" xmlns:xlink="http://www.w3.org/1999/xlink" width="181.998" height="179.548" viewBox="0 0 181.998 179.548">
  <defs>
    <linearGradient id="linear-gradient" x1="0.109" y1="0.014" x2="0.923" y2="0.858" gradientUnits="objectBoundingBox">
      <stop offset="0" stop-color="#ff9085"/>
      <stop offset="1" stop-color="#fb6fbb"/>
    </linearGradient>
    <linearGradient id="linear-gradient-2" x1="0.959" y1="-0.003" x2="1.67" y2="-0.798" gradientUnits="objectBoundingBox">
      <stop offset="0" stop-color="#e38ddd"/>
      <stop offset="1" stop-color="#9571f6"/>
    </linearGradient>
    <linearGradient id="linear-gradient-3" x1="4.876" y1="6.408" x2="6.109" y2="8.059" xlink:href="#linear-gradient-2"/>
    <linearGradient id="linear-gradient-4" x1="0.109" y1="0.014" x2="0.923" y2="0.858" gradientUnits="objectBoundingBox">
      <stop offset="0" stop-color="#ac3a43"/>
      <stop offset="1" stop-color="#fb6fbb"/>
    </linearGradient>
    <clipPath id="clip-path">
      <path id="Path_234" data-name="Path 234" d="M2275.82,1013.21c-5.628-6.453-12.97-16.832-15.413-30.772-2.8-16.006,3.413-22.076,3.508-40.494.138-26.292-17.49-37.837-10.479-48.821,3.419-5.356,11-8.566,17.083-7.215,17.358,3.858,31.207,46.783,16.877,71.883-6.481,11.351-15.2,14.017-18.382,26.506C2266.2,995.327,2271.36,1006.13,2275.82,1013.21Z" transform="translate(-2251.792 -885.597)" fill="url(#linear-gradient)"/>
    </clipPath>
    <linearGradient id="linear-gradient-5" x1="0.959" y1="-0.003" x2="1.67" y2="-0.798" gradientUnits="objectBoundingBox">
      <stop offset="0" stop-color="#054e79"/>
      <stop offset="1" stop-color="#9571f6"/>
    </linearGradient>
    <clipPath id="clip-path-2">
      <path id="Path_240" data-name="Path 240" d="M2343.81,1256.23c-2.961-4.681-6.765-12.342-5.642-21.1,1.96-15.288,16.709-16.73,23.621-35.145,5.574-14.852-1.079-21.748,7.086-33.505,1.364-1.968,8.479-12.625,17.462-11.818,5.062.455,8.471,4.342,9.11,5.071,9.671,11.029,5.1,36.635-8.039,53.02-7.551,9.415-11.436,9.025-26.047,22.461a105.194,105.194,0,0,0-17.552,21.019Z" transform="translate(-2337.968 -1154.62)" fill="url(#linear-gradient-2)"/>
    </clipPath>
    <linearGradient id="linear-gradient-6" x1="-3.062" y1="-0.991" x2="-4.474" y2="0.204" gradientUnits="objectBoundingBox">
      <stop offset="0" stop-color="#70bbe8"/>
      <stop offset="1" stop-color="#054e79"/>
    </linearGradient>
    <linearGradient id="linear-gradient-7" x1="4.876" y1="6.408" x2="6.109" y2="8.059" gradientUnits="objectBoundingBox">
      <stop offset="0" stop-color="#92cff3"/>
      <stop offset="1" stop-color="#9571f6"/>
    </linearGradient>
    <clipPath id="clip-path-3">
      <path id="Path_247" data-name="Path 247" d="M557.45,1555.81c2.961-4.681,6.765-12.342,5.642-21.1-1.96-15.288-16.709-16.73-23.621-35.145-5.574-14.852,1.08-21.748-7.086-33.505-1.364-1.968-8.479-12.625-17.463-11.818-5.062.455-8.47,4.342-9.11,5.071-9.672,11.029-5.1,36.635,8.039,53.021,7.551,9.415,11.436,9.025,26.047,22.461a105.159,105.159,0,0,1,17.552,21.015Z" transform="translate(-500.638 -1454.2)" fill="url(#linear-gradient-3)"/>
    </clipPath>
    <linearGradient id="linear-gradient-8" x1="1.951" y1="-0.785" x2="0.539" y2="0.41" gradientUnits="objectBoundingBox">
      <stop offset="0" stop-color="#ac3a43"/>
      <stop offset="0.676" stop-color="#b33842"/>
      <stop offset="1" stop-color="#da2b39"/>
    </linearGradient>
    <linearGradient id="linear-gradient-9" x1="-0.402" y1="0.553" x2="0.417" y2="0.514" gradientUnits="objectBoundingBox">
      <stop offset="0" stop-color="#ab316d"/>
      <stop offset="1" stop-color="#792d3d"/>
    </linearGradient>
    <linearGradient id="linear-gradient-10" y1="0.5" x2="1" y2="0.5" gradientUnits="objectBoundingBox">
      <stop offset="0" stop-color="#ffc444"/>
      <stop offset="1" stop-color="#f36f56"/>
    </linearGradient>
    <linearGradient id="linear-gradient-12" x1="0.372" y1="0.438" x2="0.975" y2="1.516" xlink:href="#linear-gradient-10"/>
    <linearGradient id="linear-gradient-13" x1="0.281" y1="0.33" x2="0.838" y2="1.577" xlink:href="#linear-gradient-10"/>
    <linearGradient id="linear-gradient-14" x1="0.618" y1="-0.27" x2="0.232" y2="2.961" xlink:href="#linear-gradient-9"/>
    <linearGradient id="linear-gradient-15" x1="5.84" y1="-8.958" x2="-2.105" y2="5.114" xlink:href="#linear-gradient-9"/>
    <linearGradient id="linear-gradient-16" x1="4.326" y1="-6.276" x2="-3.62" y2="7.797" xlink:href="#linear-gradient-9"/>
    <linearGradient id="linear-gradient-17" x1="0.244" y1="0.028" x2="1.092" y2="1.589" gradientUnits="objectBoundingBox">
      <stop offset="0" stop-color="#2274a4"/>
      <stop offset="1" stop-color="#054e79"/>
    </linearGradient>
    <linearGradient id="linear-gradient-18" x1="0.053" y1="0.495" x2="1.058" y2="0.495" xlink:href="#linear-gradient"/>
    <linearGradient id="linear-gradient-19" x1="-0.085" y1="0.5" x2="1.065" y2="0.5" gradientUnits="objectBoundingBox">
      <stop offset="0" stop-color="#fcb148"/>
      <stop offset="0.05" stop-color="#fdba46"/>
      <stop offset="0.14" stop-color="#ffc244"/>
      <stop offset="0.32" stop-color="#ffc444"/>
      <stop offset="0.48" stop-color="#fdb946"/>
      <stop offset="0.78" stop-color="#f99c4d"/>
      <stop offset="0.87" stop-color="#f8924f"/>
      <stop offset="1" stop-color="#f8924f"/>
    </linearGradient>
    <linearGradient id="linear-gradient-20" x1="0.495" y1="0.179" x2="0.556" y2="4.093" gradientUnits="objectBoundingBox">
      <stop offset="0" stop-color="#ffdb44"/>
      <stop offset="1" stop-color="#feef06"/>
    </linearGradient>
    <linearGradient id="linear-gradient-21" x1="0.492" y1="-0.777" x2="0.511" y2="1.296" xlink:href="#linear-gradient-20"/>
    <linearGradient id="linear-gradient-22" x1="0.034" y1="-71.644" x2="0.053" y2="-69.212" gradientUnits="objectBoundingBox">
      <stop offset="0" stop-color="#f36f56"/>
      <stop offset="0.31" stop-color="#f99c4c"/>
      <stop offset="0.55" stop-color="#fdb946"/>
      <stop offset="0.68" stop-color="#ffc444"/>
      <stop offset="0.8" stop-color="#ffc244"/>
      <stop offset="0.87" stop-color="#feba46"/>
      <stop offset="0.92" stop-color="#fcad49"/>
      <stop offset="0.96" stop-color="#f99a4d"/>
      <stop offset="1" stop-color="#f68252"/>
      <stop offset="1" stop-color="#f57e53"/>
    </linearGradient>
    <linearGradient id="linear-gradient-24" x1="0.495" y1="0.179" x2="0.556" y2="4.091" xlink:href="#linear-gradient-20"/>
    <linearGradient id="linear-gradient-26" x1="0.316" y1="-67.998" x2="0.334" y2="-65.567" xlink:href="#linear-gradient-22"/>
    <linearGradient id="linear-gradient-29" x1="0.492" y1="-0.777" x2="0.511" y2="1.295" xlink:href="#linear-gradient-20"/>
    <linearGradient id="linear-gradient-30" x1="0.072" y1="-64.363" x2="0.091" y2="-61.932" xlink:href="#linear-gradient-22"/>
    <linearGradient id="linear-gradient-34" x1="-0.075" y1="-60.717" x2="-0.056" y2="-58.286" xlink:href="#linear-gradient-22"/>
    <linearGradient id="linear-gradient-35" x1="-0.085" y1="0.499" x2="1.065" y2="0.499" xlink:href="#linear-gradient-19"/>
    <linearGradient id="linear-gradient-36" x1="0.495" y1="0.178" x2="0.556" y2="4.09" xlink:href="#linear-gradient-20"/>
    <linearGradient id="linear-gradient-38" x1="0.034" y1="-56.802" x2="0.053" y2="-54.37" xlink:href="#linear-gradient-22"/>
    <linearGradient id="linear-gradient-42" x1="0.316" y1="-53.138" x2="0.334" y2="-50.707" xlink:href="#linear-gradient-22"/>
    <linearGradient id="linear-gradient-46" x1="0.072" y1="-49.503" x2="0.091" y2="-47.072" xlink:href="#linear-gradient-22"/>
    <linearGradient id="linear-gradient-50" x1="0.199" y1="-45.858" x2="0.218" y2="-43.426" xlink:href="#linear-gradient-22"/>
    <linearGradient id="linear-gradient-51" x1="2.083" y1="-0.464" x2="3.787" y2="-0.464" xlink:href="#linear-gradient-19"/>
    <linearGradient id="linear-gradient-52" x1="3.217" y1="-0.656" x2="3.32" y2="-0.036" xlink:href="#linear-gradient-20"/>
    <linearGradient id="linear-gradient-53" x1="3.212" y1="-0.682" x2="3.243" y2="-0.492" xlink:href="#linear-gradient-20"/>
    <linearGradient id="linear-gradient-54" x1="-6.079" y1="-3.299" x2="-6.046" y2="-3.106" xlink:href="#linear-gradient-22"/>
    <linearGradient id="linear-gradient-55" x1="0.572" y1="-7.392" x2="0.485" y2="2.024" gradientUnits="objectBoundingBox">
      <stop offset="0" stop-color="#92cff3"/>
      <stop offset="1" stop-color="#2274a4"/>
    </linearGradient>
    <linearGradient id="linear-gradient-56" x1="0.353" y1="0.561" x2="1.687" y2="0.327" gradientUnits="objectBoundingBox">
      <stop offset="0" stop-color="#054e79"/>
      <stop offset="1" stop-color="#92cff3"/>
    </linearGradient>
  </defs>
  <g id="cheaper" transform="translate(-503.138 -518.83)">
    <path id="Path_229" data-name="Path 229" d="M2275.82,1013.21c-5.628-6.453-12.97-16.832-15.413-30.772-2.8-16.006,3.413-22.076,3.508-40.494.138-26.292-17.49-37.837-10.479-48.821,3.419-5.356,11-8.566,17.083-7.215,17.358,3.858,31.207,46.783,16.877,71.883-6.481,11.351-15.2,14.017-18.382,26.506C2266.2,995.327,2271.36,1006.13,2275.82,1013.21Z" transform="translate(-1634.908 -342.751)" fill="url(#linear-gradient-4)"/>
    <g id="Group_36" data-name="Group 36" transform="translate(616.885 542.846)" clip-path="url(#clip-path)">
      <g id="Group_35" data-name="Group 35" transform="translate(-2.107 -0.835)">
        <path id="Path_230" data-name="Path 230" d="M2312.74,983.006a62,62,0,0,1-.692-10.6c.17-8.119,1.955-13.294,4.213-19.844a143.647,143.647,0,0,0,4.64-15.623c2.824-12.239,3.538-16.418,3.183-22.5a56.752,56.752,0,0,0-7.9-25.579,55.341,55.341,0,0,0-14.518-15.927l.14-.189a55.584,55.584,0,0,1,14.58,16,57,57,0,0,1,7.928,25.686c.357,6.114-.358,10.3-3.188,22.569a143.832,143.832,0,0,1-4.647,15.646c-2.252,6.531-4.031,11.692-4.2,19.773a61.8,61.8,0,0,0,.689,10.561Z" transform="translate(-2296.324 -872.74)" fill="#fff"/>
        <path id="Path_231" data-name="Path 231" d="M2246.05,917.169l-.079-.177c-3.4-7.654-10.438-10.561-15.746-11.652a36.67,36.67,0,0,0-10.838-.54l-.031-.232a37,37,0,0,1,10.913.54c5.322,1.093,12.369,4,15.839,11.608a30.4,30.4,0,0,0,4.542-9.548,27.335,27.335,0,0,0-3.552-22.562l.2-.127a27.567,27.567,0,0,1,3.578,22.76,30.133,30.133,0,0,1-4.7,9.778Z" transform="translate(-2219.36 -883.717)" fill="#fff"/>
        <path id="Path_232" data-name="Path 232" d="M2390.39,1525.4h-.261l-.014-.1c-1.217-8.412-5.3-13.263-8.509-15.849a19.57,19.57,0,0,0-6.75-3.637l.057-.228a19.894,19.894,0,0,1,6.831,3.678c3.235,2.6,7.344,7.474,8.59,15.907h.032c1.469,0,14.9-.331,21.394-11.969l.205.114a23.212,23.212,0,0,1-13.492,10.744A28.331,28.331,0,0,1,2390.39,1525.4Z" transform="translate(-2364.76 -1464.483)" fill="#fff"/>
        <path id="Path_233" data-name="Path 233" d="M2394.49,1789.8a13.525,13.525,0,0,1-4.042-.525l-.079-.028v-.084c.1-9.112-9.907-19.72-10.008-19.825l.17-.163c.1.106,10.115,10.718,10.074,19.9a15.839,15.839,0,0,0,6.477.307c3.693-.5,9.43-2.344,15.784-8.272l.16.172c-6.408,5.976-12.2,7.831-15.93,8.335a19.485,19.485,0,0,1-2.606.183Z" transform="translate(-2369.902 -1710.942)" fill="#fff"/>
      </g>
    </g>
    <path id="Path_235" data-name="Path 235" d="M2343.81,1256.23c-2.961-4.681-6.765-12.342-5.642-21.1,1.96-15.288,16.709-16.73,23.621-35.145,5.574-14.852-1.079-21.748,7.086-33.505,1.364-1.968,8.479-12.625,17.462-11.818,5.062.455,8.471,4.342,9.11,5.071,9.671,11.029,5.1,36.635-8.039,53.02-7.551,9.415-11.436,9.025-26.047,22.461a105.194,105.194,0,0,0-17.552,21.019Z" transform="translate(-1715.485 -594.3)" fill="url(#linear-gradient-5)"/>
    <g id="Group_38" data-name="Group 38" transform="translate(622.482 560.32)" clip-path="url(#clip-path-2)">
      <g id="Group_37" data-name="Group 37" transform="translate(5.44 -5.287)">
        <path id="Path_236" data-name="Path 236" d="M2422.99,1186.84c-2.585-13.1-1.253-23.193,3.962-30.009a22.383,22.383,0,0,1,7.8-6.294,24.422,24.422,0,0,0,8.988-7.591c3-4.149,3.458-7.114,4.032-10.866a51.51,51.51,0,0,1,3.89-13.976,54.909,54.909,0,0,1,6.48-11.377c2.074-2.929,3.712-5.243,4.857-9.7,1.871-7.275,1.081-15.256-2.347-23.72l.218-.088c3.448,8.509,4.241,16.542,2.357,23.868a26.214,26.214,0,0,1-4.892,9.773,54.664,54.664,0,0,0-6.456,11.334,51.309,51.309,0,0,0-3.874,13.919c-.578,3.784-1.035,6.773-4.073,10.968a24.628,24.628,0,0,1-9.063,7.658,22.172,22.172,0,0,0-7.73,6.232c-5.17,6.762-6.488,16.8-3.916,29.823Z" transform="translate(-2421.712 -1073.22)" fill="#fff"/>
        <path id="Path_237" data-name="Path 237" d="M2814.85,1259.19l-.013-.156c-.016-.191-1.678-19.165-10.741-23.461l.1-.212c8.741,4.144,10.679,21.65,10.86,23.5a35.336,35.336,0,0,0,17.42-14.647,33.371,33.371,0,0,0,4.019-9.447l.23.047a33.612,33.612,0,0,1-4.049,9.522,35.581,35.581,0,0,1-17.681,14.8Z" transform="translate(-2779.262 -1224.267)" fill="#fff"/>
        <path id="Path_238" data-name="Path 238" d="M2720.03,1561.35h-.2l-.014-.1c-.667-5.078-3-10.6-4.84-14.347a76.252,76.252,0,0,0-3.873-6.977l.195-.13a77.653,77.653,0,0,1,3.886,7c1.835,3.734,4.157,9.237,4.849,14.318a43.153,43.153,0,0,0,33.143-17.237l.19.138a43.379,43.379,0,0,1-33.342,17.333Z" transform="translate(-2692.312 -1509.493)" fill="#fff"/>
        <path id="Path_239" data-name="Path 239" d="M2594.88,1905.76a32.931,32.931,0,0,1-6.781-.584l-.121-.029.035-.119c3.2-10.857-5.016-23.1-5.1-23.219l.2-.13c.084.123,8.3,12.362,5.167,23.3,1.348.279,13.756,2.54,29.851-4.683l.1.214A57.257,57.257,0,0,1,2594.88,1905.76Z" transform="translate(-2572.44 -1829.166)" fill="#fff"/>
      </g>
    </g>
    <path id="Path_241" data-name="Path 241" d="M2397.39,1862.99a58.992,58.992,0,0,1,10.536-12.837c9.318-8.524,15.311-8.356,17.993-14.953,2.774-6.829-2.338-10.237,1.149-18.026.293-.655,4.1-8.87,10.566-9.147,4.525-.195,7.925,3.6,9.52,5.383,6.191,6.912,9.79,19.911,3.736,29.635-5.739,9.218-17.253,10.853-20.915,11.348-6.431.869-8.747-.8-15.209.26A36.3,36.3,0,0,0,2397.39,1862.99Z" transform="translate(-1771.048 -1205.257)" fill="url(#linear-gradient-6)"/>
    <path id="Path_242" data-name="Path 242" d="M557.45,1555.81c2.961-4.681,6.765-12.342,5.642-21.1-1.96-15.288-16.709-16.73-23.621-35.145-5.574-14.852,1.08-21.748-7.086-33.505-1.364-1.968-8.479-12.625-17.463-11.818-5.062.455-8.47,4.342-9.11,5.071-9.672,11.029-5.1,36.635,8.039,53.021,7.551,9.415,11.436,9.025,26.047,22.461a105.159,105.159,0,0,1,17.552,21.015Z" transform="translate(2.5 -874.421)" fill="url(#linear-gradient-7)"/>
    <g id="Group_40" data-name="Group 40" transform="translate(503.138 579.78)" clip-path="url(#clip-path-3)">
      <g id="Group_39" data-name="Group 39" transform="translate(-3.849 -5.289)">
        <path id="Path_243" data-name="Path 243" d="M768.252,1486.4l-.231-.045c2.572-13.026,1.254-23.059-3.916-29.823a22.171,22.171,0,0,0-7.73-6.232,24.614,24.614,0,0,1-9.064-7.658c-3.038-4.2-3.5-7.185-4.073-10.968a51.282,51.282,0,0,0-3.874-13.919,54.642,54.642,0,0,0-6.455-11.334c-2.088-2.949-3.736-5.278-4.892-9.773-1.884-7.326-1.09-15.355,2.357-23.868l.218.088c-3.428,8.464-4.218,16.445-2.347,23.72,1.145,4.454,2.783,6.768,4.857,9.7a54.867,54.867,0,0,1,6.48,11.377,51.585,51.585,0,0,1,3.89,13.977c.574,3.752,1.027,6.717,4.032,10.866a24.432,24.432,0,0,0,8.989,7.591,22.371,22.371,0,0,1,7.8,6.294C769.5,1463.21,770.838,1473.31,768.252,1486.4Z" transform="translate(-708.468 -1372.78)" fill="#fff"/>
        <path id="Path_244" data-name="Path 244" d="M518.636,1558.79l-.147-.056a35.562,35.562,0,0,1-17.681-14.8,33.647,33.647,0,0,1-4.049-9.522l.231-.047a33.345,33.345,0,0,0,4.024,9.456,35.339,35.339,0,0,0,17.414,14.638c.181-1.847,2.119-19.357,10.86-23.5l.1.212c-9.063,4.3-10.724,23.27-10.741,23.461Z" transform="translate(-493.163 -1523.865)" fill="#fff"/>
        <path id="Path_245" data-name="Path 245" d="M474.727,1860.96a43.374,43.374,0,0,1-33.347-17.333l.19-.138a43.148,43.148,0,0,0,33.145,17.237c.689-5.081,3.014-10.584,4.849-14.318a77.417,77.417,0,0,1,3.886-7l.2.13a76.937,76.937,0,0,0-3.873,6.979c-1.84,3.741-4.172,9.268-4.839,14.344l-.013.1h-.192Z" transform="translate(-441.38 -1809.1)" fill="#fff"/>
        <path id="Path_246" data-name="Path 246" d="M700.051,2205.34a57.236,57.236,0,0,1-23.341-5.255l.1-.214c16.1,7.223,28.5,4.962,29.851,4.684-3.13-10.934,5.083-23.173,5.167-23.3l.2.13c-.083.123-8.294,12.362-5.1,23.219l.035.119-.12.029a32.882,32.882,0,0,1-6.787.588Z" transform="translate(-661.424 -2128.745)" fill="#fff"/>
      </g>
    </g>
    <path id="Path_248" data-name="Path 248" d="M590.86,2162.59a59.027,59.027,0,0,0-10.537-12.837c-9.317-8.523-15.311-8.356-17.993-14.953-2.774-6.829,2.338-10.237-1.149-18.026-.293-.655-4.1-8.87-10.566-9.147-4.525-.2-7.925,3.6-9.52,5.383-6.188,6.911-9.787,19.911-3.734,29.634,5.74,9.219,17.253,10.853,20.916,11.348,6.431.869,8.747-.8,15.21.26a36.3,36.3,0,0,1,17.373,8.338Z" transform="translate(-28.925 -1485.396)" fill="url(#linear-gradient-8)"/>
    <path id="Path_249" data-name="Path 249" d="M1295.59,569.467a1.249,1.249,0,0,1-.13.006,1.393,1.393,0,0,1-1.345-1.314c-1.189-13.34-5.236-26.017-11.406-35.694-5.466-8.574-11.974-13.688-17.408-13.688h-.018c-19.8.041-23.946,48.877-23.986,49.371a1.383,1.383,0,0,1-1.463,1.322,1.422,1.422,0,0,1-1.231-1.571c.17-2.122,4.41-51.98,26.675-52.029h.024c6.424,0,13.581,5.448,19.642,14.951,6.424,10.077,10.638,23.238,11.865,37.062a1.428,1.428,0,0,1-1.219,1.584Z" transform="translate(-687.528 2.96)" fill="url(#linear-gradient-9)"/>
    <path id="Path_250" data-name="Path 250" d="M803.848,1338.38l26.07,14.177,15.8-52.062-26.027-69.8-7.382,1.943-11.2,100.24a5.541,5.541,0,0,0,2.739,5.5Z" transform="translate(-278.42 -665.438)" fill="url(#linear-gradient-10)"/>
    <path id="Path_251" data-name="Path 251" d="M1019.22,1300.5l-26.027-69.8-4.352,1.146a163.19,163.19,0,0,0,.072,22.573c1.745,23.764,7.539,30.377,4.732,46.954-2.334,13.785-7.432,15.654-6.986,24.929.486,10.1,7.044,18.559,14.843,25.21l1.923,1.046Z" transform="translate(-451.922 -665.438)" opacity="0.3" fill="url(#linear-gradient-10)"/>
    <path id="Path_252" data-name="Path 252" d="M1087.64,1230.7l98.175,5.345,31.2,106.2-119.143,10.311Z" transform="translate(-546.373 -665.438)" fill="url(#linear-gradient-12)"/>
    <g id="Group_41" data-name="Group 41" transform="translate(557.328 567.821)" opacity="0.3">
      <path id="Path_253" data-name="Path 253" d="M1417.01,1272.88l-51.2-2.787a13.927,13.927,0,0,0-2.221,6.394c-1.26,16.693,33.192,22.1,36.28,42.6,2.35,15.6-12.11,33.608-25.013,41.629-13.594,8.451-22.8,4.171-32,13.554a32.98,32.98,0,0,0-7.962,14.621l113.313-9.808Z" transform="translate(-1334.901 -1270.09)" fill="url(#linear-gradient-13)"/>
    </g>
    <path id="Path_254" data-name="Path 254" d="M1496.96,588.6a1.379,1.379,0,0,1-1.315-1.121c-.277-1.265-6.663-31.154,2.34-45.823a15.675,15.675,0,0,1,10.717-7.63c23.279-4.405,37.609,49.3,38.209,51.583a1.469,1.469,0,0,1-.936,1.791,1.343,1.343,0,0,1-1.667-1.005c-.14-.535-14.248-53.47-35.136-49.508a12.909,12.909,0,0,0-8.929,6.366c-8.371,13.635-2.032,43.263-1.967,43.562a1.462,1.462,0,0,1-1.007,1.745A1.282,1.282,0,0,1,1496.96,588.6Z" transform="translate(-925.58 -13.774)" fill="url(#linear-gradient-14)"/>
    <ellipse id="Ellipse_117" data-name="Ellipse 117" cx="3.778" cy="4.058" rx="3.778" ry="4.058" transform="translate(567.61 570.983)" fill="url(#linear-gradient-15)"/>
    <ellipse id="Ellipse_118" data-name="Ellipse 118" cx="3.778" cy="4.058" rx="3.778" ry="4.058" transform="translate(616.887 570.607)" fill="url(#linear-gradient-16)"/>
    <path id="Path_255" data-name="Path 255" d="M1987.48,1662.86,1957,1633.14a2.144,2.144,0,0,0-2.367-.451l-16.266,7.1a2.51,2.51,0,0,0-.955,3.7l26.547,38.008a2.153,2.153,0,0,0,3.111.52l20.2-15.39a2.537,2.537,0,0,0,.21-3.767Zm-34.854-19.275c-1.028.741-2.646.087-3.615-1.462s-.924-3.406.1-4.148,2.646-.087,3.615,1.462.924,3.413-.106,4.153Z" transform="translate(-1340.522 -1041.15)" fill="#d8dee8"/>
    <path id="Path_256" data-name="Path 256" d="M1987.44,1656.6l-30.48-29.721a2.14,2.14,0,0,0-2.37-.45l-16.266,7.1a2.51,2.51,0,0,0-.955,3.7l26.547,38.009a2.154,2.154,0,0,0,3.111.52l20.2-15.389a2.538,2.538,0,0,0,.213-3.769Zm-34.854-19.273c-1.028.742-2.646.087-3.615-1.462s-.924-3.406.1-4.147,2.646-.087,3.615,1.462.924,3.41-.106,4.15Z" transform="translate(-1340.484 -1035.3)" fill="#f4f7fa"/>
    <path id="Path_257" data-name="Path 257" d="M1532.03,1339.13a.249.249,0,0,1-.23-.153,19.985,19.985,0,0,0-4.233-6.39c-4.807-4.8-11.005-5.553-17-6.283-5.969-.726-11.606-1.411-14.974-6.162-.852-1.2-2.177-3.378-1.466-4.421a1.81,1.81,0,0,1,1.689-.572.25.25,0,1,1-.023.5c-.448-.021-1.028.023-1.252.354-.377.555.195,2.067,1.461,3.851,3.239,4.569,8.769,5.242,14.626,5.954,6.082.74,12.371,1.505,17.3,6.425a20.484,20.484,0,0,1,4.34,6.549.251.251,0,0,1-.13.325A.256.256,0,0,1,1532.03,1339.13Z" transform="translate(-926.26 -744.393)" fill="#26264f"/>
    <path id="Path_258" data-name="Path 258" d="M1626.65,1364.78a.249.249,0,0,1-.176-.427,7.778,7.778,0,0,0,2.1-4.95,6.877,6.877,0,0,0-2.339-4.9c-3.279-3.22-11.979-6.95-19.655-10.24-4.685-2.008-9.11-3.905-12.017-5.541-.659-.371-1.356-.724-2.072-1.047a.25.25,0,1,1,.207-.455c.729.329,1.439.688,2.111,1.067,2.883,1.624,7.3,3.514,11.968,5.517,7.716,3.307,16.461,7.057,19.811,10.342a7.357,7.357,0,0,1,2.489,5.256,8.144,8.144,0,0,1-2.246,5.3A.249.249,0,0,1,1626.65,1364.78Z" transform="translate(-1018.279 -765.013)" fill="#26264f"/>
    <path id="Path_259" data-name="Path 259" d="M2221,1656.6l-30.479-29.721a2.14,2.14,0,0,0-2.37-.45l-1.448.632a21.076,21.076,0,0,0,1.811,4.523c4.5,8.256,11.887,7.9,13.6,13.629,1.513,5.078-3.561,7.8-4.229,14.927-.334,3.56.428,8.3,4.514,14.245l18.393-14.013a2.536,2.536,0,0,0,.208-3.772Z" transform="translate(-1574.043 -1035.3)" fill="#fff"/>
    <path id="Path_260" data-name="Path 260" d="M2207.22,1841.12c1.669,2.761,1.324,5.052-.007,5.98-1.4.974-3.413.245-4.911-2.232-1.424-2.355-1.5-4.843.071-5.938S2205.86,1838.87,2207.22,1841.12Zm-3.367,2.55c.835,1.381,1.762,2.148,2.385,1.714s.366-1.525-.531-3.007c-.81-1.339-1.689-2.2-2.356-1.734-.631.447-.291,1.707.5,3.027Zm6.813,8.872-2.969-17.325,1.16-.809,2.957,17.335Zm6.491-10.561c1.67,2.761,1.325,5.052-.006,5.976-1.387.968-3.4.235-4.911-2.232-1.424-2.355-1.5-4.842.071-5.938s3.489-.057,4.849,2.193Zm-3.354,2.542c.82,1.39,1.747,2.158,2.37,1.724s.365-1.525-.531-3.007c-.811-1.34-1.677-2.208-2.342-1.743s-.29,1.7.5,3.033Z" transform="translate(-1587.618 -1229.934)" fill="#d8dee8"/>
    <path id="Path_261" data-name="Path 261" d="M2339.13,2086.01a1.193,1.193,0,0,1-1.034-.625,1.354,1.354,0,0,1,.406-1.783l14.68-9.57a1.162,1.162,0,0,1,1.66.437,1.353,1.353,0,0,1-.406,1.783l-14.68,9.571A1.145,1.145,0,0,1,2339.13,2086.01Z" transform="translate(-1715.439 -1453.813)" fill="#d8dee8"/>
    <path id="Path_262" data-name="Path 262" d="M802.928,2317.25a2.458,2.458,0,0,1-2.107,2.548l-81.8,5a3.165,3.165,0,0,1-3.3-2.769v-57.247c0-1.549,1.792-2.851,3.341-2.787l81.759,3.5a2.4,2.4,0,0,1,2.107,2.51Z" transform="translate(-198.611 -1629.736)" fill="#054e79"/>
    <path id="Path_263" data-name="Path 263" d="M820.2,2316.09a2.47,2.47,0,0,1-2.118,2.561l-82.675,4.9a2.65,2.65,0,0,1-2.837-2.663v-57.52a2.707,2.707,0,0,1,2.837-2.713l82.675,3.428a2.415,2.415,0,0,1,2.118,2.523Z" transform="translate(-214.366 -1628.489)" fill="#75adcd"/>
    <path id="Path_264" data-name="Path 264" d="M820.2,2906.56l-87.63,4.5v10.535l87.63-5.144Z" transform="translate(-214.367 -2232.442)" fill="url(#linear-gradient-17)"/>
    <path id="Path_267" data-name="Path 267" d="M872.633,2264.7l-81.723-3.389c3.689,10.923,8.971,15.816,13.511,18.211,8.639,4.56,14.833.205,22.237,6.106,7.6,6.056,4.705,13.533,12.707,18.571,6.014,3.787,9.891.974,16.128,4.4,4.62,2.533,7.506,6.829,9.354,11.13l7.795-.462a2.469,2.469,0,0,0,2.117-2.56v-49.483A2.429,2.429,0,0,0,872.633,2264.7Z" transform="translate(-268.917 -1629.104)" fill="#5b7e93" opacity="0.3"/>
    <g id="Group_42" data-name="Group 42" transform="translate(526.483 641.258)" opacity="0.15">
      <path id="Path_265" data-name="Path 265" d="M877.618,2410.6c-.1,6.538-4.188,9.935-8.74,9.917-4.959-.019-8.935-3.822-8.841-10.068.09-5.937,3.832-10.167,9.387-9.751C874.816,2401.1,877.7,2405.26,877.618,2410.6Zm-11.774-.125c-.052,3.41,1.064,5.889,3.244,5.93,2.1.039,3.145-2.1,3.2-5.677.049-3.235-.779-5.786-3.072-5.924-2.233-.134-3.323,2.406-3.373,5.666Zm4.6,21.018,15.8-28.6a1.6,1.6,0,0,1,1.518-.821h0a1.6,1.6,0,0,1,1.284,2.36l-15.622,28.592a1.6,1.6,0,0,1-1.332.831l-.175.008a1.6,1.6,0,0,1-1.47-2.37Zm27.029-8.06c-.093,6.055-3.6,9.368-7.5,9.542-4.189.184-7.568-3.156-7.526-8.91.083-5.473,3.271-9.54,8.013-9.413,4.621.118,7.089,3.838,7.015,8.778Zm-10.031.4c-.091,3.149.859,5.391,2.721,5.334,1.793-.052,2.691-2.072,2.741-5.381.045-2.992-.621-5.312-2.579-5.336s-2.838,2.37-2.881,5.38Z" transform="translate(-860.035 -2400.668)" fill="url(#linear-gradient-18)"/>
    </g>
    <path id="Path_266" data-name="Path 266" d="M889.367,2405.92c-.1,6.538-4.188,9.935-8.74,9.918-4.96-.019-8.936-3.822-8.841-10.068.09-5.937,3.832-10.167,9.387-9.751C886.565,2396.42,889.448,2400.58,889.367,2405.92Zm-11.774-.125c-.051,3.411,1.065,5.89,3.245,5.93,2.1.039,3.144-2.1,3.2-5.676.049-3.235-.779-5.787-3.072-5.924-2.232-.135-3.322,2.405-3.374,5.665Zm4.6,21.018,15.8-28.6a1.6,1.6,0,0,1,1.519-.822h0a1.6,1.6,0,0,1,1.284,2.361l-15.622,28.593a1.6,1.6,0,0,1-1.332.83l-.175.008a1.6,1.6,0,0,1-1.47-2.37Zm27.029-8.06c-.092,6.055-3.6,9.368-7.5,9.539-4.188.185-7.568-3.156-7.525-8.91.082-5.472,3.271-9.54,8.013-9.413,4.62.121,7.09,3.841,7.014,8.781Zm-10.033.4c-.09,3.149.859,5.391,2.721,5.334,1.794-.052,2.691-2.073,2.741-5.381.045-2.988-.62-5.312-2.579-5.335s-2.836,2.369-2.881,5.379Z" transform="translate(-344.539 -1755.033)" fill="#fff"/>
    <path id="Path_268" data-name="Path 268" d="M1548.49,2689.29l-1.994-1.892-1.892,1.994-1.994-1.89-1.892,1.994-1.994-1.892-1.892,1.994-1.994-1.892-1.891,1.994-1.994-1.892-1.892,1.994-1.994-1.893-1.89,2-1.994-1.892-1.892,1.994-1.994-1.892-1.892,1.994-2.548-2.418v29.869a2.526,2.526,0,0,1-2.172,2.161l35.267-2.586a2.887,2.887,0,0,0,1.118-.318,2.771,2.771,0,0,0,.575-1.7v-27.045Z" transform="translate(-943.805 -2027.517)" fill="#2274a4" opacity="0.3"/>
    <path id="Path_269" data-name="Path 269" d="M1603.19,2701.28v27.208a2.932,2.932,0,0,1-2.723,2.892l-11.183.819-24.163,1.767a2.423,2.423,0,0,0,2.113-2.161v-29.87l2.6,2.418,1.361-1.408.569-.584,2,1.892,1.9-1.994,2,1.892,1.893-1.994,1.994,1.892,1.892-1.994,1.994,1.892,1.892-1.994,1.994,1.892,1.893-1.994,1.994,1.892,1.892-1.994,1.994,1.893,1.892-2,2.032,1.893Z" transform="translate(-992.838 -2040.496)" fill="#fff"/>
    <path id="Path_270" data-name="Path 270" d="M2018.2,2944.54l-4.362.2a.549.549,0,0,0-.524.548v2a.549.549,0,0,0,.58.548l4.362-.246a.549.549,0,0,0,.52-.548v-1.95a.55.55,0,0,0-.575-.549Z" transform="translate(-1411.916 -2267.956)" fill="#d8dee8"/>
    <path id="Path_271" data-name="Path 271" d="M2018.17,3004.1l-4.361.246a.549.549,0,0,0-.52.548v2.09a.549.549,0,0,0,.584.548l4.362-.278a.551.551,0,0,0,.514-.548v-2.058a.55.55,0,0,0-.579-.548Z" transform="translate(-1411.897 -2323.645)" fill="#d8dee8"/>
    <path id="Path_272" data-name="Path 272" d="M2018.77,2799.68V2796.1a.548.548,0,0,0-.568-.549l-4.362.156a.55.55,0,0,0-.529.549v3.621a.55.55,0,0,0,.574.549l4.361-.2a.548.548,0,0,0,.524-.55Z" transform="translate(-1411.916 -2128.638)" fill="#d8dee8"/>
    <path id="Path_273" data-name="Path 273" d="M1685.81,2950.83l-17.759.8a.549.549,0,0,0-.524.549v2.254a.549.549,0,0,0,.58.548l17.759-1a.549.549,0,0,0,.52-.548v-2.054a.55.55,0,0,0-.576-.549Z" transform="translate(-1088.596 -2273.837)" fill="#d8dee8"/>
    <path id="Path_274" data-name="Path 274" d="M1685.81,3011.99l-17.759,1a.549.549,0,0,0-.52.548v2.258a.549.549,0,0,0,.585.547l17.759-1.133a.549.549,0,0,0,.514-.548v-2.125a.549.549,0,0,0-.579-.549Z" transform="translate(-1088.596 -2331.022)" fill="#d8dee8"/>
    <path id="Path_275" data-name="Path 275" d="M1686.41,2804.76v-3.666a.549.549,0,0,0-.569-.549l-17.759.639a.55.55,0,0,0-.529.549v3.825a.55.55,0,0,0,.574.549l17.759-.8a.549.549,0,0,0,.524-.547Z" transform="translate(-1088.615 -2133.312)" fill="#d8dee8"/>
    <path id="Path_276" data-name="Path 276" d="M1589.15,2741.63,1565,2743.4a2.439,2.439,0,0,0,2.123-2.161v-29.87l2.6,2.418,1.361-1.408a7.816,7.816,0,0,1,2.3,5.29c.844,8.7,4.921,8.128,9.733,8.455s7.027,5.9,5.079,10.2a4.5,4.5,0,0,0,.954,5.306Z" transform="translate(-992.726 -2049.931)" fill="#f4f7fa" opacity="0.4"/>
    <path id="Path_277" data-name="Path 277" d="M698.19,3193v3.567c0,1.152,7.2,2.087,16.08,2.087s16.08-.935,16.08-2.087V3193Z" transform="translate(-182.22 -2500.276)" fill="url(#linear-gradient-19)"/>
    <path id="Path_278" data-name="Path 278" d="M730.35,3162.99c0,1.152-7.2,2.087-16.08,2.087s-16.08-.933-16.08-2.087,7.2-2.085,16.08-2.085S730.35,3161.83,730.35,3162.99Z" transform="translate(-182.22 -2470.261)" fill="url(#linear-gradient-20)"/>
    <path id="Path_279" data-name="Path 279" d="M714.13,3192.54c-7.865,0-16.09-.751-16.09-2.2,0-.08.029-.22.109-.22s.045.109.045.189c0,.919,6.545,1.943,15.937,1.943s15.936-1.024,15.936-1.943c0-.08.014-.154.093-.154s.06.106.06.186C730.219,3191.79,721.995,3192.54,714.13,3192.54Z" transform="translate(-182.08 -2497.583)" fill="url(#linear-gradient-21)"/>
    <path id="Path_280" data-name="Path 280" d="M798.429,3181.75q.236-.164.505-.325a3.22,3.22,0,0,1,.691-.288,6.638,6.638,0,0,1,1.06-.21,13.411,13.411,0,0,1,1.587-.085q.933,0,1.754.059a12.1,12.1,0,0,1,1.439.191,4.482,4.482,0,0,1,1.011.313.8.8,0,0,1,.462.428l1.81.019a1.778,1.778,0,0,1,.347.032c.1.021.15.047.15.079v.149l-2.327-.022a1.176,1.176,0,0,1-.624.5,6.273,6.273,0,0,1-1.276.394l-.844-.118a1.045,1.045,0,0,1-.187-.044c-.049-.018-.073-.038-.073-.059s.065-.064.2-.1.279-.082.444-.137a4.518,4.518,0,0,0,.486-.195.655.655,0,0,0,.318-.265l-5.494-.055a5.109,5.109,0,0,1-.485.313,3.2,3.2,0,0,1-.714.277,7.538,7.538,0,0,1-1.1.2,15.453,15.453,0,0,1-1.667.082c-.5,0-.994-.017-1.474-.057a10.172,10.172,0,0,1-1.279-.183,4,4,0,0,1-.918-.3c-.238-.119-.372-.256-.4-.411l-1.494-.016a1.979,1.979,0,0,1-.352-.031c-.1-.02-.155-.047-.155-.08v-.149l2.038.02a1.093,1.093,0,0,1,.557-.411,6.389,6.389,0,0,1,1.034-.311l.683.094c.207.029.31.065.31.1s-.042.046-.13.079l-.306.111a2.846,2.846,0,0,0-.34.154.717.717,0,0,0-.248.2Zm-5.024.206a.542.542,0,0,0,.27.253,2.15,2.15,0,0,0,.52.175,5.37,5.37,0,0,0,.7.1q.39.031.813.03a8.582,8.582,0,0,0,.864-.043,4.965,4.965,0,0,0,.65-.109,2.985,2.985,0,0,0,.486-.161,2.709,2.709,0,0,0,.371-.2Zm11.96-.13a.556.556,0,0,0-.3-.26,2.663,2.663,0,0,0-.595-.187,6.593,6.593,0,0,0-.844-.113q-.481-.037-1.061-.034a7.949,7.949,0,0,0-.889.046,4.789,4.789,0,0,0-.646.117,2.379,2.379,0,0,0-.464.172,3.3,3.3,0,0,0-.356.209Z" transform="translate(-267.898 -2488.903)" fill="#fcb048"/>
    <path id="Path_281" data-name="Path 281" d="M717.91,3164.38c-7.17,0-14.635.631-15.83,1.853a1.422,1.422,0,0,1,.13.137c1.007-.848,7.171-1.7,15.7-1.7,8.747,0,15.01.9,15.769,1.767a1.34,1.34,0,0,1,.121-.136C732.812,3165.03,725.207,3164.38,717.91,3164.38Z" transform="translate(-185.857 -2473.515)" fill="url(#linear-gradient-22)"/>
    <path id="Path_282" data-name="Path 282" d="M629.37,3135.35v3.567c0,1.153,7.2,2.087,16.08,2.087s16.08-.934,16.08-2.087v-3.567Z" transform="translate(-117.87 -2446.371)" fill="url(#linear-gradient-19)"/>
    <path id="Path_283" data-name="Path 283" d="M661.53,3105.32c0,1.153-7.2,2.087-16.08,2.087s-16.08-.934-16.08-2.087,7.2-2.086,16.08-2.086S661.53,3104.16,661.53,3105.32Z" transform="translate(-117.87 -2416.337)" fill="url(#linear-gradient-24)"/>
    <path id="Path_284" data-name="Path 284" d="M645.31,3134.86c-7.865,0-16.09-.751-16.09-2.2,0-.079.029-.22.109-.22s.045.11.045.189c0,.919,6.545,1.943,15.937,1.943s15.936-1.024,15.936-1.943c0-.079.014-.154.093-.154s.06.106.06.186C661.4,3134.11,653.174,3134.86,645.31,3134.86Z" transform="translate(-117.729 -2443.65)" fill="url(#linear-gradient-21)"/>
    <path id="Path_285" data-name="Path 285" d="M729.524,3124.06q.237-.164.505-.325a3.177,3.177,0,0,1,.691-.288,6.609,6.609,0,0,1,1.06-.209,13.308,13.308,0,0,1,1.587-.086q.932-.005,1.751.059a11.845,11.845,0,0,1,1.439.19,4.457,4.457,0,0,1,1.011.314.792.792,0,0,1,.462.428l1.81.018a1.809,1.809,0,0,1,.348.032c.1.021.15.046.15.078v.149l-2.327-.022a1.176,1.176,0,0,1-.624.5,6.324,6.324,0,0,1-1.276.394l-.844-.118a1,1,0,0,1-.187-.044c-.049-.018-.073-.037-.073-.059s.065-.061.2-.1.279-.082.444-.136a4.352,4.352,0,0,0,.486-.2.653.653,0,0,0,.318-.264l-5.494-.055a5.249,5.249,0,0,1-.485.313,3.158,3.158,0,0,1-.715.277,7.5,7.5,0,0,1-1.1.2,15.707,15.707,0,0,1-1.667.081c-.5,0-.994-.017-1.474-.057a9.947,9.947,0,0,1-1.282-.178,4,4,0,0,1-.918-.3c-.238-.12-.372-.26-.4-.412l-1.494-.015a1.978,1.978,0,0,1-.352-.031c-.1-.021-.155-.046-.155-.079v-.149l2.038.019a1.093,1.093,0,0,1,.557-.41,6.442,6.442,0,0,1,1.034-.311l.683.094c.207.029.31.065.31.1s-.042.047-.13.078-.188.069-.306.113a2.747,2.747,0,0,0-.34.153.717.717,0,0,0-.248.2Zm-5.028.2a.535.535,0,0,0,.27.252,2.125,2.125,0,0,0,.52.175,5.2,5.2,0,0,0,.7.1q.39.032.813.03a8.439,8.439,0,0,0,.864-.042,5.03,5.03,0,0,0,.646-.11,2.959,2.959,0,0,0,.486-.16,2.731,2.731,0,0,0,.373-.2Zm11.96-.133a.558.558,0,0,0-.3-.26,2.637,2.637,0,0,0-.6-.188,6.463,6.463,0,0,0-.844-.114q-.48-.037-1.061-.035a8.383,8.383,0,0,0-.889.046,4.6,4.6,0,0,0-.646.117,2.329,2.329,0,0,0-.464.172,3.292,3.292,0,0,0-.356.209Z" transform="translate(-203.464 -2434.967)" fill="#fcb048"/>
    <path id="Path_286" data-name="Path 286" d="M649.13,3106.7c-7.17,0-14.635.631-15.83,1.853a1.387,1.387,0,0,1,.13.138c1.007-.848,7.171-1.7,15.7-1.7,8.747,0,15.01.9,15.769,1.767a1.407,1.407,0,0,1,.12-.136C664.03,3107.35,656.424,3106.7,649.13,3106.7Z" transform="translate(-121.545 -2419.582)" fill="url(#linear-gradient-26)"/>
    <path id="Path_287" data-name="Path 287" d="M688.75,3077.85v3.567c0,1.153,7.2,2.086,16.08,2.086s16.08-.934,16.08-2.086v-3.567Z" transform="translate(-173.393 -2392.606)" fill="url(#linear-gradient-19)"/>
    <path id="Path_288" data-name="Path 288" d="M720.911,3047.81c0,1.152-7.2,2.086-16.08,2.086s-16.08-.934-16.08-2.086,7.2-2.087,16.08-2.087S720.911,3046.65,720.911,3047.81Z" transform="translate(-173.393 -2362.563)" fill="url(#linear-gradient-24)"/>
    <path id="Path_289" data-name="Path 289" d="M704.7,3077.36c-7.865,0-16.089-.752-16.089-2.2,0-.08.028-.22.108-.22s.046.109.046.189c0,.919,6.545,1.943,15.936,1.943s15.936-1.024,15.936-1.943c0-.08.014-.154.093-.154s.06.106.06.186C720.788,3076.61,712.564,3077.36,704.7,3077.36Z" transform="translate(-173.262 -2389.885)" fill="url(#linear-gradient-29)"/>
    <path id="Path_290" data-name="Path 290" d="M788.98,3066.56q.236-.164.505-.325a3.184,3.184,0,0,1,.69-.288,6.556,6.556,0,0,1,1.06-.21,13.428,13.428,0,0,1,1.588-.086q.932,0,1.75.059a11.844,11.844,0,0,1,1.439.191,4.449,4.449,0,0,1,1.01.313.791.791,0,0,1,.462.428l1.811.018a1.78,1.78,0,0,1,.347.032q.15.032.15.078v.149l-2.327-.023a1.173,1.173,0,0,1-.624.5,6.372,6.372,0,0,1-1.276.394l-.844-.118a.965.965,0,0,1-.187-.045c-.049-.017-.073-.037-.073-.058s.065-.065.2-.1.279-.083.444-.137a4.4,4.4,0,0,0,.486-.195.657.657,0,0,0,.319-.264l-5.5-.054a5.16,5.16,0,0,1-.485.313,3.15,3.15,0,0,1-.714.277,7.374,7.374,0,0,1-1.1.2,15.771,15.771,0,0,1-1.667.081c-.5,0-.994-.016-1.474-.057a10.012,10.012,0,0,1-1.28-.182,4,4,0,0,1-.918-.3c-.238-.119-.372-.257-.4-.411l-1.49-.016a1.881,1.881,0,0,1-.353-.031c-.1-.019-.155-.046-.155-.079v-.149l2.038.02a1.091,1.091,0,0,1,.557-.411,6.322,6.322,0,0,1,1.035-.311l.683.094c.207.029.31.065.31.1s-.042.047-.13.079l-.306.112a2.8,2.8,0,0,0-.34.153.73.73,0,0,0-.248.2Zm-5.028.2a.54.54,0,0,0,.271.253,2.184,2.184,0,0,0,.52.175,5.166,5.166,0,0,0,.7.1q.39.03.814.031a8.489,8.489,0,0,0,.863-.043,5.258,5.258,0,0,0,.646-.109,3.064,3.064,0,0,0,.486-.161,2.708,2.708,0,0,0,.372-.2Zm11.96-.134a.557.557,0,0,0-.3-.26,2.709,2.709,0,0,0-.6-.188,6.728,6.728,0,0,0-.844-.114q-.48-.037-1.061-.034a7.894,7.894,0,0,0-.889.045,4.5,4.5,0,0,0-.646.118,2.4,2.4,0,0,0-.464.172,3.463,3.463,0,0,0-.356.21Z" transform="translate(-259.062 -2381.204)" fill="#fcb048"/>
    <path id="Path_291" data-name="Path 291" d="M708.47,3049.2c-7.17,0-14.635.631-15.83,1.852a1.456,1.456,0,0,1,.13.138c1.007-.848,7.171-1.7,15.7-1.7,8.747,0,15.01.9,15.769,1.767a1.371,1.371,0,0,1,.12-.136C723.372,3049.85,715.767,3049.2,708.47,3049.2Z" transform="translate(-177.03 -2365.817)" fill="url(#linear-gradient-30)"/>
    <path id="Path_292" data-name="Path 292" d="M724.79,3020.17v3.566c0,1.152,7.2,2.087,16.08,2.087s16.08-.935,16.08-2.087v-3.566Z" transform="translate(-207.092 -2338.673)" fill="url(#linear-gradient-19)"/>
    <ellipse id="Ellipse_119" data-name="Ellipse 119" cx="16.08" cy="2.087" rx="16.08" ry="2.087" transform="translate(517.697 679.411)" fill="url(#linear-gradient-24)"/>
    <path id="Path_293" data-name="Path 293" d="M740.729,3019.68c-7.865,0-16.089-.751-16.089-2.2,0-.08.029-.219.108-.219s.046.11.046.189c0,.919,6.545,1.943,15.936,1.943s15.936-1.024,15.936-1.943c0-.08.014-.154.094-.154s.06.1.06.186C756.819,3018.93,748.595,3019.68,740.729,3019.68Z" transform="translate(-206.952 -2335.951)" fill="url(#linear-gradient-21)"/>
    <path id="Path_294" data-name="Path 294" d="M825.05,3008.93c.158-.109.325-.217.505-.325a3.2,3.2,0,0,1,.69-.288,6.667,6.667,0,0,1,1.06-.21,13.48,13.48,0,0,1,1.588-.086q.933,0,1.75.06a11.9,11.9,0,0,1,1.439.19,4.418,4.418,0,0,1,1.011.314.789.789,0,0,1,.462.428l1.81.019a1.761,1.761,0,0,1,.347.032c.1.021.151.047.151.079v.148l-2.328-.022a1.172,1.172,0,0,1-.624.5,6.356,6.356,0,0,1-1.276.394l-.844-.118a1.036,1.036,0,0,1-.188-.044c-.049-.018-.072-.037-.073-.059s.065-.061.2-.1.279-.083.444-.136a4.511,4.511,0,0,0,.485-.2.661.661,0,0,0,.319-.265l-5.5-.053a5.171,5.171,0,0,1-.485.313,3.184,3.184,0,0,1-.715.277,7.538,7.538,0,0,1-1.1.2,15.581,15.581,0,0,1-1.667.082c-.5,0-.994-.017-1.474-.057a10.038,10.038,0,0,1-1.279-.183,4.01,4.01,0,0,1-.918-.3q-.358-.179-.4-.412l-1.491-.015a2.075,2.075,0,0,1-.352-.031c-.1-.02-.155-.047-.155-.079v-.149l2.038.019a1.1,1.1,0,0,1,.557-.41,6.337,6.337,0,0,1,1.034-.311l.683.093q.311.044.31.1c0,.021-.042.048-.13.079l-.306.112a2.97,2.97,0,0,0-.339.153.719.719,0,0,0-.248.2Zm-5.028.2a.542.542,0,0,0,.271.253,2.137,2.137,0,0,0,.52.175,5.2,5.2,0,0,0,.7.1q.39.033.813.03a8.3,8.3,0,0,0,.864-.043,4.963,4.963,0,0,0,.65-.108,2.981,2.981,0,0,0,.486-.16,2.773,2.773,0,0,0,.371-.2Zm11.961-.133a.557.557,0,0,0-.3-.26,2.637,2.637,0,0,0-.6-.188,6.508,6.508,0,0,0-.844-.113q-.479-.037-1.061-.034a8.07,8.07,0,0,0-.889.046,4.5,4.5,0,0,0-.646.118,2.293,2.293,0,0,0-.464.171,3.184,3.184,0,0,0-.356.21Z" transform="translate(-292.789 -2327.309)" fill="#fcb048"/>
    <path id="Path_295" data-name="Path 295" d="M744.51,2991.52c-7.17,0-14.636.631-15.83,1.853a1.443,1.443,0,0,1,.13.137c1.006-.848,7.171-1.7,15.7-1.7,8.747,0,15.01.9,15.769,1.767a1.645,1.645,0,0,1,.12-.136C759.412,2992.17,751.807,2991.52,744.51,2991.52Z" transform="translate(-210.729 -2311.883)" fill="url(#linear-gradient-34)"/>
    <path id="Path_296" data-name="Path 296" d="M698.19,2958v3.566c0,1.153,7.2,2.087,16.08,2.087s16.08-.934,16.08-2.087V2958Z" transform="translate(-182.22 -2280.541)" fill="url(#linear-gradient-35)"/>
    <path id="Path_297" data-name="Path 297" d="M730.35,2927.96c0,1.152-7.2,2.086-16.08,2.086s-16.08-.937-16.08-2.086,7.2-2.087,16.08-2.087S730.35,2926.8,730.35,2927.96Z" transform="translate(-182.22 -2250.498)" fill="url(#linear-gradient-36)"/>
    <path id="Path_298" data-name="Path 298" d="M714.13,2957.46c-7.865,0-16.09-.751-16.09-2.2,0-.079.029-.219.109-.219s.045.109.045.189c0,.919,6.545,1.942,15.937,1.942s15.936-1.023,15.936-1.942c0-.08.014-.155.093-.155s.06.107.06.186C730.219,2956.71,721.995,2957.46,714.13,2957.46Z" transform="translate(-182.08 -2277.773)" fill="url(#linear-gradient-29)"/>
    <path id="Path_299" data-name="Path 299" d="M798.382,2946.66c.158-.11.325-.217.505-.325a3.163,3.163,0,0,1,.691-.288,6.611,6.611,0,0,1,1.06-.21,13.587,13.587,0,0,1,1.588-.084q.933-.005,1.754.059a11.844,11.844,0,0,1,1.439.19,4.458,4.458,0,0,1,1.011.314.8.8,0,0,1,.462.428l1.81.018a1.809,1.809,0,0,1,.348.032c.1.021.15.047.15.078v.15l-2.331-.02a1.176,1.176,0,0,1-.624.5,6.306,6.306,0,0,1-1.276.394l-.844-.118a.911.911,0,0,1-.187-.044c-.049-.018-.073-.037-.073-.058s.065-.061.2-.1.279-.083.444-.137a4.4,4.4,0,0,0,.486-.2.652.652,0,0,0,.318-.264l-5.494-.054a5.152,5.152,0,0,1-.485.313,3.162,3.162,0,0,1-.714.277,7.473,7.473,0,0,1-1.1.2,15.708,15.708,0,0,1-1.667.082c-.5,0-.994-.016-1.474-.057a10.126,10.126,0,0,1-1.279-.182,3.984,3.984,0,0,1-.918-.3c-.238-.12-.372-.256-.4-.412l-1.494-.015a1.955,1.955,0,0,1-.352-.031c-.1-.02-.155-.046-.155-.08v-.149l2.038.019a1.1,1.1,0,0,1,.557-.411,6.47,6.47,0,0,1,1.034-.311l.683.094c.207.029.311.063.31.1,0,.021-.042.047-.13.079l-.306.112a2.705,2.705,0,0,0-.34.153.722.722,0,0,0-.248.2Zm-5.028.2a.539.539,0,0,0,.27.252,2.15,2.15,0,0,0,.52.176,5.5,5.5,0,0,0,.7.1q.39.031.813.03a8.51,8.51,0,0,0,.864-.042,5.007,5.007,0,0,0,.65-.11,3.01,3.01,0,0,0,.486-.16,2.764,2.764,0,0,0,.372-.2Zm11.96-.133a.559.559,0,0,0-.3-.26,2.646,2.646,0,0,0-.6-.187,6.593,6.593,0,0,0-.844-.114q-.481-.037-1.061-.035a8.382,8.382,0,0,0-.889.046,4.565,4.565,0,0,0-.646.117,2.388,2.388,0,0,0-.465.171,3.4,3.4,0,0,0-.356.21Z" transform="translate(-267.851 -2269.09)" fill="#fcb048"/>
    <path id="Path_300" data-name="Path 300" d="M717.91,2929.3c-7.17,0-14.635.63-15.83,1.852a1.492,1.492,0,0,1,.13.138c1.007-.848,7.171-1.7,15.7-1.7,8.747,0,15.01.9,15.769,1.767a1.511,1.511,0,0,1,.121-.136C732.812,2929.95,725.207,2929.3,717.91,2929.3Z" transform="translate(-185.857 -2253.705)" fill="url(#linear-gradient-38)"/>
    <path id="Path_301" data-name="Path 301" d="M629.37,2900.27v3.567c0,1.152,7.2,2.086,16.08,2.086s16.08-.934,16.08-2.086v-3.567Z" transform="translate(-117.87 -2226.561)" fill="url(#linear-gradient-19)"/>
    <ellipse id="Ellipse_120" data-name="Ellipse 120" cx="16.08" cy="2.087" rx="16.08" ry="2.087" transform="translate(511.5 671.622)" fill="url(#linear-gradient-24)"/>
    <path id="Path_302" data-name="Path 302" d="M645.31,2899.78c-7.865,0-16.09-.751-16.09-2.2,0-.08.029-.219.109-.219s.045.109.045.189c0,.919,6.545,1.943,15.937,1.943s15.936-1.024,15.936-1.943c0-.08.014-.154.093-.154s.06.106.06.186C661.4,2899.03,653.174,2899.78,645.31,2899.78Z" transform="translate(-117.729 -2223.84)" fill="url(#linear-gradient-21)"/>
    <path id="Path_303" data-name="Path 303" d="M729.562,2888.99q.237-.164.505-.325a3.235,3.235,0,0,1,.691-.288,6.723,6.723,0,0,1,1.06-.21,13.516,13.516,0,0,1,1.587-.085q.932,0,1.751.06a11.893,11.893,0,0,1,1.439.19,4.484,4.484,0,0,1,1.011.313.8.8,0,0,1,.462.428l1.81.019a1.779,1.779,0,0,1,.347.032c.1.021.15.047.15.079v.148l-2.327-.022a1.173,1.173,0,0,1-.624.5,6.289,6.289,0,0,1-1.276.394l-.844-.118a1.024,1.024,0,0,1-.187-.044c-.049-.018-.073-.038-.073-.059s.065-.062.2-.1.279-.083.444-.137a4.345,4.345,0,0,0,.486-.192.66.66,0,0,0,.318-.265l-5.494-.055a5.1,5.1,0,0,1-.485.313,3.189,3.189,0,0,1-.714.277,7.507,7.507,0,0,1-1.1.2,15.644,15.644,0,0,1-1.667.082c-.5,0-.994-.017-1.474-.057a10.22,10.22,0,0,1-1.279-.183,3.971,3.971,0,0,1-.918-.3c-.238-.119-.372-.256-.4-.411l-1.494-.016a1.979,1.979,0,0,1-.352-.03c-.1-.02-.155-.047-.155-.08v-.149l2.038.02a1.093,1.093,0,0,1,.557-.41,6.361,6.361,0,0,1,1.034-.311l.683.094c.207.029.31.065.31.1s-.042.047-.13.079-.188.065-.306.112a2.755,2.755,0,0,0-.34.153.72.72,0,0,0-.248.2Zm-5.028.2a.541.541,0,0,0,.27.253,2.161,2.161,0,0,0,.52.175,5.288,5.288,0,0,0,.7.1q.39.031.813.03t.864-.043a4.983,4.983,0,0,0,.646-.109,2.982,2.982,0,0,0,.486-.16,2.692,2.692,0,0,0,.372-.2Zm11.96-.133a.554.554,0,0,0-.3-.26,2.689,2.689,0,0,0-.595-.187,6.634,6.634,0,0,0-.844-.113q-.48-.037-1.061-.034a8.069,8.069,0,0,0-.889.046,4.676,4.676,0,0,0-.646.117,2.35,2.35,0,0,0-.464.173,3.354,3.354,0,0,0-.356.209Z" transform="translate(-203.501 -2215.159)" fill="#fcb048"/>
    <path id="Path_304" data-name="Path 304" d="M649.13,2871.62c-7.17,0-14.635.631-15.83,1.853a1.407,1.407,0,0,1,.13.137c1.007-.848,7.171-1.7,15.7-1.7,8.747,0,15.01.9,15.769,1.768a1.341,1.341,0,0,1,.12-.136C664.03,2872.27,656.424,2871.62,649.13,2871.62Z" transform="translate(-121.545 -2199.771)" fill="url(#linear-gradient-42)"/>
    <path id="Path_305" data-name="Path 305" d="M688.75,2842.76v3.566c0,1.152,7.2,2.087,16.08,2.087s16.08-.935,16.08-2.087v-3.566Z" transform="translate(-173.393 -2172.787)" fill="url(#linear-gradient-19)"/>
    <ellipse id="Ellipse_121" data-name="Ellipse 121" cx="16.08" cy="2.087" rx="16.08" ry="2.087" transform="translate(515.357 667.887)" fill="url(#linear-gradient-24)"/>
    <path id="Path_306" data-name="Path 306" d="M704.7,2842.27c-7.865,0-16.089-.751-16.089-2.2,0-.079.028-.22.108-.22s.046.11.046.189c0,.919,6.545,1.943,15.936,1.943s15.936-1.024,15.936-1.943c0-.079.014-.154.093-.154s.06.106.06.186C720.788,2841.52,712.564,2842.27,704.7,2842.27Z" transform="translate(-173.262 -2170.065)" fill="url(#linear-gradient-21)"/>
    <path id="Path_307" data-name="Path 307" d="M788.98,2831.47q.236-.163.505-.325a3.159,3.159,0,0,1,.69-.288,6.61,6.61,0,0,1,1.06-.209,13.172,13.172,0,0,1,1.588-.085q.932,0,1.75.059a11.9,11.9,0,0,1,1.439.19,4.409,4.409,0,0,1,1.01.314.79.79,0,0,1,.462.428l1.811.018a1.818,1.818,0,0,1,.347.032c.1.021.15.047.15.079v.149l-2.327-.023a1.172,1.172,0,0,1-.624.5,6.324,6.324,0,0,1-1.276.394l-.844-.118a.965.965,0,0,1-.187-.044c-.049-.018-.073-.037-.073-.058s.065-.061.2-.1.279-.083.444-.136a4.635,4.635,0,0,0,.486-.2.666.666,0,0,0,.319-.265l-5.495-.054a5.445,5.445,0,0,1-.485.313,3.121,3.121,0,0,1-.714.276,7.472,7.472,0,0,1-1.1.2,15.644,15.644,0,0,1-1.667.082c-.5,0-.994-.017-1.474-.057a10.143,10.143,0,0,1-1.28-.182,4.024,4.024,0,0,1-.918-.3c-.238-.12-.372-.257-.4-.412l-1.49-.015a2.014,2.014,0,0,1-.353-.031c-.1-.02-.155-.046-.155-.079v-.149l2.038.02a1.092,1.092,0,0,1,.557-.411,6.46,6.46,0,0,1,1.035-.311l.683.094c.207.029.31.065.31.1s-.042.047-.13.078-.188.069-.306.113a2.8,2.8,0,0,0-.34.153.728.728,0,0,0-.248.2Zm-5.028.2a.537.537,0,0,0,.271.253,2.117,2.117,0,0,0,.52.175,5.127,5.127,0,0,0,.7.1q.39.031.814.03a8.349,8.349,0,0,0,.863-.042,5.033,5.033,0,0,0,.646-.11,3.01,3.01,0,0,0,.486-.16,2.789,2.789,0,0,0,.372-.2Zm11.96-.13a.556.556,0,0,0-.3-.26,2.636,2.636,0,0,0-.6-.187,6.507,6.507,0,0,0-.844-.114q-.48-.037-1.061-.034a8.254,8.254,0,0,0-.889.046,4.557,4.557,0,0,0-.643.116,2.323,2.323,0,0,0-.464.171,3.3,3.3,0,0,0-.356.21Z" transform="translate(-259.062 -2161.384)" fill="#fcb048"/>
    <path id="Path_308" data-name="Path 308" d="M708.47,2814.11c-7.17,0-14.635.631-15.83,1.853a1.443,1.443,0,0,1,.13.137c1.007-.845,7.171-1.7,15.7-1.7,8.747,0,15.01.9,15.769,1.767a1.472,1.472,0,0,1,.12-.136C723.372,2814.76,715.767,2814.11,708.47,2814.11Z" transform="translate(-177.03 -2145.997)" fill="url(#linear-gradient-46)"/>
    <path id="Path_309" data-name="Path 309" d="M657.86,2785.09v3.567c0,1.152,7.2,2.086,16.08,2.086s16.082-.934,16.082-2.086v-3.567Z" transform="translate(-144.509 -2118.862)" fill="url(#linear-gradient-19)"/>
    <ellipse id="Ellipse_122" data-name="Ellipse 122" cx="16.08" cy="2.087" rx="16.08" ry="2.087" transform="translate(513.351 664.141)" fill="url(#linear-gradient-24)"/>
    <path id="Path_310" data-name="Path 310" d="M673.809,2784.6c-7.865,0-16.089-.752-16.089-2.2,0-.08.029-.219.108-.219s.045.109.045.189c0,.918,6.545,1.943,15.936,1.943s15.936-1.024,15.936-1.943c0-.08.014-.155.094-.155s.06.107.06.186C689.9,2783.85,681.675,2784.6,673.809,2784.6Z" transform="translate(-144.378 -2116.141)" fill="url(#linear-gradient-29)"/>
    <path id="Path_311" data-name="Path 311" d="M758.013,2773.8c.158-.109.325-.217.505-.324a3.2,3.2,0,0,1,.69-.288,6.582,6.582,0,0,1,1.06-.21,13.48,13.48,0,0,1,1.588-.086q.931,0,1.75.059a11.8,11.8,0,0,1,1.439.191,4.462,4.462,0,0,1,1.01.313.791.791,0,0,1,.462.428l1.811.018a1.8,1.8,0,0,1,.347.033c.1.021.15.047.151.078v.149l-2.328-.023a1.165,1.165,0,0,1-.624.5,6.356,6.356,0,0,1-1.276.394l-.844-.118a.965.965,0,0,1-.187-.045c-.049-.018-.073-.037-.073-.058s.065-.062.2-.1.279-.083.444-.137a4.353,4.353,0,0,0,.486-.195.661.661,0,0,0,.319-.264l-5.5-.051a5.175,5.175,0,0,1-.485.313,3.149,3.149,0,0,1-.714.277,7.344,7.344,0,0,1-1.1.2,15.772,15.772,0,0,1-1.667.082c-.5,0-.994-.016-1.474-.058a10.054,10.054,0,0,1-1.28-.182,3.977,3.977,0,0,1-.917-.3c-.238-.12-.372-.26-.4-.411l-1.494-.016a1.891,1.891,0,0,1-.352-.031c-.1-.02-.155-.046-.155-.079v-.149l2.038.02a1.094,1.094,0,0,1,.557-.41,6.237,6.237,0,0,1,1.034-.312l.683.094c.207.029.31.065.31.1s-.042.047-.13.079l-.306.112a2.827,2.827,0,0,0-.339.153.725.725,0,0,0-.249.2Zm-5.026.2a.545.545,0,0,0,.271.253,2.186,2.186,0,0,0,.52.176,5.286,5.286,0,0,0,.7.1q.39.031.814.03a8.581,8.581,0,0,0,.864-.042,5.074,5.074,0,0,0,.646-.109,3.038,3.038,0,0,0,.486-.161,2.6,2.6,0,0,0,.371-.2Zm11.961-.13a.559.559,0,0,0-.3-.26,2.679,2.679,0,0,0-.6-.187,6.548,6.548,0,0,0-.844-.114q-.48-.037-1.061-.034a7.952,7.952,0,0,0-.889.045,4.515,4.515,0,0,0-.65.117,2.4,2.4,0,0,0-.464.171,3.409,3.409,0,0,0-.356.21Z" transform="translate(-230.104 -2107.459)" fill="#fcb048"/>
    <path id="Path_312" data-name="Path 312" d="M677.59,2756.44c-7.17,0-14.636.631-15.83,1.852a1.51,1.51,0,0,1,.13.138c1.006-.848,7.17-1.7,15.7-1.7,8.747,0,15.01.9,15.769,1.767a1.4,1.4,0,0,1,.12-.136C692.492,2757.09,684.887,2756.44,677.59,2756.44Z" transform="translate(-148.156 -2092.073)" fill="url(#linear-gradient-50)"/>
    <path id="Path_313" data-name="Path 313" d="M1179.32,2823.8l-2.907,2.067c-.939.668,2.473,7.076,7.621,14.313s10.082,12.563,11.021,11.894l2.906-2.067Z" transform="translate(-629.233 -2155.058)" fill="url(#linear-gradient-51)"/>
    <path id="Path_314" data-name="Path 314" d="M1239.8,2849.19c-.939.668-5.873-4.657-11.021-11.894s-8.559-13.645-7.62-14.313,5.873,4.657,11.021,11.894S1240.74,2848.53,1239.8,2849.19Z" transform="translate(-671.076 -2154.244)" fill="url(#linear-gradient-52)"/>
    <path id="Path_315" data-name="Path 315" d="M1227.52,2837.36c-4.559-6.409-8.714-13.546-7.535-14.386.065-.046.195-.1.242-.039s-.065.1-.13.146c-.749.532,2.208,6.459,7.654,14.112s10.068,12.393,10.82,11.86c.065-.046.133-.078.179-.014s-.051.111-.116.157C1237.45,2850.03,1232.08,2843.77,1227.52,2837.36Z" transform="translate(-669.93 -2154.218)" fill="url(#linear-gradient-53)"/>
    <path id="Path_316" data-name="Path 316" d="M1279.08,2905.8q.271.1.557.224a3.2,3.2,0,0,1,.635.4,6.557,6.557,0,0,1,.785.743,13.379,13.379,0,0,1,.991,1.244q.544.756.966,1.46a11.811,11.811,0,0,1,.679,1.283,4.435,4.435,0,0,1,.331,1,.8.8,0,0,1-.081.624l1.034,1.486a1.764,1.764,0,0,1,.175.3c.042.095.049.149.023.168l-.121.087-1.331-1.91a1.171,1.171,0,0,1-.77-.218,6.332,6.332,0,0,1-1.061-.812l-.4-.76a1,1,0,0,1-.072-.178c-.014-.05-.012-.081.005-.093s.088.018.195.1.229.179.368.282a4.8,4.8,0,0,0,.438.285.66.66,0,0,0,.4.1l-3.14-4.508a5.1,5.1,0,0,1-.537-.214,3.171,3.171,0,0,1-.638-.42,7.426,7.426,0,0,1-.8-.784,15.7,15.7,0,0,1-1.033-1.311q-.442-.614-.808-1.234a10.058,10.058,0,0,1-.592-1.148,3.97,3.97,0,0,1-.287-.921.646.646,0,0,1,.1-.565l-.852-1.223a2.008,2.008,0,0,1-.179-.3c-.044-.1-.052-.154-.025-.173l.121-.087,1.169,1.673a1.1,1.1,0,0,1,.657.216,6.371,6.371,0,0,1,.853.662l.32.611c.1.186.13.289.1.313s-.065-.007-.138-.059-.166-.114-.269-.184a2.583,2.583,0,0,0-.325-.188.716.716,0,0,0-.306-.087Zm-3.08-3.979a.539.539,0,0,0-.049.367,2.148,2.148,0,0,0,.158.524,5.424,5.424,0,0,0,.325.627q.2.335.448.68a8.367,8.367,0,0,0,.535.679,5.014,5.014,0,0,0,.464.462,2.98,2.98,0,0,0,.412.3,2.713,2.713,0,0,0,.377.188Zm7.042,9.669a.558.558,0,0,0,.04-.39,2.677,2.677,0,0,0-.2-.595,6.553,6.553,0,0,0-.4-.753q-.247-.413-.585-.885a8.039,8.039,0,0,0-.553-.7,4.521,4.521,0,0,0-.47-.459,2.293,2.293,0,0,0-.409-.279,3.319,3.319,0,0,0-.377-.169Z" transform="translate(-720.653 -2225.13)" fill="#fcb048"/>
    <path id="Path_317" data-name="Path 317" d="M1235.92,2838.77c-4.157-5.843-9-11.562-10.685-11.826a1.379,1.379,0,0,1-.036.186c1.274.329,5.543,4.857,10.486,11.806,5.07,7.127,7.969,12.752,7.7,13.874a1.5,1.5,0,0,1,.181.019C1244.02,2851.29,1240.15,2844.71,1235.92,2838.77Z" transform="translate(-674.998 -2157.994)" fill="url(#linear-gradient-54)"/>
    <path id="Path_318" data-name="Path 318" d="M2376.56,2650.78l-1.455.115a4.661,4.661,0,0,1-1.129-.047l-5.771-.941-.094-.015-6.707-1.094h-.042l-5.256-.851V2618.37h5.3l6.707.333.1.05,8.112.313Z" transform="translate(-1732.449 -1962.971)" fill="#2e5e7b"/>
    <path id="Path_319" data-name="Path 319" d="M2662.27,2624.4V2652a1.847,1.847,0,0,1-1.74,1.853L2641.28,2655a1.389,1.389,0,0,1-1.443-1.4v-28.754a1.483,1.483,0,0,1,1.411-1.494l19.387-.54a1.583,1.583,0,0,1,1.632,1.593Z" transform="translate(-1997.75 -1967.121)" fill="#2274a4"/>
    <path id="Path_320" data-name="Path 320" d="M2356.73,2612.56l18.39.871,20.8-.579-21.323-.7Z" transform="translate(-1733.029 -1957.165)" fill="url(#linear-gradient-55)"/>
    <path id="Path_321" data-name="Path 321" d="M2718.48,2622.86l-15.183.423a1.634,1.634,0,0,0-1.568,1.635,10.969,10.969,0,0,0,.9,4.464c2.162,4.9,6.993,5.076,8,9.57.837,3.744-2.129,5.355-2.442,10.14a12.819,12.819,0,0,0,.4,4.058,1.646,1.646,0,0,0,1.68,1.234l8.359-.5a1.614,1.614,0,0,0,1.52-1.619v-27.791a1.61,1.61,0,0,0-1.66-1.617Z" transform="translate(-2055.62 -1967.168)" fill="#92cff3" opacity="0.3"/>
    <path id="Path_322" data-name="Path 322" d="M2743.71,2657.5l7.136-.425V2625.82l-7.136.2Z" transform="translate(-2094.873 -1969.938)" fill="#5aabdb"/>
    <path id="Path_323" data-name="Path 323" d="M2748.66,2657.48l6.815-.405V2625.82l-6.815.19Z" transform="translate(-2099.501 -1969.938)" fill="#034267"/>
    <path id="Path_324" data-name="Path 324" d="M2445.31,2621.8v31.1l-6.538-1.109V2621.62l2.083-.04Z" transform="translate(-1809.74 -1965.973)" fill="#034267"/>
    <path id="Path_325" data-name="Path 325" d="M2482.78,2614.01l19.9,1.132h-7.153l-17.393-1.026Z" transform="translate(-1846.543 -1958.895)" fill="#034267"/>
    <path id="Path_326" data-name="Path 326" d="M2697.45,2472.47c.463-2.838.8-4.912,2.656-6.827a5.417,5.417,0,0,1,3.034-1.924c1.609-.269,3.664.366,4.226,1.68.535,1.248-.725,2.062-.189,3.5s2.1,1.409,2.274,2.573c.145.985-.817,2.1-1.788,2.628-1.678.9-2.63-.368-5.906-.163-2.258.142-3.561.857-4.172.135C2697.3,2473.72,2697.33,2473.24,2697.45,2472.47Z" transform="translate(-2051.534 -1818.305)" fill="#2274a4"/>
    <g id="Group_43" data-name="Group 43" transform="translate(645.87 650.931)" opacity="0.3">
      <path id="Path_327" data-name="Path 327" d="M2707.04,2551.7c-2.023-.774-3.06-2.457-3.956-2.059-.8.354-.31,1.832-1.246,3.035-.855,1.1-2.422,1.36-3.815,1.36a.9.9,0,0,0,.185.374c.611.721,1.914.006,4.172-.136,3.277-.205,4.229,1.068,5.907.163a3.288,3.288,0,0,0,1.8-2.382,6.511,6.511,0,0,1-3.047-.355Z" transform="translate(-2698.021 -2549.586)" fill="#034267"/>
    </g>
    <path id="Path_328" data-name="Path 328" d="M2491.26,2421.64c1.364-1.074,2.793.124,4.47-1.057,1.7-1.2,1.2-3.114,2.52-3.658,1.529-.632,3.793,1.3,4.877,2.52,2.752,3.107,4.045,8.625,1.869,10.566-.816.728-3.128.428-7.719-.2-5.247-.72-6-1.234-6.5-1.912C2489.42,2426.08,2489.72,2422.85,2491.26,2421.64Z" transform="translate(-1857.561 -1774.495)" fill="url(#linear-gradient-56)"/>
    <g id="Group_44" data-name="Group 44" transform="translate(632.351 646.791)" opacity="0.3">
      <path id="Path_329" data-name="Path 329" d="M2499.86,2488.53c-.756-.239-1.1.627-2.655.974-.285.065-3.026.637-4.5-1.083a3.727,3.727,0,0,1-.826-2.574,2.158,2.158,0,0,0-.637.353c-1.541,1.215-1.841,4.438-.488,6.258.5.676,1.257,1.191,6.5,1.912,4.591.63,6.9.93,7.719.2a2.68,2.68,0,0,0,.3-.325,4.543,4.543,0,0,1-3.091-1.114C2500.58,2491.58,2501.15,2488.94,2499.86,2488.53Z" transform="translate(-2489.896 -2485.85)" fill="#034267"/>
    </g>
    <path id="Path_330" data-name="Path 330" d="M2451.19,2619.24l-6.978.264-6.716-.318,2.172-.041,9.508-.169Z" transform="translate(-1808.543 -1963.542)" fill="#034267"/>
  </g>
</svg>
