<svg xmlns="http://www.w3.org/2000/svg" width="1313" height="325" viewBox="0 0 1313 325">
  <g id="Group_31" data-name="Group 31" transform="translate(-426 -479)">
    <g id="Rectangle_153" data-name="Rectangle 153" transform="translate(426 479)" fill="#fff" stroke="#707070" stroke-width="1">
      <rect width="1313" height="325" stroke="none"/>
      <rect x="0.5" y="0.5" width="1312" height="324" fill="none"/>
    </g>
    <text id="survived_not_only_five_centuries" data-name="survived not only five centuries" transform="translate(655 566)" fill="#272222" font-size="28" font-family="Segoe UI" font-weight="600"><tspan x="0" y="0">Disassemble/move bed frame and mattress</tspan></text>
    <text id="Rs_2876" data-name="Rs 2876" transform="translate(1588 762)" font-size="32" font-family="Segoe UI" font-weight="700"><tspan x="0" y="0">Rs 2876</tspan></text>
    <g id="Ellipse_7" data-name="Ellipse 7" transform="translate(455 513)" fill="#747171" stroke="#707070" stroke-width="1">
      <circle cx="77.5" cy="77.5" r="77.5" stroke="none"/>
      <circle cx="77.5" cy="77.5" r="77" fill="none"/>
    </g>
    <path id="Rectangle_7" data-name="Rectangle 7" d="M0,0H252V40H40A40,40,0,0,1,0,0Z" transform="translate(1487 479)" fill="#da2b39"/>
    <text id="Task_Completed" data-name="Task Completed" transform="translate(1540 508)" fill="#fff" font-size="20" font-family="Segoe UI" font-weight="600"><tspan x="0" y="0">TASK COMPLETED</tspan></text>
    <path id="Path_34" data-name="Path 34" d="M3.046,9.681H4.67a1.67,1.67,0,0,1,1.67,1.67v.835a1.67,1.67,0,0,0,1.67,1.67,1.67,1.67,0,0,1,1.67,1.67v2.459m-2.5-14.2V5.088A2.088,2.088,0,0,0,9.263,7.176h.418a1.67,1.67,0,0,1,1.67,1.67,1.67,1.67,0,0,0,3.34,0,1.67,1.67,0,0,1,1.67-1.67h.889M13.021,17.6V15.527a1.67,1.67,0,0,1,1.67-1.67H17.25m.782-3.34A7.516,7.516,0,1,1,10.516,3a7.516,7.516,0,0,1,7.516,7.517Z" transform="translate(652 598.528)" fill="none" stroke="#000" stroke-linecap="round" stroke-linejoin="round" stroke-width="2"/>
    <path id="Path_35" data-name="Path 35" d="M7.176,6.34V3m6.681,3.34V3M6.34,9.681h8.351M4.67,18.032H16.362a1.67,1.67,0,0,0,1.67-1.67V6.34a1.67,1.67,0,0,0-1.67-1.67H4.67A1.67,1.67,0,0,0,3,6.34V16.362A1.67,1.67,0,0,0,4.67,18.032Z" transform="translate(812.698 596.502)" fill="none" stroke="#000" stroke-linecap="round" stroke-linejoin="round" stroke-width="2"/>
    <path id="Path_36" data-name="Path 36" d="M10.516,7.176v3.34l2.505,2.505m5.011-2.505A7.516,7.516,0,1,1,10.516,3,7.516,7.516,0,0,1,18.032,10.516Z" transform="translate(1045.565 596.711)" fill="none" stroke="#000" stroke-linecap="round" stroke-linejoin="round" stroke-width="2"/>
    <text id="Remote" transform="translate(695.101 614.018)" fill="#272222" font-size="18" font-family="Segoe UI" font-weight="600"><tspan x="0" y="0">Remote</tspan></text>
    <text id="Wed_26_January" data-name="Wed, 26 January" transform="translate(855.968 614.018)" fill="#272222" font-size="18" font-family="Segoe UI" font-weight="600"><tspan x="0" y="0">Wed, 26 January</tspan></text>
    <text id="Anytime" transform="translate(1088.867 614.018)" fill="#272222" font-size="18" font-family="Segoe UI" font-weight="600"><tspan x="0" y="0">Anytime</tspan></text>
    <g id="star_black_24dp_1_" data-name="star_black_24dp (1)" transform="translate(655 732.018)">
      <g id="Group_108" data-name="Group 108">
        <path id="Path_110" data-name="Path 110" d="M0,0H33.116V33.116H0Z" fill="none"/>
        <path id="Path_111" data-name="Path 111" d="M0,0H33.116V33.116H0Z" fill="none"/>
      </g>
      <g id="Group_109" data-name="Group 109" transform="translate(2.76 2.76)">
        <path id="Path_112" data-name="Path 112" d="M15.8,23.07l8.527,5.147-2.263-9.7L29.6,11.99l-9.921-.842L15.8,2l-3.877,9.148L2,11.99l7.534,6.527-2.263,9.7Z" transform="translate(-2 -2)" fill="#da2b39"/>
      </g>
    </g>
    <g id="star_black_24dp_1_2" data-name="star_black_24dp (1)" transform="translate(688.456 732.018)">
      <g id="Group_108-2" data-name="Group 108">
        <path id="Path_110-2" data-name="Path 110" d="M0,0H33.116V33.116H0Z" fill="none"/>
        <path id="Path_111-2" data-name="Path 111" d="M0,0H33.116V33.116H0Z" fill="none"/>
      </g>
      <g id="Group_109-2" data-name="Group 109" transform="translate(2.76 2.76)">
        <path id="Path_112-2" data-name="Path 112" d="M15.8,23.07l8.527,5.147-2.263-9.7L29.6,11.99l-9.921-.842L15.8,2l-3.877,9.148L2,11.99l7.534,6.527-2.263,9.7Z" transform="translate(-2 -2)" fill="#da2b39"/>
      </g>
    </g>
    <g id="star_black_24dp_1_3" data-name="star_black_24dp (1)" transform="translate(721.912 732.018)">
      <g id="Group_108-3" data-name="Group 108">
        <path id="Path_110-3" data-name="Path 110" d="M0,0H33.116V33.116H0Z" fill="none"/>
        <path id="Path_111-3" data-name="Path 111" d="M0,0H33.116V33.116H0Z" fill="none"/>
      </g>
      <g id="Group_109-3" data-name="Group 109" transform="translate(2.76 2.76)">
        <path id="Path_112-3" data-name="Path 112" d="M15.8,23.07l8.527,5.147-2.263-9.7L29.6,11.99l-9.921-.842L15.8,2l-3.877,9.148L2,11.99l7.534,6.527-2.263,9.7Z" transform="translate(-2 -2)" fill="#da2b39"/>
      </g>
    </g>
    <g id="star_black_24dp_1_4" data-name="star_black_24dp (1)" transform="translate(753.974 732.018)">
      <g id="Group_108-4" data-name="Group 108">
        <path id="Path_110-4" data-name="Path 110" d="M0,0H33.116V33.116H0Z" fill="none"/>
        <path id="Path_111-4" data-name="Path 111" d="M0,0H33.116V33.116H0Z" fill="none"/>
      </g>
      <g id="Group_109-4" data-name="Group 109" transform="translate(2.76 2.76)">
        <path id="Path_112-4" data-name="Path 112" d="M15.8,23.07l8.527,5.147-2.263-9.7L29.6,11.99l-9.921-.842L15.8,2l-3.877,9.148L2,11.99l7.534,6.527-2.263,9.7Z" transform="translate(-2 -2)" fill="#da2b39"/>
      </g>
    </g>
    <g id="star_black_24dp_1_5" data-name="star_black_24dp (1)" transform="translate(786.036 732.018)">
      <g id="Group_108-5" data-name="Group 108">
        <path id="Path_110-5" data-name="Path 110" d="M0,0H33.116V33.116H0Z" fill="none"/>
        <path id="Path_111-5" data-name="Path 111" d="M0,0H33.116V33.116H0Z" fill="none"/>
      </g>
      <g id="Group_109-5" data-name="Group 109" transform="translate(2.76 2.76)">
        <path id="Path_112-5" data-name="Path 112" d="M15.8,23.07l8.527,5.147-2.263-9.7L29.6,11.99l-9.921-.842L15.8,2l-3.877,9.148L2,11.99l7.534,6.527-2.263,9.7Z" transform="translate(-2 -2)" fill="#da2b39"/>
      </g>
    </g>
    <text id="_Lorem_ipsum_dolor_sit_amet_consectetur_adipiscing_elit_sed_do_eiusmod_tempor_incididunt_ut_labore_et_dolore_magna_aliqua._Pulvinar_pellentesque_ha" data-name="&quot; Lorem ipsum dolor sit amet, consectetur adipiscing elit, sed do eiusmod tempor incididunt ut labore et dolore magna aliqua. Pulvinar pellentesque ha" transform="translate(655 676)" fill="#707070" font-size="20" font-family="Segoe UI"><tspan x="0" y="0">&quot; Lorem ipsum dolor sit amet, consectetur adipiscing elit, sed do eiusmod tempor incididunt ut labore et dolore magna </tspan><tspan x="0" y="27">aliqua. Pulvinar pellentesque habitant morbi tristique.&quot;</tspan></text>
  </g>
</svg>
