<svg xmlns="http://www.w3.org/2000/svg" width="40.703" height="50.321" viewBox="0 0 40.703 50.321">
  <g id="Group_29" data-name="Group 29" transform="translate(0.003 0.002)" opacity="0.5">
    <path id="Path_141" data-name="Path 141" d="M2019.09,1688.87h-28.745v7.189H1982.5v7.189h5.254v7.186h-7.267v7.189h7.267v7.183H1982.5V1732h6.308v7.189h28.745a2.077,2.077,0,0,0,2.089-2.068v-3.054a2.077,2.077,0,0,0-2.09-2.068h-2.129a2.077,2.077,0,0,1-2.09-2.068v-3.057a2.077,2.077,0,0,1,2.089-2.065h1.063a2.08,2.08,0,0,0,2.093-2.068v-3.051a2.077,2.077,0,0,0-2.093-2.065H2013.4a2.08,2.08,0,0,1-2.089-2.068V1712.5a2.077,2.077,0,0,1,2.089-2.065h3.091a2.08,2.08,0,0,0,2.093-2.068v-3.051a2.08,2.08,0,0,0-2.093-2.068h-1.063a2.077,2.077,0,0,1-2.09-2.065v-3.057a2.08,2.08,0,0,1,2.09-2.068h3.669a2.077,2.077,0,0,0,2.093-2.065v-3.057a2.08,2.08,0,0,0-2.1-2.068Z" transform="translate(-1980.49 -1688.87)" fill="#f99247"/>
  </g>
</svg>
