<svg xmlns="http://www.w3.org/2000/svg" width="40.238" height="71.902" viewBox="0 0 40.238 71.902">
  <g id="Group_28" data-name="Group 28" transform="translate(0 -0.002)" opacity="0.5">
    <path id="Path_140" data-name="Path 140" d="M1739.63,1662.2v7.186h7.186v7.186h-5.183v7.189h6.237v7.193h28.405a2.068,2.068,0,0,0,2.071-2.068v-3.06a2.059,2.059,0,0,0-2.071-2.065h-2.1a2.059,2.059,0,0,1-2.065-2.065v-3.06a2.052,2.052,0,0,1,2.065-2.065h1.054a2.068,2.068,0,0,0,2.071-2.068v-3.048a2.068,2.068,0,0,0-2.071-2.071h-3.051a.64.64,0,0,1-.108,0,2,2,0,0,1-.887-.247,2.062,2.062,0,0,1-1.07-1.811v-3.057a2.068,2.068,0,0,1,1.069-1.811,2.044,2.044,0,0,1,.887-.247.639.639,0,0,1,.108,0h3.051a2.017,2.017,0,0,0,1-.256,2.068,2.068,0,0,0,1.073-1.814v-3.048a2.07,2.07,0,0,0-1.076-1.811,2.034,2.034,0,0,0-1-.254h-1.054a2.059,2.059,0,0,1-2.065-2.065V1649.9a2.058,2.058,0,0,1,2.065-2.065h3.629a2.065,2.065,0,0,0,2.068-2.065v-3.06a2.065,2.065,0,0,0-2.068-2.065h-3.629a2.059,2.059,0,0,1-2.065-2.065v-3.057a2.057,2.057,0,0,1,.618-1.465,2.169,2.169,0,0,1,.467-.352,2.069,2.069,0,0,1,1-.253,2.059,2.059,0,0,0,2.071-2.065v-3.078a2.059,2.059,0,0,0-2.071-2.065,2.031,2.031,0,0,1-1-.26,2.068,2.068,0,0,1-1.063-1.811v-3.057a2.068,2.068,0,0,0-2.065-2.065h-28.408v7.192h4.129v7.183h-4.129v7.193h7.761v7.189h-7.761V1655h5.183v7.183Z" transform="translate(-1739.63 -1619.05)" fill="#f99247"/>
  </g>
</svg>
