<svg xmlns="http://www.w3.org/2000/svg" width="5.766" height="4.939" viewBox="0 0 5.766 4.939">
  <path id="Path_63" data-name="Path 63" d="M965.23,843.226a.26.26,0,0,1-.022-.309c.059-.127.182-.189.272-.139l3.814,2.089a.824.824,0,0,0,1.079-.473,1.277,1.277,0,0,0,.155-.77.68.68,0,0,0-.328-.541l-3.913-2.123a.241.241,0,0,1-.052-.309c.062-.127.182-.189.272-.139l3.913,2.145a1.06,1.06,0,0,1,.5.816,1.888,1.888,0,0,1-.235,1.159,1.255,1.255,0,0,1-1.607.723l-3.817-2.093Z" transform="translate(-965.167 -840.495)" fill="#f07162"/>
</svg>
