<svg xmlns="http://www.w3.org/2000/svg" width="5.976" height="5.208" viewBox="0 0 5.976 5.208">
  <path id="Path_62" data-name="Path 62" d="M967.919,835.1a.266.266,0,0,1-.025-.309c.062-.127.185-.189.275-.139l3.987,2.2c.39.207.85,0,1.119-.5a1.371,1.371,0,0,0,.164-.841.754.754,0,0,0-.368-.584l-4.244-2.222a.241.241,0,0,1-.056-.309c.062-.127.182-.189.275-.142l4.231,2.235a1.1,1.1,0,0,1,.538.856,2,2,0,0,1-.238,1.236c-.393.736-1.088,1.051-1.654.754l-3.987-2.2Z" transform="translate(-967.856 -832.238)" fill="#f07162"/>
</svg>
