<svg xmlns="http://www.w3.org/2000/svg" width="6.177" height="4.927" viewBox="0 0 6.177 4.927">
  <path id="Path_61" data-name="Path 61" d="M975.518,820.435a.259.259,0,0,1-.025-.294c.059-.127.182-.189.272-.142l4.136,2.164a.927.927,0,0,0,1.171-.544,1.381,1.381,0,0,0,.158-.844.733.733,0,0,0-.371-.578l-3.793-1.957a.238.238,0,0,1-.056-.309c.059-.127.182-.192.272-.145l3.793,1.953a1.119,1.119,0,0,1,.544.85,2.022,2.022,0,0,1-.232,1.236,1.352,1.352,0,0,1-1.7.8l-4.136-2.164Z" transform="translate(-975.459 -817.771)" fill="#f07162"/>
</svg>
