<svg xmlns="http://www.w3.org/2000/svg" width="6.194" height="4.867" viewBox="0 0 6.194 4.867">
  <path id="Path_59" data-name="Path 59" d="M970.49,827.554a.253.253,0,0,1-.025-.287c.059-.13.179-.2.272-.148L974.9,829.2a.936.936,0,0,0,1.168-.563,1.369,1.369,0,0,0,.151-.841.73.73,0,0,0-.377-.572l-3.823-1.892a.238.238,0,0,1-.059-.309c.059-.127.179-.192.272-.148l3.82,1.882a1.1,1.1,0,0,1,.553.841,2,2,0,0,1-.219,1.236,1.365,1.365,0,0,1-1.7.828l-4.167-2.086Z" transform="translate(-970.432 -824.861)" fill="#f07162"/>
</svg>
