<svg xmlns="http://www.w3.org/2000/svg" width="181.505" height="80.591" viewBox="0 0 181.505 80.591">
  <path id="Path_133" data-name="Path 133" d="M2252.2,1672.28s.247-12.03-11.782-5.894c0,0-1.1-10.676-8.837-3.681,0,0,1.351-31.3-21.723-30.93,0,0-11.047-1.839-17.673,12.521,0,0-5.156-11.538-13.872-.247,0,0,12.642-27.37,5.4-30.436S2169.72,1626,2169.72,1626s7.109-32.893-5.4-34.244-13.625,18.289-13.625,18.289-4.911-14.116-11.415-9.452-.618,19.884-.618,19.884-7-12.765-12.642-4.417,0,22.458,0,22.458-4.049-8.964-11.782-5.152-6.259,16.073-6.259,16.073-9.328-7.978-15.1.244c0,0-8.593-15.343-15.454-2.822a57.149,57.149,0,0,0-6.729,25.262Z" transform="translate(-2070.696 -1591.689)" fill="#7fc6a6"/>
</svg>
