<svg xmlns="http://www.w3.org/2000/svg" width="6.099" height="4.68" viewBox="0 0 6.099 4.68">
  <path id="Path_65" data-name="Path 65" d="M989.652,834.8a.269.269,0,0,0,.192-.235c.025-.145-.043-.272-.148-.284L985.06,832.9a.966.966,0,0,1-.686-1.159,1.446,1.446,0,0,1,.362-.816.769.769,0,0,1,.661-.278l4.408.563a.262.262,0,0,0,.235-.238c.025-.145-.043-.272-.148-.284l-4.408-.562a1.159,1.159,0,0,0-.967.408,2.108,2.108,0,0,0-.529,1.193,1.405,1.405,0,0,0,.986,1.694l4.655,1.382Z" transform="translate(-983.946 -830.125)" fill="#f07162"/>
</svg>
