<svg xmlns="http://www.w3.org/2000/svg" width="16.594" height="18.972" viewBox="0 0 16.594 18.972">
  <path id="Path_67" data-name="Path 67" d="M1452.29,737.572a1.054,1.054,0,0,0-1.4-.309l-2.955,1.7a.247.247,0,0,1-.291-.028h0a.25.25,0,0,1,0-.386l3.994-3.066a.828.828,0,0,0,.043-1.329h0a1.335,1.335,0,0,0-1.623-.052l-4.071,3.128a.247.247,0,0,1-.309,0l-.065-.056a.247.247,0,0,1-.022-.352l3.752-4.284a1.054,1.054,0,0,0-.025-1.431,1.029,1.029,0,0,0-1.5.049l-3.774,4.312a.25.25,0,0,1-.352.022l-.2-.176a.247.247,0,0,1-.043-.328l2.958-4.426a1.054,1.054,0,0,0-.21-1.416,1.026,1.026,0,0,0-1.481.244s-4.874,6.506-5.718,7.461l-.748-2.878a1.029,1.029,0,0,0-1.094-.958h0a1.029,1.029,0,0,0-.958,1.094l-.334,6.615c.025.371.581.859,1.122,1.147,4.247,4.327,4.945,4.97,6.182,6.033l4.108-5.02a15.513,15.513,0,0,1,4.25-3.607l.4-.232a1.029,1.029,0,0,0,.359-1.471Z" transform="translate(-1435.864 -728.93)" fill="#fe9f73"/>
</svg>
