<svg xmlns="http://www.w3.org/2000/svg" width="181.51" height="80.584" viewBox="0 0 181.51 80.584">
  <path id="Path_40" data-name="Path 40" d="M513.119,1670.01s-.244-12.03,11.782-5.894c0,0,1.107-10.676,8.84-3.681,0,0-1.351-31.3,21.723-30.93,0,0,11.047-1.839,17.674,12.521,0,0,5.156-11.538,13.869-.247,0,0-12.642-27.37-5.4-30.436s13.992,12.394,13.992,12.394-7.109-32.893,5.4-34.244,13.625,18.289,13.625,18.289,4.908-14.116,11.415-9.452.618,19.884.618,19.884,7-12.765,12.642-4.417,0,22.458,0,22.458,4.052-8.964,11.782-5.152,6.262,16.073,6.262,16.073,9.328-7.978,15.1.244c0,0,8.593-15.343,15.454-2.822a57.179,57.179,0,0,1,6.732,25.262Z" transform="translate(-513.119 -1589.426)" fill="#7fc6a6"/>
</svg>
