<svg xmlns="http://www.w3.org/2000/svg" width="11.864" height="10.287" viewBox="0 0 11.864 10.287">
  <path id="Path_86" data-name="Path 86" d="M1236.47,736.836a4.017,4.017,0,0,0-2.346-5h0c-3-1.678-7.109-.878-8.25.34-2.309,2.439-.142,6.556-.142,6.556a5.17,5.17,0,0,1,.278-1.345c.371.983,1.045,2.711,1.592,3.78l.825-.155a5.031,5.031,0,0,0-.071-.643,13.76,13.76,0,0,1,0-5.214,9.325,9.325,0,0,1,3.286-.371,6.989,6.989,0,0,1,3.035.76l1.351.967a3.836,3.836,0,0,1,.458.522,1.014,1.014,0,0,0-.05-.229Z" transform="translate(-1224.81 -730.88)"/>
</svg>
