<svg xmlns="http://www.w3.org/2000/svg" width="121.289" height="78.819" viewBox="0 0 121.289 78.819">
  <path id="Path_139" data-name="Path 139" d="M1739.58,1646.73v7.186h.016v.253h7.165v6.933h-5.183v7.189h6.234v7.189h96.865v-6.93h14.675v-7.45h-6.244v-6.676h5.19v-7.446h-7.186v-7.18h7.186v-7.443h-5.19v-6.939h7.761v-7.443h-7.761v-6.933h4.136v-7.44h-4.136v-6.939h-61.966v7.193h4.129v6.939h-4.108v.25h-.022v6.927h-30.927v-3.582h5.183v-7.193h-.025v-.253h-7.736v-3.347h-16.06v7.193h4.129v6.93H1741.6v.253h-.022v7.193h7.758v6.936H1741.6v.253h-.022v7.193h5.183v6.927H1739.6v.257Z" transform="translate(-1739.58 -1596.661)" fill="#f97923"/>
</svg>
