<svg xmlns="http://www.w3.org/2000/svg" width="11.233" height="20.132" viewBox="0 0 11.233 20.132">
  <path id="Path_122" data-name="Path 122" d="M1045.66,621.588a20.3,20.3,0,0,1,4.083-.068,5.936,5.936,0,0,1,4.454,2.031,6.07,6.07,0,0,1,1.1,4.309,6.784,6.784,0,0,1-1.6,4.185,6.123,6.123,0,0,1-5.171,1.808,5.931,5.931,0,0,1-1.685-.309l-.618,8.036-2.111-.164Zm1.351,9.841a5.824,5.824,0,0,0,1.728.346c2.55.2,4.222-1.2,4.438-3.963.21-2.649-1.218-4.052-3.545-4.235a7.25,7.25,0,0,0-2.006.053Z" transform="translate(-1044.112 -621.448)" fill="#ef3a4c"/>
</svg>
