<svg xmlns="http://www.w3.org/2000/svg" width="60.332" height="62.751" viewBox="0 0 60.332 62.751">
  <path id="Path_100" data-name="Path 100" d="M1161.03,800.512c-1.685-1.715-10.7-2.708-10.7-2.708l-10.818-.074c-.272,0-5.112.1-9.341.5,0,0-2.083.25-2.216.309a9.92,9.92,0,0,0-4.367,2.182h0l-21.547,15.5s2.633,11.745,7.628,16.19c.309-.253,10.84-6.333,16.431-9.582l-.182,2.68L1124.9,858.75c4.123,1.521,33.347,2.473,37.437.986C1162.34,859.736,1162.71,802.227,1161.03,800.512Z" transform="translate(-1102.041 -797.73)" fill="#ea636e"/>
</svg>
