<svg xmlns="http://www.w3.org/2000/svg" width="144.199" height="122.052" viewBox="0 0 144.199 122.052">
  <path id="Path_124" data-name="Path 124" d="M1610.75,500.238A7.71,7.71,0,0,1,1608.4,490l12.221-21.849a1.836,1.836,0,0,0-.238-2.123h0a1.833,1.833,0,0,0-2.831.13l-22.143,29.6a6.08,6.08,0,0,1-9.758.439h0a9.8,9.8,0,0,1-.538-11.891l22.563-30.179a1.836,1.836,0,0,0-.1-2.327l-.414-.461a1.836,1.836,0,0,0-2.593-.136l-31.091,27.948a7.722,7.722,0,0,1-10.509-.031,7.554,7.554,0,0,1,.219-11.028l31.286-28.127a1.83,1.83,0,0,0,.136-2.59l-1.313-1.465a1.833,1.833,0,0,0-2.4-.284l-32.216,22.128a7.723,7.723,0,0,1-10.416-1.4,7.554,7.554,0,0,1,1.651-10.9s47.315-36.377,54.245-42.67l-21.2-5.2a7.554,7.554,0,0,1-7.14-7.944h0a7.557,7.557,0,0,1,7.943-7.14l48.527-3.075c2.714.145,6.364,4.182,8.525,8.129,32.232,30.776,42.1,30.643,50.026,39.742l-7.158,6.169-34.472,29.6a113.245,113.245,0,0,0-26.059,31.527l-1.682,3.014a7.551,7.551,0,0,1-10.707,2.652Z" transform="translate(-1546.643 -379.42)" fill="#fe9f73"/>
</svg>
