<svg xmlns="http://www.w3.org/2000/svg" width="38.29" height="38.29" viewBox="0 0 38.29 38.29">
  <g id="perm_identity_black_24dp_1_" data-name="perm_identity_black_24dp (1)" opacity="0.7">
    <path id="Path_5" data-name="Path 5" d="M0,0H38.29V38.29H0Z" fill="none"/>
    <path id="Path_6" data-name="Path 6" d="M16.763,7.191a3.191,3.191,0,1,1-3.191,3.191,3.191,3.191,0,0,1,3.191-3.191m0,14.359c4.308,0,9.253,2.058,9.572,3.191v1.6H7.191V24.756c.319-1.149,5.265-3.207,9.572-3.207m0-17.55a6.382,6.382,0,1,0,6.382,6.382A6.382,6.382,0,0,0,16.763,4Zm0,14.359C12.5,18.359,4,20.5,4,24.74v4.786H29.527V24.74c0-4.24-8.5-6.381-12.764-6.381Z" transform="translate(2.382 2.382)" fill="#2f2f2f"/>
  </g>
</svg>
