<svg xmlns="http://www.w3.org/2000/svg" width="305.5" height="195.725" viewBox="0 0 305.5 195.725">
  <g id="working" transform="translate(-247.91 -193.586)">
    <path id="Path_167" data-name="Path 167" d="M970.847,1204.26c-10.294-1.658-18.066,1.948-25.539.913-5.96-.827-9.066-6.851-17.074-8.563a33.357,33.357,0,0,0,5.185-3.55c2.061-1.979,5.024-5.956,0-6.113-3.613-.112-6.427,5.905-7.721,9.286a24.619,24.619,0,0,0-3.868,0c1.653-5.328,4.871-15.641,5.666-17.621,1.066-2.7-3.434-11.684-8.746-1.6-3.727,7.074-1.2,15.251.647,19.5a29.581,29.581,0,0,0-4.141.983c-4.389-10.015-18.353-38.567-33.491-35.013-16.5,3.867,18.853,23.062,27.769,37.3-7.284,3.376-13.684,7.478-24.749,4.483-29.4-7.96-31.735,9.95-31.735,9.95l131.394.044a17.784,17.784,0,0,0-13.6-10Z" transform="translate(-553.634 -825.646)" fill="#acd29a"/>
    <path id="Path_168" data-name="Path 168" d="M1382.68,962.474c.134,1.264,1.924,1.218,3.946.913s1.5.229,4.343.173,3.792-1.026,3.915-1.437c.111-.364-1.268-.623-2.74-.93l-.559-.119c-1.664-.365-2.8-1.565-4.247-2.6-1.37-.977-2.3-5.458-2.3-5.458L1381,953s1.27,4.052,1.932,5.462c.388.828-.026,1.892-.152,2.69a4.947,4.947,0,0,0-.1,1.322Z" transform="translate(-1001.212 -648.308)" fill="#ffb07b"/>
    <path id="Path_169" data-name="Path 169" d="M1395.99,1008.77c2.021-.3,1.5.228,4.343.174s3.792-1.026,3.915-1.437c.111-.364-1.268-.623-2.74-.93l-.017.027a7.975,7.975,0,0,1-4.145.886c-1.914-.128-3.886-.86-5.208-.959a4.928,4.928,0,0,0-.09,1.324C1392.17,1009.12,1393.96,1009.07,1395.99,1008.77Z" transform="translate(-1010.569 -693.689)" fill="#365da4"/>
    <path id="Path_170" data-name="Path 170" d="M1184.45,955.109c.088,1.268,1.877,1.291,3.909,1.066s1.49.285,4.334.336,3.827-.883,3.967-1.288c.123-.361-1.244-.67-2.708-1.034-.184-.044-.368-.093-.552-.14-1.65-.428-2.74-1.675-4.148-2.754-1.333-1.029-.236-5.3-.236-5.3l-3.067-1.449s-.422,4.4-.65,6.622a25.533,25.533,0,0,1-.706,2.62A4.974,4.974,0,0,0,1184.45,955.109Z" transform="translate(-834.583 -641.144)" fill="#ffb07b"/>
    <path id="Path_171" data-name="Path 171" d="M1188.36,1007.63c2.032-.227,1.49.285,4.334.336s3.827-.883,3.967-1.288c.123-.361-1.244-.67-2.708-1.034l-.017.027a7.973,7.973,0,0,1-4.177.728c-1.907-.2-3.852-1-5.167-1.152a4.976,4.976,0,0,0-.141,1.318C1184.53,1007.84,1186.33,1007.86,1188.36,1007.63Z" transform="translate(-834.582 -692.604)" fill="#365da4"/>
    <path id="Path_172" data-name="Path 172" d="M1194.22,587.559s-.849,4.11-1.7,24.975a67.289,67.289,0,0,0-2.724,8.586c-1.145,4.719-1.952,24.43-1.952,24.43a2.386,2.386,0,0,0,1.842.742,4.007,4.007,0,0,0,2.013-.428s7.957-25.813,11.83-35.834,6.144-24.33,6.144-24.33Z" transform="translate(-837.458 -336.923)" fill="#2274a4"/>
    <path id="Path_173" data-name="Path 173" d="M1292.59,569.983s.627,4.153,7.052,24.019a67.214,67.214,0,0,0,.419,9c.562,4.827,7.065,23.834,7.065,23.834a3.937,3.937,0,0,0,2.159-.042,6.817,6.817,0,0,0,2.149-1.041s-2.493-27.166-2.329-37.906-2.661-24.953-2.661-24.953Z" transform="translate(-926.261 -317.585)" fill="#2274a4"/>
    <path id="Path_174" data-name="Path 174" d="M1249.78,224.432a5.9,5.9,0,0,0-3.118-.761,1.484,1.484,0,0,1,.681-.282,4.894,4.894,0,0,0-1.764.367c-7.348-3.262-9.079,7.712-9.049,10.283s-.1,5.523-3.958,7.634c-7.586,4.156-1.771,12.363-1.771,12.363-1.37,3.918,3.69,8.718,3.69,8.718-.087-2.081,9.466-15.337,14.615-18.362a14.4,14.4,0,0,0,1.936-5.109,13.676,13.676,0,0,1-1.254,4.648C1254.2,240.258,1252.44,226.129,1249.78,224.432Z" transform="translate(-872.069 -29.57)" fill="#a70e1b"/>
    <path id="Path_175" data-name="Path 175" d="M1317.45,312.181c.026.012-2.409,1.277-4.241.776-1.724-.47-2.85-2.7-2.826-2.71.729-.145.941-1.148.924-5.458l.33.065,5.348,1.066.2.038s-.127,1.746-.131,3.39c0,.349,0,.691.017,1.012C1317.11,311.31,1317.22,312.07,1317.45,312.181Z" transform="translate(-941.349 -98.777)" fill="#ffb07b"/>
    <path id="Path_176" data-name="Path 176" d="M1323.22,311.141c0,.349,0,.691.017,1.012-3.11-.125-4.9-3.683-5.581-5.243l5.5.8.2.038S1323.23,309.5,1323.22,311.141Z" transform="translate(-947.515 -100.574)" fill="#ea8e50"/>
    <path id="Path_177" data-name="Path 177" d="M1303.37,237.786a16.286,16.286,0,0,1-2.017-4.768c-.28-1.57.519-7.385,6.365-6.546a7.941,7.941,0,0,1,3.293,1.245c1.27.857,3.1,2.707,1.052,7.782l-.531,1.714Z" transform="translate(-933.649 -32.312)" fill="#b03641"/>
    <path id="Path_178" data-name="Path 178" d="M1320.15,258.123s-7.283-.962-6.613-5.488.179-7.7,4.858-7.275,5.328,2.284,5.468,3.848S1322.06,258.257,1320.15,258.123Z" transform="translate(-943.983 -48.362)" fill="#ffb07b"/>
    <path id="Path_179" data-name="Path 179" d="M1310.06,241.228s-2.78,5.013-5.949,5.343-4.371-.685-4.371-.685a8.743,8.743,0,0,0,3.588-4.686S1308.94,238.476,1310.06,241.228Z" transform="translate(-932.323 -43.848)" fill="#b03641"/>
    <path id="Path_180" data-name="Path 180" d="M1363.87,246.6a6.485,6.485,0,0,1,1.5,2.612c.19,1.206,0,3.6.7,3.625,0,0,2.036-3.384.656-5.677C1365.26,244.736,1363.87,246.6,1363.87,246.6Z" transform="translate(-986.69 -48.868)" fill="#b03641"/>
    <path id="Path_181" data-name="Path 181" d="M1233.18,530.632a11.371,11.371,0,0,0-9.353-5.916,10.633,10.633,0,0,0-6.777,2.37,1.784,1.784,0,0,1-2.866-1.014l-3.133-14.552a3.93,3.93,0,0,0-4.669-3.014l-50.68,10.908a3.841,3.841,0,0,0-2.946,4.567l10.9,50.625a3.987,3.987,0,0,0,2.69,2.96l-.665.189h1.978a4.019,4.019,0,0,0,.729-.087l1.1-.238h0l13.008-2.8a2.456,2.456,0,0,0,1.34-4.01,10.539,10.539,0,1,1,17.659-2.793,1.675,1.675,0,0,0,.493,1.979l-.761.37h1.758a1.694,1.694,0,0,0,.4-.038l15.528-3.349a3.931,3.931,0,0,0,3.017-4.671l-3.113-14.462a1.842,1.842,0,0,1,2.259-2.171,10.559,10.559,0,0,0,12.1-14.853Z" transform="translate(-807.641 -271.405)" fill="#632b30"/>
    <path id="Path_182" data-name="Path 182" d="M1212.07,524.716a10.633,10.633,0,0,0-6.778,2.37,1.784,1.784,0,0,1-2.866-1.014L1199.3,511.52a3.931,3.931,0,0,0-4.669-3.014l-50.68,10.908a3.839,3.839,0,0,0-2.946,4.567l10.9,50.625a3.987,3.987,0,0,0,4.736,3.058l14.111-3.045a2.455,2.455,0,0,0,1.34-4.01,10.539,10.539,0,1,1,17.659-2.794,1.682,1.682,0,0,0,1.9,2.306l15.528-3.349a3.931,3.931,0,0,0,3.016-4.671l-3.112-14.462a1.84,1.84,0,0,1,2.258-2.171,10.551,10.551,0,0,0,12.1-14.846A11.392,11.392,0,0,0,1212.07,524.716Z" transform="translate(-797.678 -271.405)" fill="#ac3a43"/>
    <path id="Path_183" data-name="Path 183" d="M1486.53,489.06s3.162.518,3.99,2.573-.329,3.448-.773,3.443a1.985,1.985,0,0,1-1.7-1.4C1487.65,492.609,1486.53,489.06,1486.53,489.06Z" transform="translate(-1090.677 -254.995)" fill="#ffb07b"/>
    <path id="Path_184" data-name="Path 184" d="M1200.66,549.31s3.549,0,4.826,2.093.263,3.829-.224,3.9a2.2,2.2,0,0,1-2.108-1.218C1202.53,553,1200.66,549.31,1200.66,549.31Z" transform="translate(-848.326 -306.073)" fill="#ffb07b"/>
    <path id="Path_185" data-name="Path 185" d="M1220.22,365.508c-.314-.067-1.69-.228-3.439-.5-3.223-.505-7.713-1.4-9.221-2.786a25.1,25.1,0,0,1-2.348-4.835,45.177,45.177,0,0,0-.79,12.39l-21.77,4.687c1.867-3.774,4.757-8.455,4.215-12.243-.2-1.4-.971-3.331-1.259-5.5-.023-.186-.044-.373-.061-.562-3.054,2.515-6.581,5.289-6.666,5.843-.14.93,2.238,11.224,2.238,11.224-.591,1.359-3.156,1.066-3.156,1.066-2.4-1.716-5.937-11.44-5.654-13.594s9.046-14.432,11.166-17.365c2.094-2.9,9.743-2.827,9.927-2.826h0c6.089,3.654,6.63.617,6.63.617s5.48,1.043,6.43,2.664,5.08,13.914,5.373,14.346c.609.906,10.609,4.527,10.789,5.576S1221.12,365.7,1220.22,365.508Z" transform="translate(-824.279 -129.057)" fill="#80bdcc"/>
    <path id="Path_186" data-name="Path 186" d="M1247.89,460l-7.592,1.626c1.891-3.763,4.375-8.452,3.832-12.217-.2-1.4-.659-3.068-.878-5.243-.021-.209-.058-.84-.058-.84s5.377,4.232,5.471,8.811A45.568,45.568,0,0,1,1247.89,460Z" transform="translate(-881.932 -216.227)" fill="#5f9aa8"/>
    <path id="Path_187" data-name="Path 187" d="M1400.3,438.564c-3.261-.505-7.808-1.4-9.333-2.786a25.461,25.461,0,0,1-2.377-4.841s-.35-3.832.652-3.689,2.475,6.939,3.527,7.368C1393.71,435,1398.91,437,1400.3,438.564Z" transform="translate(-1007.596 -202.59)" fill="#5f9aa8"/>
    <g id="man" transform="translate(426.616 233.573)">
      <path id="Path_188" data-name="Path 188" d="M2463.2,1434.02c-.457,1.55-2.588,2.588-2.868,4.476a4.108,4.108,0,0,1-.922,2.131h-6.61c.067-.364.356-.761,1.218-.942,1.836-.4,2.528-2.626,2.415-4.692a26.557,26.557,0,0,1,.017-2.707c.057-1.183.152-2.112.152-2.112l3.9-.913.41.527.393.507S2463.66,1432.47,2463.2,1434.02Z" transform="translate(-2336.465 -1285.639)" fill="#2c3a64"/>
      <path id="Path_189" data-name="Path 189" d="M2244.56,1468.78h-13.37a2.688,2.688,0,0,1,1.685-.839c2.056-.333,5.619-1.522,6.414-4.157.026-.084.049-.171.068-.259.63-2.81,5.22.862,5.22.862s.014.113.035.3A14.36,14.36,0,0,1,2244.56,1468.78Z" transform="translate(-2148.591 -1313.787)" fill="#2c3a64"/>
      <path id="Path_190" data-name="Path 190" d="M2245.85,1008.09s.7,8.7,1.522,19.148c1.113,14.2,2.45,31.64,2.587,34.943.23,5.738,1.148,14.919,1.148,14.919s2.178,2.18,6.546,1.262a150.283,150.283,0,0,0,5-26.962c.017-.228.033-.457.052-.685,1.032-14.112,2.637-43.825,2.637-43.825Z" transform="translate(-2161.02 -927.567)" fill="#2274a4"/>
      <path id="Path_191" data-name="Path 191" d="M2245.85,1008.06s.7,8.7,1.522,19.148l15.267,24.158c.017-.229.034-.457.052-.685,1.032-14.112,2.637-43.825,2.637-43.825Z" transform="translate(-2161.02 -927.542)" fill="#054e79"/>
      <path id="Path_192" data-name="Path 192" d="M2266.75,989.945s12.563,31.492,20.823,46.291,10.842,18.933,10.842,18.933,4.733-1.894,5.162-3.185c0,0-3.159-28.571-8.689-35.536-3.127-3.935-6.8-15.745-6.971-19.876s-1.117-12.3-1.117-12.3Z" transform="translate(-2178.737 -908.391)" fill="#2274a4"/>
      <path id="Path_193" data-name="Path 193" d="M2290.61,644.387a37.01,37.01,0,0,1-.577-5.252L2296.4,634a12.788,12.788,0,0,0,4.29,10.46s-8.494,4.18-13.4,2.632a11.761,11.761,0,0,1,3.32-2.705Z" transform="translate(-2196.15 -611.444)" fill="#935c2f"/>
      <path id="Path_194" data-name="Path 194" d="M2286.62,592.3s8.109,1.347,8.871-3.714,2.32-8.3-2.825-9.373-6.443.706-7.108,2.335S2284.53,591.81,2286.62,592.3Z" transform="translate(-2194.245 -564.715)" fill="#a16d3c"/>
      <path id="Path_195" data-name="Path 195" d="M2061.74,719.284l-1.726-1.066a4.365,4.365,0,0,0-5.829-1.2s-1.455.929-.479,1.707.715.338,2.069,1.464,3.1,1.522,4.237.913l1.449-.137Z" transform="translate(-1997.839 -681.272)" fill="#a16d3c"/>
      <path id="Path_196" data-name="Path 196" d="M2093.88,718.534c.444-1.391.656-1.522.656-1.522s13.96,1.65,15.277,1.748,19.594-3.669,19.594-3.669l8.636,10.49s-25.446.959-28.772.647c-5.5-.514-15.484-5.633-15.484-5.633a4.059,4.059,0,0,1,.093-2.061Z" transform="translate(-2032.026 -680.189)" fill="#d3782f"/>
      <path id="Path_197" data-name="Path 197" d="M2266.11,736.268c.024.54-1.09,1.134-1.575,1.352a33.888,33.888,0,0,1-10.872,3.137c-4.549.467-9.924-.556-11.768-.531a.788.788,0,0,1-.516-.2c-.124-.1-.222-5.655-.124-12.66,0-.271,0-.568.024-.837v-.1c.008-.729.019-1.471.035-2.219.046-2.048.122-4.15.212-6.242.132-3.078.315-6.1.569-8.787a50.878,50.878,0,0,1,1.028-6.945,16.956,16.956,0,0,1,5.31-8.483l1.7-1.5a8.041,8.041,0,0,0,5.286-.639c1.943-.959,4.057-1.991,4.4-1.746,2.621,1.959,4.386,6.406,5.29,12.058a62.183,62.183,0,0,1,.71,9.971q0,2.037-.124,4.127a135.609,135.609,0,0,0,.268,17.7C2266.03,734.816,2266.09,735.676,2266.11,736.268Z" transform="translate(-2157.089 -658.783)" fill="#e69d43"/>
      <path id="Path_198" data-name="Path 198" d="M1764.99,495.869l-51.278-8.149a4,4,0,0,0-4.576,3.32l-2.27,14.293a16.81,16.81,0,0,0,.064,2.522l1.848.276a2.5,2.5,0,0,0,.32.047h0a2.455,2.455,0,0,0,1.032-.14,10.568,10.568,0,1,1-3.78,17.519,1.661,1.661,0,0,0-1-.473h0l-1.935-.289-2.409,17.434a3.943,3.943,0,0,0,3.276,4.512l14.645,2.329a1.847,1.847,0,0,1,1.218,2.893,10.588,10.588,0,0,0,9.51,16.683,11.407,11.407,0,0,0,8.918-6.6,10.657,10.657,0,0,0,.237-7.195,1.789,1.789,0,0,1,1.979-2.314l14.739,2.341a3.941,3.941,0,0,0,4.511-3.273l8.152-51.336a3.848,3.848,0,0,0-3.2-4.4Z" transform="translate(-1699.076 -487.39)" fill="#054e79"/>
      <path id="Path_199" data-name="Path 199" d="M2260.56,768.31s-3.931,18.344-18.688,22.43c.045-2.048.122-4.15.211-6.242.133-3.078.315-6.1.569-8.787a4.966,4.966,0,0,1,.737-.315C2248.4,773.743,2260.56,768.31,2260.56,768.31Z" transform="translate(-2157.644 -725.307)" fill="#d3782f"/>
      <path id="Path_200" data-name="Path 200" d="M1726.19,560.2a10.658,10.658,0,0,0,.239-7.2,1.789,1.789,0,0,1,1.986-2.314l14.746,2.341a3.94,3.94,0,0,0,4.509-3.273l8.154-51.336a3.85,3.85,0,0,0-3.2-4.406l-51.28-8.144a4,4,0,0,0-4.567,3.32l-2.27,14.293a2.462,2.462,0,0,0,3.264,2.7A10.567,10.567,0,1,1,1694,523.716a1.685,1.685,0,0,0-2.843.939l-2.5,15.732a3.943,3.943,0,0,0,3.275,4.512l14.649,2.326a1.847,1.847,0,0,1,1.218,2.892,10.588,10.588,0,0,0,9.51,16.683,11.385,11.385,0,0,0,8.881-6.6Z" transform="translate(-1688.606 -485.829)" fill="#2274a4"/>
      <path id="Path_201" data-name="Path 201" d="M2055.07,799.461l-2.108-.349a5.2,5.2,0,0,0-6.594-1.522s-1.66.93-.561,1.8.805.391,2.328,1.649,3.5,1.76,4.789,1.145l1.645-.085Z" transform="translate(-1991.11 -749.624)" fill="#a16d3c"/>
      <path id="Path_202" data-name="Path 202" d="M2098.14,725.106c.069-1.551.9-1.717.9-1.717s15.979-1.059,17.348-1.323,14.1-10.809,14.1-10.809,4.918-4.415,8.365-2.929a6.752,6.752,0,0,1,4.084,6.207,6.835,6.835,0,0,1-3.948,6.612c-5.712,2.669-17.137,7.907-19.739,8.358-5.785,1.006-20.676-2.216-20.676-2.216A4.9,4.9,0,0,1,2098.14,725.106Z" transform="translate(-2035.796 -674.197)" fill="#e69d43"/>
      <path id="Path_203" data-name="Path 203" d="M2278.03,560.021a4.728,4.728,0,0,1-1.145-6.232,12.525,12.525,0,0,0,6.266,0c3.678-.859,6.969.358,7.4,1.644a2.993,2.993,0,0,1,1.574,2.719c.143,2.145-4.161,8.907-4.161,8.907s-.913-1.145-.669-1.932,1.038-2.539.071-2.539-1.286,1.431-1.674.859.323-2.969-.823-3.363S2279.31,560.744,2278.03,560.021Z" transform="translate(-2186.71 -543.199)"/>
    </g>
    <path id="Path_204" data-name="Path 204" d="M1160.96,1093.9l-14.5-65.815h3.99a1.725,1.725,0,0,0,1.72-1.72v-2.223a1.724,1.724,0,0,0-1.72-1.719h-50.616a1.723,1.723,0,0,0-1.719,1.719v2.223a1.723,1.723,0,0,0,1.719,1.72h5.138l-14.5,65.815a1.643,1.643,0,1,0,3.208.711l14.652-66.526h34.76l14.653,66.526a1.647,1.647,0,0,0,1.958,1.253h0a1.652,1.652,0,0,0,1.257-1.964Z" transform="translate(-754.887 -707.16)" fill="#748189"/>
    <path id="Path_205" data-name="Path 205" d="M2047.67,1224.1c-5.366-5.15-24.68,27.349-24.68,27.349S2053.03,1229.25,2047.67,1224.1Z" transform="translate(-1545.47 -877.667)" fill="#acd29a"/>
    <path id="Path_206" data-name="Path 206" d="M1808.23,1325c-4.75-1.9-19.929,14.1-23.348,17.8a75.98,75.98,0,0,0-8.63-.629c-24.036-.429-34.939,10.457-34.939,10.457l67.051.228s-5.937-7.542-22.79-9.96c4.118-1.944,16.289-7.612,20.724-8.7C1811.66,1332.88,1813.59,1327.15,1808.23,1325Z" transform="translate(-1306.671 -963.545)" fill="#acd29a"/>
    <path id="Path_207" data-name="Path 207" d="M1687.09,1111.61h-14.473a2.46,2.46,0,0,0-2.159,3.654c.874,1.583-2.2,15.3-8.685,15.656a10.57,10.57,0,0,1-9.21-16.641,1.685,1.685,0,0,0-1.37-2.661h-15.934a3.942,3.942,0,0,0-3.941,3.94s-1.445,17.1-2.672,16.485a10.512,10.512,0,0,0-4.167-1.093h-.014c-.178-.009-.356-.014-.537-.014s-2.8-.046-2.8-.046l-.4,21.121,2.284.024a13.2,13.2,0,0,0,5.716-1.119,1.789,1.789,0,0,1,2.588,1.6v14.919a3.94,3.94,0,0,0,3.94,3.94h51.979a3.85,3.85,0,0,0,3.85-3.85v-51.918a4,4,0,0,0-3.995-4Z" transform="translate(-1204.447 -782.772)" fill="#632b30"/>
    <path id="Path_208" data-name="Path 208" d="M1562.14,1151.51a10.657,10.657,0,0,0,7.143-.894,1.79,1.79,0,0,1,2.6,1.6v14.919a3.941,3.941,0,0,0,3.94,3.941H1627.8a3.85,3.85,0,0,0,3.85-3.85v-51.918a4,4,0,0,0-4-4h-14.473a2.462,2.462,0,0,0-2.159,3.654,10.568,10.568,0,1,1-17.9-.985,1.687,1.687,0,0,0-1.37-2.663H1575.82a3.943,3.943,0,0,0-3.941,3.943v14.832a1.847,1.847,0,0,1-2.672,1.652,10.579,10.579,0,0,0-14.989,12,11.41,11.41,0,0,0,7.922,7.769Z" transform="translate(-1147.809 -782.517)" fill="#ac3a43"/>
    <path id="Path_209" data-name="Path 209" d="M538.133,1355.85l9.343.069s-.326-2.261-6.615-2.844h0c-2.436-6.771-9.6-24.989-15.819-24.129-6.141.851,8.4,17.565,14.319,24.063a14.919,14.919,0,0,0-2.339.184c-1.424-2.838-4.249-6.851-8.786-6.666-4.826.195,1.749,4.6,6.277,7.307a11.166,11.166,0,0,0-3.532,1.961l7.047.052.128.068Z" transform="translate(-274.303 -966.997)" fill="#acd29a"/>
    <path id="Path_210" data-name="Path 210" d="M829.606,1010l1.382,1.122s3.78-1.356,4.634,3.138c0,0,.227,1.915-.986,1.918a22.82,22.82,0,0,0-2.436-.152,3.1,3.1,0,0,1-3.393-2.25l-.807-1.187Z" transform="translate(-532.397 -696.631)" fill="#ea8e50"/>
    <path id="Path_211" data-name="Path 211" d="M608.662,864.735a2.827,2.827,0,0,0,1.014-2s-12.769-10.448-14.065-11.306a157.287,157.287,0,0,1-14.683-14c-2.183-2.517-4.882-1.539-7.968-.652l-2.544.729a4.257,4.257,0,0,0-1.352,7.269c7.1,5.881,18.915,12.5,21.124,13.887,5.488,3.453,16.228,7.554,16.228,7.554a6.8,6.8,0,0,0,2.246-1.476Z" transform="translate(-311.61 -548.963)" fill="#1e3d70"/>
    <path id="Path_212" data-name="Path 212" d="M912.978,1447a9.63,9.63,0,0,0,7.848,1.1s3.829-.874,4.667,1.037c0,0-5.872,2.983-7.358,3.806a17.725,17.725,0,0,0-3.115,2.335,1.539,1.539,0,0,1-2.229-.172c-.259-.317-.554-.7-.878-1.134-.914-1.227-3.014-5.19-3.014-5.19Z" transform="translate(-600.982 -1067.104)" fill="#632b30"/>
    <path id="Path_213" data-name="Path 213" d="M679.129,1131.65s-1.888,4.351-6.242,3.552a121.544,121.544,0,0,1-14.986-14.966,33.926,33.926,0,0,1-4.657-7.278c-4.043-9.361-14.955-23.322-21.894-30.4l17.355-6.28s5.56,11.184,12.958,24.924C667,1111.1,673.281,1122.32,679.129,1131.65Z" transform="translate(-365.684 -752.82)" fill="#ac3a43"/>
    <path id="Path_214" data-name="Path 214" d="M661.657,1101.19l-3.766,19.029a33.937,33.937,0,0,1-4.657-7.278c-4.044-9.361-14.955-23.322-21.894-30.4l17.355-6.28S654.259,1087.44,661.657,1101.19Z" transform="translate(-365.676 -752.804)" fill="#8f2f37"/>
    <path id="Path_215" data-name="Path 215" d="M702.229,1452.63s-.189,3.471,4.021,3.935c0,0,2.405.012,2.411,2.221l-12.232.04a9.475,9.475,0,0,1-.441-2.8c-.067-1.466,1.42-5.3,1.42-5.3Z" transform="translate(-420.48 -1070.258)" fill="#632b30"/>
    <path id="Path_216" data-name="Path 216" d="M614.058,1071.95s7.733,8.5,12.635,23.806c2.672,8.329-4.894,29.271-6.37,36.547,0,0-5.076.431-8.546-.914,0,0-.263-15.029,1.766-26.612,1.135-6.482-10.183-13.864-15.128-25.575-3.364-7.968.728-7.832,5.759-8.024Z" transform="translate(-336.723 -748.497)" fill="#ac3a43"/>
    <path id="Path_217" data-name="Path 217" d="M576.32,768.826c-4.3,2.436-13.11.189-13.11.189a12.262,12.262,0,0,0,1.947-10.674l3.378,1.716,3.628,1.842a30.112,30.112,0,0,1,.4,3.253c.043.538.079,1.139.105,1.8A11.3,11.3,0,0,1,576.32,768.826Z" transform="translate(-307.917 -483.282)" fill="#ffb07b"/>
    <path id="Path_218" data-name="Path 218" d="M574.077,853.209c0,.761-.871,1.117-1.057,1.154-1.734.318-6.58,2.2-10.946,2.635a35.018,35.018,0,0,1-10.836-.734c-.5-.1-1.662-.414-1.745-.889-.1-.521-14.462-29.269-3.3-41.618.262-.289,2.465.233,4.479.711a8.279,8.279,0,0,0,5.092-.416l1.889.994c2.32,1.292,6.71,5.885,7.223,9.49.262,1.827,1.309,3.2,1.614,4.8q.169.9.344,1.746.343,1.675.706,3.182c.658,2.727,1.35,5.072,2.031,7.1.723,2.153,1.434,3.943,2.067,5.441.824,1.943,1.522,3.4,1.953,4.506a5.678,5.678,0,0,1,.486,1.9Z" transform="translate(-289.892 -530.193)" fill="#da2b39"/>
    <path id="Path_219" data-name="Path 219" d="M597.845,905.653A56.41,56.41,0,0,1,570.56,877.77s16.466,6.074,20.527,7.654q.343,1.674.706,3.182c.657,2.727,1.35,5.072,2.031,7.1.723,2.153,1.434,3.943,2.068,5.441C596.715,903.09,597.411,904.542,597.845,905.653Z" transform="translate(-314.148 -584.53)" fill="#a70e1b"/>
    <path id="Path_220" data-name="Path 220" d="M721.632,584.217l-4.342-13.765a2.46,2.46,0,0,0-3.013-1.629h0c-.064.018-.128.041-.19.064l-1.522.508s-2.384,2.454-4.094,2.949c-5.258,1.522-10.248-1.28-12.166-6.406-2.131-5.7.341-11.964,6.073-13.771,1.961-.618,5.82.534,5.82.534l1.55-.515a1.675,1.675,0,0,0,1.119-2.118l-4.782-15.15a3.931,3.931,0,0,0-4.932-2.568l-14.108,4.45a1.84,1.84,0,0,1-2.372-2.046,10.551,10.551,0,0,0-15.911-10.65,11.378,11.378,0,0,0-5.016,9.863,10.62,10.62,0,0,0,2.993,6.526,1.784,1.784,0,0,1-.743,2.949l-14.2,4.477a3.932,3.932,0,0,0-2.567,4.931l15.593,49.441a3.839,3.839,0,0,0,4.817,2.506l49.386-15.575a3.985,3.985,0,0,0,2.6-5.005Z" transform="translate(-380.69 -283.402)" fill="#054e79"/>
    <path id="Path_221" data-name="Path 221" d="M653.879,537.242a10.62,10.62,0,0,0,2.993,6.526,1.784,1.784,0,0,1-.743,2.956l-14.2,4.477a3.929,3.929,0,0,0-2.565,4.931l15.592,49.441a3.839,3.839,0,0,0,4.817,2.5l49.39-15.573a3.986,3.986,0,0,0,2.6-5l-4.342-13.765a2.454,2.454,0,0,0-4.11-.959,10.541,10.541,0,1,1-4.43-17.317A1.682,1.682,0,0,0,701,553.351L696.218,538.2a3.932,3.932,0,0,0-4.932-2.567l-14.107,4.45a1.841,1.841,0,0,1-2.372-2.046A10.552,10.552,0,0,0,658.9,527.38a11.368,11.368,0,0,0-5.021,9.862Z" transform="translate(-372.326 -286.18)" fill="#2274a4"/>
    <path id="Path_222" data-name="Path 222" d="M822.61,1023.96l1.751.643a3.745,3.745,0,0,1,5.69,1.553s.79,1.761-.456,2.144-.8.023-2.553.609-3.488.163-4.151-1.092l-1.19-.874Z" transform="translate(-527.057 -708.367)" fill="#ffb07b"/>
    <path id="Path_223" data-name="Path 223" d="M596.008,872.078c.647-1.69.942-2.456.942-2.456s-13.232-10.786-14.581-11.711c-.913-.63-10.066-7.46-14.526-12.8a9.332,9.332,0,0,0-9.073-3.144l-2.778.583a4.133,4.133,0,0,0-1.842,7.18c7.329,6.283,19.688,13.568,21.993,15.085,5.721,3.762,18.376,9.034,18.376,9.034a3.257,3.257,0,0,0,1.489-1.771Z" transform="translate(-299.012 -554.012)" fill="#da2b39"/>
    <path id="Path_224" data-name="Path 224" d="M585.782,774.705c-4.231.238-6.981-3.256-6.981-3.256s1.912-1.066,2.956-1.839l3.628,1.842a30.125,30.125,0,0,1,.4,3.253Z" transform="translate(-321.134 -492.836)" fill="#ea8e50"/>
    <path id="Path_225" data-name="Path 225" d="M565.457,714.422s-6.412,4.6-9.215.565-5.52-6.161-1.545-9.269,5.849-2.131,7.112-1.006S567.054,713.122,565.457,714.422Z" transform="translate(-299.005 -436.897)" fill="#ffb07b"/>
    <path id="Path_226" data-name="Path 226" d="M530.274,672.083a10.313,10.313,0,0,0-.747-2.643s-.4,1.667-3.448,1.437-7.872.3-9.481,3.769c-.1.221-.193.457-.275.68a8.029,8.029,0,0,1-.361-1.921,5.928,5.928,0,0,0,0,3.363h0c-.009.053-.015.108-.024.163a6.79,6.79,0,0,0-1.236,2.335,2.109,2.109,0,0,1,1.139-1.012c-.014,2.7,1.081,5.34,3,6.126,2.812,1.149,2.789.272,5.616,2.148,0,0,.761-.941.241-1.573s-2.471-1.551-1.379-2.471,1.495.114,1.9-.518-1.609-2.471.977-4.2S530.5,673.636,530.274,672.083Z" transform="translate(-266.792 -407.915)" fill="#233862"/>
    <path id="Path_227" data-name="Path 227" d="M1441.64,1334.55s-3.242-4.792-8.315-4.406c-1.542.117-4.048.493-6.959.894-2.2-7.661-8.245-25.868-16.406-26.894-8.333-1.046,7.976,19.2,14.645,27.131-1.218.16-2.48.317-3.754.457-3.532-3.771-9.685-9.356-14.823-8.927s4.492,5.756,11.454,9.239c-4.272.32-8.321.285-10.8-.672-6.06-2.343-11.631,3.179-11.631,3.179Z" transform="translate(-1013.132 -945.962)" fill="#82b378"/>
  </g>
</svg>
